<?xml version="1.0" encoding="UTF-8"?>
<svg xmlns="http://www.w3.org/2000/svg" viewBox="0 0 424 450.3">
  <style>.county, .prison{stroke:black;stroke-width:.4;fill:#000}
    .missing{opacity:.05;pointer-events:none;}
    @media (prefers-color-scheme: dark){.county, .prison{fill: #fff}}
    .hovered:not(.missing){stroke:#fff;stroke-width:2;filter:drop-shadow(1px 1px 2px rgba(0, 0, 0, .48))}
    svg{filter: drop-shadow(1px 1px 2px rgba(0, 0, 0, .64)) }
    use{pointer-events:none;}</style>
  <g id="counties">
    <path id="modoc-county" class="county missing" d="M137.4 22.5h11.5l1 .1h22.9l3 .1h5.7l2.5-.1h3v37.2h-49.6V44.6l-.1-4.8v-7.1h-.3v-8h.4v-2.2Z" name="Modoc" fips="06049" />
    <path id="lake-county" class="county missing" d="M88 132h5.3v3.6l.1.2v2l-.3.6v2.3h-1.5l.1.2h.2v.2h.4v-.1h.3l.1.2.1.1h.1l.1.1v.5l-.1.1v.2h-.2v.1l-.2.2h-.2v.4l-.1.1v.2l-.2.2v.5h.1v.3h.1v.2h.1v.1l.2.2v.3l.2.2.2.2.3.1.1.1h.2l.3.3.2.2v.2h.2l.1.1.3.2.2.2.1.1v.1h.3v.3l.2.2-.2.1v.2h.2l.1.1h.1v.2h.3l.2.1h.1v-.1h.1l.2-.2h.8l.1.1.1.1h.3l.1.1h.5l.2.2v.1h.1v.2h.4l.2-.1h.5v-.1l.2-.1h.7v.4l.1.2.1.1.1.2h.3l.2.3v.3h.7v.4h-.1l-.1.2v.2l.1.1v.4h.1v.2h-.1v.1h-.6v.7h-.1v.5h.2v.6h.1v.3l.1.2v.5h-.1v.4h.2v.2h-.2v.5h.1l.2.2h.5v.2l.2.2.2.2.2.2.2.3h.2v.1h.7v.1h.2v.4l.1.2h-.1v.4h-.1v.2h-.1v.6l.2.2h.1v.5l.2.2v.1h.3l.1.2h.1l.2.2.1.1v.1h.2v.1h.2l.2.2.2.2.2.1h.3v.2h-2.1l-.1.1-.1.2v.1l-.1.2h-.2v.2l-.1.1v.2h.1v.1l.2.2v.2l.1.1.1.1v.2h.1v.1h.1l.1.2.2.1v.1l-.1.2-.3.3.7 1 .3.8-.2.6-.6-.1-.5.8v.4l.3.2-.4.2-.4.7-1.3 2-.7.3-3.7 1-1.2.4v-.5h-.1v-.1l-.1-.2-.2-.1v-.5l-.2-.2v-.2h-.6l-.2-.1-.1.1H95v-.1h-.3v-.2h-.1v-.3l-.1-.2h-.1v-.2h-.1l-.1-.1H94v-.1l-.1-.2v-.2h.1v-.2l-.1-.1h-.1l-.1-.2h-.1v-.5l-.1-.1v-.2h-.2l-.1-.2v-.2H93l-.1-.1v-.1h-.1v-.8h-.2l-.2-.2-.2-.2h-.1v-.4h-.4l-.1-.3h-.2l-.1-.1h-.1l-.1-.2v-.2h-.6v-.1l-.1-.1h-.2l.1-.2-.1-.1v-.4h-.7v-.3H89v-.3h-.6v-.3h-.6v-.7h-.6v-.3h-1.3v-1h-.5l.1-.3h-.3v-.7H85v-1.6h-.3v-.6h-.8v.2h-.3v-.2h-.3v-.4H83v-.3h-.3v-.3h-.4v-1.3H82v-.6h-.6v-.4H81v-1h.3v-1.9h.3V150h1l.1-.3h.1v-.5h.2v-.3h.2v-.4h.2v-.3h.1v-.3h.3v-.6h.6v-1h-.2l-.1-.9h-.5v-2H83v-1.8h-.4v-.6h-.3v-1.4h-.6v-1.2h.2l-.2-.8h.4v-2.2h.6v-.3h.7v-.4h1l2 .1v-.6H88v-.2l.2-1.4v-.6Z" name="Lake" fips="06033" />
    <path id="inyo-county" class="county missing" d="M229 224.8h14.6l14.3-.1h3.4l4.1 3.8 1 1 3.5 3.2 1.4 1.3 1.4 1.2.7.7 3.6 3.3 3 2.9.7.7.8.6 2.7 2.5 1.1 1.1 2.3 2.1v.1l2.2 2 2.5 2.4 1.3 1.2 6.2 5.8 5.7 5.5 1.4 1.4.5.3 3.7 3.6.1.1 4.3 4.1 2.1 2 2.8 2.7.4.3.1.1 4 3.8v.1l.5.5 1.7 1.6.7.6 1.4 1.3.2.3 3 2.9.3.2 2 2h.1l.7.7.7.7h-3v.7h-18.8l-22-.1h-24.3l-7.4-.1h-2.6v.5h-1l-1.6-.1h-.2V295h.1l.1-.2v-.2l-.2-.1v-.1l.1-.2v-.8l-.1-.2v-.1h.2v-.2l.1-.1h.2v.1h.4v-.3l-.1-.2h-.2v-.4h.2v-.4l-.1-.2v-.2l-.1-.2v-.2l.2-.2v-.4l-.1-.2-.1-.1v-.2h-.4v-.1h-.3v-.3h-.2v-.6h.1v-.4l.1-.1h.2v-.5l-.2-.1v-.3h-.1l-.1-.1-.2-.2h-.4v-.2l-.1-.1v-.4l-.1-.2v-.1h-.1v-.4h-.2v-.2l.1-.2-.2-.2v-.2l-.1-.1v-1.1h-.1l-.1-.2h-.2l-.1-.1V282l-.2-.1v-.7h.1l.1-.1.2-.1v-1l-.2-.2h-.1l-.1-.4v-.1l-.2-.1-.1-.2h-.3v-.2l-.2-.1v-.1l-.2-.1-.1-.1v-.2l-.1-.2v-.8l-.2-.1v-.4l-.1-.1-.1-.2v-.7l-.1-.2-.2-.2v-.8h.2v-.3h.5v-.7h.2v-.2h.1l.1-.1v-.2l-.1-.2v-.2h-.2l-.1-.1h-.4v-.2l-.2-.4-.1-.2v-.1h-.4v-.3h-.4l-.1-.4h-.3l.1-.2v-.1l.3-.1.2-.1.2-.2.1-.2v-.6h-.2l-.1-.1h-.1v-.1h-.2v-.3l-.2.1h-.2l-.1.1-.1.1h-.8v-.1h-.5v-.9l-.1-.3-.1-.2h-.1v-.1h-.1l-.2-.1-.1-.1-.2-.3v-.1l-.2-.2h-.2v-.2h.1l.2-.2.1-.1v-.1l-.1-.2.1-.3v-.7h-.4l-.2-.1v-.2l.1-.1v-.2l-.1-.1v-.1h-.2v-.1h-.1v-.1l-.1-.2h-.5v-.2h-.3l-.1-.1v-.6l-.2-.2h.1l.2-.3v-.2h.1l.2-.1v-.2h.1l-.1-.3h-.5v-.2h-.1v-.1l-.2-.1v-.2l-.1-.2h-.2v-.1h-.2l-.1-.1v-.7l-.1-.1-.1-.1-.4-.2v-.4h.1l.1-.2v-.2h-.6v-.3l-.1-.2h-.1l-.1-.1-.2-.2h-.1v-.2h.5l.2-.1v-.1l.1-.2h.4v-.7l-.2-.2v-.2h-.1l-.2-.4-.1-.1h-.2v-.1l-.1-.2h-.2v-.1l-.1-.3v-.2l-.2-.1v-.5l-.2-.2.1-.1v-.4h.1v-.4l-.1-.1v-.2h-.2v-.3l-.1-.1h-.1v-.4l-.1-.1v-.2h.7l.1-.1v-.1l.2-.2v-.8h-.1v-.3h-.1v-.5l.2-.1v-.3h-.1v-.3l-.1-.1v-.4l-.2-.3v-.1l-.2-.3v-.4l-.3-.5-.1-.3-.2-.2h-.2v-.6l-.2-.2v-.2l-.2-.2h-.1v-.4h.2v-.1l-.1-.2-.2-.2h-.1v-.1h-.1v-.2l.1-.1v-.5h-.1v-.2h-.2l-.1-.1h-.1v-.4l.1-.1v-.5l-.2-.2h-.1l-.1-.2-.2.1h-.5v-.1l-.1-.2h-.4l-.2-.1-.1-.2v-.2h-.2l-.1-.3h-.5l-.2-.2h-.1l-.1-.1v-.1l-.1-.1h-.1v-.3h-.5v-.2l-.2.1h-.6v-.4h-.6v-.2h-.1v-.4h-.1v-.2l-.2.1h-.2v-.1h-.2v-.2h-.2l-.3.2-.1.1h-.5l-.1-.2h-.4v-.2h-.2v-.2l-.2-.1v-.4l-.2-.2.2-.2v-.8h-.1v-.2h-.2v-.2h-.1v-.1h-.1v-.3l.2-.2h-.1v-.4h-.2v-.8l.1-.1h.1l.2-.3.1-.2.1-.2-.1-.2-.2-.2v-.3h-.2v-.2l-.1-.2v-.1h-.1l-.1-.2v-.1l-.1-.1v-.3h-.2l-.3-.3v-.3h-.1v-.2h-.1l-.1-.1-.3.1h-.1l-.1.2v.1l-.3.1h-.1v-.2h-.3v-.2h-.1l-.2-.2h-.2l-.2-.1-.1-.1h-.2v-.2h-.2v-.5l.1-.2.2-.1h.4v-.4l-.2-.3-.2-.2v-.1h-.1v-.4h-.2v-.4l.1-.1.1-.3v-.4l.1-.2h.5v-.3h.1l.1-.2v-.7l-.1-.3h-.2v-.1h-.1v-.1l-.1-.1Z" name="Inyo" fips="06027" />
    <path id="imperial-county" class="county missing" d="M321.2 394.7h35.2l2-.1h5.8v-.2h7l-.1.2-.2.2-.2.2-.3.2h-.3l-.5-.2h-.5l-.3.2v.1l-.2.1h-.6l-.1.1v.4l.3.4.2.1v.4l.3.7v1l-.2.3v.2l-.2.1-.4.4-.2.3.2.7h.2l.2.2h.3l.3.1.3.2h.2v.2l.2.4v.2l-.5.3v.1l.2.4.1.3.2.1v.5l-.2.3v.2l.1.5v.2l-.1.3v.6l-.1.2v.3l-.2.3v.1l-.3.3-.3.7v1.1h.4l.2.1v.5l.5.6v.8l.3.2h.2l.1-.2.2-.3.1-.1h.2v.1l.3.3.1.3h.1l.3.2h1.2v-.3h.2v-.1h.8l.5.1.5.1h.2v.1h.1l.2.2.1.3.1.2.1.3.1.5.1.5v.3l.2.1h.3v-.2h.3l.1.1v1l-.2.1-.1.2v.7h.1l.4.4v1.6l-.2 1.2-.2.2-.3.3-.2.3h-.2v.1l-.2.1-.3.2-.2.1-.1.3-.1.2-.2.2-.1.1v1.1l.1.3h-.4v.4h-.9v.3h-.6v.3h-1.1v.2h-.6l-.5-.1h-.7l-.3-.2h-.5l-.3-.3-.2.1-.3.4v.1l-.1.3v.2h-.7l-8.4.7h-.6l-11.4 1h-1l-3.5.3h-.6l-.3.1h-.3l-1.1.2h-.1l-4.4.3-1 .2-5.2.4-7 .6-2 .2v-4.4h.1v-14.1h.8v-6.7l-.1-1.8v-3h-.1v-3Z" name="Imperial" fips="06025" />
    <path id="humboldt-county" class="county missing" d="M47.6 47h10.1v3.8H67l.2.2h.2l.1.2h.1l.2.2v.5l-.2.2v.2l.2.3v.7l.2.2.1.1h.2v.8h.2v.5h-.1l-.1.2v.1l.2.2.2.1h.1l.1.2V57h-.1v.2h-.2v.5l.4.2h.1v.1l.1.2v.4l.2.1v.2h.2v.3h.2l.1.1v.4h.1v.2h.1v.5l-.2.1v.1h-.2l-.3.1-.1.1v.1l.1.3v1.6l-.2.3v.6l-.2.2v.2h-.5l-.1-.2h-.1v.3l.1.2v.1l-.2.2h.2v.3h.3l.2.3h.5l.2.2v.7l.2.2v.2l.2.1h.2v.3l-.1.2v.1l.1.3h-.1l-.2.1h-.1l-.2.2v.1l-.1.1v.6l-.1.2h-.2v.5H69l-.2.3h-.2v.3h.2l.1.1v.5h-.1v.1h-.1l-.1.1h-.2l-.2.2h-.1v.1l-.3.2v.3h-.1v.4h-.8l-.2-.2h-.1l-.1-.2h-.1v-.1l-.1-.1-.1-.1H66V71h-.1v.2h-.4v-.4h-.1l-.3-.2-.1-.1v-.1h-.4v.1h-.1v.4l-.3.2h-.1l-.2.2h-.2l-.2-.1h-.8v.2h.2v.2l.1.2v.4h.2v.8h.2l.1.1v.4h-.4.4l.1.2v.2h.1v.2h.1l.1-.1h.2v.5l-.2.1.2.1h.2v.5l.3.1h.1v.4l.1.2v.1l-.2.2v.4l.1.2h.2v.5l.1.1v.2l-.3-.1v.4l.2-.2.1.2v.2l.3.2v.2l-.1.1v.1l.1.2h-.1v.5h.1v.4l.1.1v.1h.1v33.3H49l-.2-.2-.3-.3-.2-.2-.2-.2-.3-.1h-.5l-.2-.1v-1.8l-.3-.6-.3-.2v-.1l-.3-.5-.1-.1-.2-.2-.2-.1-.1-.1-.3-.2h-.1l-.2-.2h-.4v-.1l-.7-.2-.2-.2-.2-.1h-.2l-.4-.6-.1-.2-.2-.3-.2-.2-.2-.2-.2-.2-.2-.2-.1-.1-.3-.1-.5-.3-.5-.6h-.2l-.4-.3-.2-.2-.4-.4-.4-.4-.3-.5-.1-.1-.4-.2-.3-.3-.2-.2h-.1l-.1-.2v-.7l.1-.5.1-.4v-.1l.1-.3.2-.2v-.8l-.2-.2v-.2l-.2-.1V98l-.1-.2v-1.4l-.3-.7-.3-.2-.4-.4v-.4l-.2-.1v-.1l-.2-.2v-.5l-.1-.1v-.4l.3-.8v-.1l.3-.8.2-.4v-.5l-.1-.1V90l.1-.2.1-.1.3-.5.3-.7 1-2.6.1-.3v-.2l.4-.7.1-.3h.1v-.1l.7-1.4.1-.3.2-.3.6-1 .6-1.2.5-1V79l.1-.1.1-.3 1-1.6v-.3l.2-.2.2-.5.2-.4.2-.3.5-1.2.1-.3.2-.4.4-1.4.2-.5v-.3l.2-1 .1-.2v-.2l.2-.5v-.6l.1-.3v-.2L46 67v-.3h-.1l-.1-.2v-.2l-.2-.2V66h-.2v-.1h-.1l-.1-.2h-.4v.2h-.2v-.2l.2-.3h-.1l-.1-.2h-.1l-.1-.1v-.2l.1-.1V64l-.2-.4v-1.1l-.1-.3.1-.2.1-.2h.5v-.1l.2-.4.1-.5.3-.9.2-.3v-.3l.3-.9v-.2l.2-.4v-.5l.3-1.1V56l.2-1 .4-2.6.3-1.3.1-1.4.2-1.2v-.8l-.1-.1V47Z" name="Humboldt" fips="06023" />
    <path id="glenn-county" class="county missing" d="M86.3 122.2h30.5l.2.2h.1v-.1l.2-.1h.3v.5l-.2.2v.5l.1.1v.1h.2l.2.3h.2l.3.3.1.2.3.3v.1l.2.2v.1h.2v.1h.2v-.3l.2-.1.2.2v.2l-.1.1h-.1v.5h.4v-.3l.1-.3h.2v1.2l.2.2v.4h-.1l-.3.1-.1.1v.2l-.1.2h-.4l-.1.1-.2.2h-.4l-.2.1v.3h.2l.1.1h.1l.2-.1h.2l.1.2.1.2v.2h-.5v.2h-.2v.7h-.1v.2l.1.1h.1l.2.2v.4h-.5l-.1.1v.1l-.2.1v1l-.1.2-.1.1v.3h.4v.2h-.4v.4l.1.2v.3l.1.3.1.1h.1l.2.2v-.1h.4v.1l1-.3h3v.4l-.1.1h-.1l-.1.2h-.2v.3h-.1v.8l.1.2v1l.1.1v.1l-.1.1v1h-.2v.1l.1.1v.5h-.1l-.1.2v.5l-.1.2-.1.1v.2l-.1.2v.3H118v-.4l.1-.1.1-.1v-.3l-.1-.2v-.2h-4.5v1.2H94.9l-.2.1h-1.5l-.1-2.3.2-.5.1-.2v-2.2l-.2-.3.1-1.6v-1.7h-5.2v-1.3l-.2-.5v-3.9H87v-1.7h-.9v-2.3Z" name="Glenn" fips="06021" />
    <path id="plumas-county" class="county missing" d="M135.6 93.2h4.6l.6-.1.3.1h9.5v8.6h.7v1l.4-.1h.9v.6h2v.7h.6v.6h1.3v-.3h.6v-1.9h.6v-.3h.4v-.3h.3v-.7h.6v-.3h.7v-1.1h.7v-.3h.4V99h1.3v.4h2.6v.4h.3v.3h.7v.3h1.5v1h1v.4h.6v.3h.7v.6h.6v.7h.3v.6h1v.6h.3v.7h.3v.4h.7v.3h.3v.6h.3v.3h.7v.5h.6v.3h.7v.4h2.6v.3h.6v1h1.3v1.9h.3v1.4h.6v.6h.3v.7h.4v.6h.3v.3h.3v.3h.3v.4h.4v.4h.6v1.2h.3v1.3h-.3v3.9l-.1.6v.7h-.3v.7h-.3v.6h-.6v1.3h-17.4v.6l-.2.3-.1.1-.2.1h-.1l-.1.1h-.1v.2h-.1l-.2-.2-.1-.2-.2-.2v-.1h-.3l-.1-.1v-.2h-.2v-.2h-.1v-.2h-.7v-.2h-.3v-.1l-.2-.1v-.1h-.7v.3h-.8v-.4h-.5v-.2l-.1-.1v-.4l-.1-.1v-.4h-.1v.1h-.3l-.1-.2h-.2l-.1.1h-.1v-.2h-.1v-.3h-.2l-.2-.1v-.2l-.1-.1v-.2h-.2l-.1-.2h-.2l-.1.1h-.2v.1l-.2.1-.1.1-.1.2h-.4l-.1.2h-.3l-.1.2h-.2l-.1.4h-.2v.1l-.1.1v1.7h-.2l.1.1v.2h-.1v.5h-.1v.1l-.1.2-.3.2.1.2-.2.1v.1h-.3v.4h-.1v.1h-.2v.2l-.2.1h-.1v.1l-.1.1h-.2l-.1.1h-.1l-.1.2h-.3l-1.5 1v.2l-.8.6-.1-.3h-.3v-.4h-.3v-.3h-.7v-.4h-.7v-1.2h-.6v-.3h-.3v-.4h-.3v-.6h-.6v-.7h-.7v-1.1h-.7v-.7h-.6v-.6h-.7v-.7l-.6.1v-.6h-.1v-.2h-.2v-.1h-.4v-.4h-.4v-.6h-.5v-.7h-.6v-.6h-.4v-.7h-.6v-.4h-.7v-.3h-.4v-1.3h-.6v-.6h.6v-.7h-.3V115h.3v-1.3h-.3v-1.3h.3v-.7h.4v-.9h.6v-.2h.2v-.7h.3v-.6h-.3v-1h-.4v-.4h-.6v-1.5h-1.3v-1.2l.1-.2h.2l-.1-.1v-.2h-.2v-.2h.4v-.1h.8l.1.1h.1l.1-.1v-.2h.3l.1-.2.2-.3h.6v-.3l.1-.2.1-.2v-.1l-.2-.2v-.1l.1-.2v-.2l.2-.2v-.1l.1-.2.2-.2v-.1l-.1-.1.1-.3v-.1h-.3v-.2h-.1v-.3h-.3v-.4h-.2v-.2l.3-.2h.1l.1.2h.1l.2-.1v-.2h.1l.1-.1h.1v-.2l-.2-.2h-.1l-.1-.2-.2-.1h-.2v-.4l-.2-.1-.1-.1V98l-.1-.1h-.5l-.1-.1h-.6l-.1-.2h-.2l-.2-.2-.2.1h-1.2v-.1h-.1v-.2l-.2-.3v-.5h.2v-.1l-.2-.2h-.1l-.1-.3v-1l.1-.1v-.4h.1l.1-.2V94h-.5l-.3-.2v-.2h.1v-.4Z" name="Plumas" fips="06063" />
    <path id="mendocino-county" class="county missing" d="M49 113.2h16.5v1h20.9l.3.3v1.3l.2.1v.1h.4v.3H87l-.1.1v.6h-.2l-.1.1h-.3v.1l-.2.1h-.2v1.4h-.1v.7h-.1v.5l-.1.2v.4h.1l.1.1.2.2v1.4l.2.1v2.2h1v1.9h.6l.1 2.8v1l.2.5v2L88 134v.3h-1.7v.6h-2l-.7-.1h-.3v.3h-.7v.4H82v2.2h-.4l.2.8h-.2v1.2h.6v1.3h.3v.7h.4v1.2h.3v.6h.3v2h.5v.9h.3v1h-.6v.6h-.3v.6h-.2v.4H83v.3h-.2v.5h-.2v.3h-1.1v1.5h-.3v1.9H81v1.1h.4v.3h.6v.7h.3v1.2h.3v.3h.4v.4h.3v.4h.3v.2h.3v-.2h.8v.6h.3v1.6h.3v.6h.3v.3h.4v1.1h1.3v.3h.6v.6h.6v.4h.6v.3h.6v.3h.7v.4H84l-.4-.1h-2.1v.6h-2v1.3h-5l-3 .1v1.3h-4.4l-.1.1h-.2l-.1.2v.1h-.2l-.1.2v.2h-.1l-.2-.2-.3-.2v-.2h-.3v-.2l-.2-.2-.2-.1H65l-.1-.1v-.2l-.2-.2-.2-.1v-.1h-.2v-.2H64v.2-.1h-.2v.1h-.1l.1-.2v-.1h-.3l-.1-.1.1-.1v-.1l-.1-.2v-.1l-.1-.1-.3-.2v-.2h-.3v-.2l-.3-.2-.2-.2H62l-.2-.4-.1-.5-.2-.3-.7-.4v-.2l-.1-.1-.2-.3-.5-.3v-.2l-.1-.1h-.1v-.2l-.1-.1h-.1l-.2-.2h-.2v-.7l-.1-.2-.1-.2-.3-.5h.4l.3-.4.3-.5.5-1.2.3-.8-.1-.2v-1.2l-.1-.1-.3-.8v-.7l-.2-.2v-.4l-.1-.2-.1-.4-.2-.2.1-.2v-.4h-.1l-.2-.2h-.3v-1l-.2-.1-.1-.1v-.3l-.3-.1v-.4l-.1-.1-.2-.3h-.1l-.2-.1v-.4l-.1-.4-.1-.1h.2v-.2l-.2-.1v-.4h-.2l.1-.2v-.1l-.1-.7H57v-.7l-.1-.2h-.2v-.1l-.1-.1v-.6h.2v-.5h-.4l-.2-.3v-.1h.5v-.3l-.2-.2h-.1.1v-.2h-.2v-.1l-.2-.2v-.2l-.1-.2-.2-.2v-.3l.1-.2v-.1h-.1.4v-.2l-.3-.1v-.1h.1v-.4l.1-.3v-1h.1v-.7h.2v-.1h.1v-.1h-.2v-.1H56v-.4h.1v-.6h.1v-.2l.2-.4v-.2l.1-.5v-.3h.2v-.1l.3-.4.1-.4.2-.5v-.1l.5-1.3v-.3l-.2-.3v-.3h-.1l-.1-.1v-.5l-.3-.3v-.7l.1-.6-.1-.2v-1.6l-.1-.2-.2-.1v-1l-.1-.1-.2-.2v-.2l-.2-.4-.5-.3-.2-.2v-.6h-.2l.1-.1v-.2l-.1-.3v-1.1l-.2-1-.1-.4v-.5l-.2-.5v-.1l-.1-.1-1-.5-.2-.3-.2-.1v-.1h-.2v-.2H53v-.1l-.4-.6v-.2l-.5-1.3-.2-.2h-.1l-.3-.2v-.1h-.2l-.1-.3v-.3l-.2-.1-.4-.7-.2-.5-.5-.5-.4-.5-.2-.2-.1-.2-.2-.2v-.1Z" name="Mendocino" fips="06045" />
    <path id="placer-county" class="county missing" d="M138.5 157.8h.2v-.1l.3-.3.1-.1.1-.1.1-.1h.2v-.2l.3-.2v-.1l.1-.1.2-.2h.5l.2-.1.1-.1.3-.1.1-.2h.4v-.3h.2l.1-.1h.2l.1.1h.1l.2.2v.2h.1v.1h.3l.1.2h.3l.2.1h.2v.1h.4v.1l.3.2.2-.1.1.1.2.2v.2h.7v-.1l.3-.1.2.1.2.1h.1v-.2l.2-.1h.3l.2-.1v-.1h.2v-.1h.2v-.2l.2-.1h.1l.1-.2h.1l.1.2h.2v.4h.2v.2h.4l.2.2v.1h.7l.1.2h.3l.1.1h.2v-.1h.4l.1-.2h.2l.2-.1v-.4h.1l.1-.2.1-.3v-.2h.2v-.4h.2v-.3l.2.1v-.4l.2-.1v-.2h.2v-.2l.1-.1v-.3l.2-.2v-1h.3l.1-.2.1-.1v-.1h.1v-.1l.1-.1v-.2h.2l.1-.1.1-.1.1-.2h.2v-.3h.2v-.2h.1v-.1l.3-.1v-.1h.2v-.2h.1l.2-.1h.2v-.1h.1v-.4l.2-.1.1-.1h.4v-.1h.5l.1-.1v-.2l.1-.1v-.1l.2-.1v-.2h.1v-.5h.4v-.2h.3v-.1h.2v-.2h.2v-.1h.1l.1-.2h.2l.2-.2h.2v-.1h.1v-.1l.3-.2h.1v-.1l.2-.1v-.1l.3-.2v-.1h.2l.1-.1v-.2l.2-.1h.1v-.1l.3-.2v-.1l.2-.1v-.2h.2l.3-.3.2-.1.3-.2h.1l.1-.1h.1v-.1h.1l.2-.1h.1v-.2h.5v-.1h.2v-.2l.1.1h.8v-.3h22v9l.1 2h-4.9v.3h-.4v.6h-.4v.4h-.6v.3h-2v.3h-4.6l-1.2-.1-.8-.1h-.1v.2h-.2v.7h-.1l-.1.2v.2h-.1v.5h-.2v.1l-.1.2v.1h-.1v.2l-.1.1-.1.1v.2h-.2l-.1.2h-.2v.1l-.1.2-.1.1v.1l-.1.1v.2h-.3v.2l-.1.1h-.2v.2h-.8l-.1.2h-.4v.2h-.2l-.1.3h-.8v-.2h-.1l-.1-.1v-.4h-.2l-.1-.2h-.4l-.1-.2v-.1h-.4l-.1-.1h-.8l-.1-.2h-.1v-.1h-.2v-.1l-.2-.2h-.4v-.2h-.1v-.1h-.2v-.4l.1-.1v-.2l-.1-.1v-.3h-.1l-.2.2-.2.1h-.3l-.1-.1h-.2v-.2l-.1-.1-.1-.3-.1-.1h-.7v-.1h-.1v-.2h-.1l-.1.1h-.4v.1h.2-.2v-.1l.1-.1h-.4v.1h-.2v.1l-.2.2h-.2l-.2.1v-.2h-.5v.2l-.1.1h-.3l-.1.2v.4l-.1.1v.2l-.1.1h-.2v-.2h-.3l-.1.1-.1.1v.6h-.1v.4h-.4v-.1h-.2l-.1-.1h-.3v-.1h-.4l-.2.2h-.4l-.1-.2h-.2l-.2-.2h-.4v1.2h-.2l-.2-.1h-.3l-.1.2h-.2l-.1.1h-.1l-.1.1h-.4v.2l-.2.1v.1h-.3l-.2.1h-.4v.1h-.7v.2l-.1.1h-.1v.1l-.1.1h-.1v.2l.2.1.1.2-.2.1-.3.2h-.1v.2h.1l.1.3v.3h-.1l-.1.2v.3l.1.1v.2h-.1v.1h-.4l-.1.2-.2.1v.1h-.1v.1l-.1.2.1.3v.3h-.6v.1l.1.3v.8h-.1l-.2.3v.2l-.1.1-.2.2v.6l-.1.2v.1l-.3.7-.2.1v.8h-2.2l-.3-.1h-.6l-.3-.1h-1.2v-.1h-.9v-.1h-.8l-.3-.1h-1.3l-.6-.2H138l-.7-.1-.9-.1h-.3v-.8h.5v-7.7h1.9v-3.1Z" name="Placer" fips="06061" />
    <path id="marin-county" class="county missing" d="M104 207.4v.4h-.7v-.2h-.2l.2-.2v-.1h.2v-.2h.4v.4h.1Zm-20-18.8.2-.1h.1v-.4h.1l.2-.2h.5l.2-.2v-.1h.3l.2.1.1.1h.4v-.1h.1v.2-.1h.3v.1h.3v-.2h-.1v-.3h.4v.1h-.1v.2h.1l.2-.1h.1l.8.8.8.6.4.3.4.4.6.5.3.3.6.4 1.3 1.2.3.2h.6l.1.1.1.1v.1l.3.1.2.1h.2l.1.1h.1l.2.1.1.1h.5v.1h.2l.2.2.2.1h.3l.2.1h.2v-.2h.5v.1h.3l.1-.1v-.1h.1l.1-.1h.5v.2h.3v-.1h.2v.7l.1.1h.4v.1h-.2v.4l.3.1h.1l.2.1v.2l.3.1v.1l.3.1.1.2.1.1.1.2v.2l.1.2.1.3.2.2h.3v.2h.1v.1l.2.2v1.4l-.1.2-.1.3v.4l-.2.3-.1.4v.5l.1.2h.3l.2.3h.2v.1h.4v.1h.2l.2.3.2.2v.4l-.2.1h-.3v-.2l-.3.2v.2l-.1.2h-.7v.2h.2v.4l.2.5h.1v.1l-.1.2-.2.1h-.2v-.2h-.2v.5l.3.3h.3v.1h.1l.1.1h.1v.2l.1.1h-.1v.2h.1v.1h.1l.3.2v.2h.4l.2.3.2.1v.2h-.2v.1l-.2.1v.1h-.4v.3l.1.2-.3-.3-.2-.3v-.5l-.4-.1-.2-.3v.1h-.3l.1.7-.1.1v.1h.1v.3h.3l.3.3v.5l.1.3.1.2v.2h-.1v.3l-.3-.1h-.2l-.2.2h-.7l-.3-.1-.1.1-.1.1v.2l-.1-.2v-.1h-.1v-.4l-.5-.3-.2-.3-.1-.2-.1-.2-.4-.1v-.2h-.4l-.3-.2-.3-.4-.5-.3-.1.1H97v-.1h-.2v-.2l-.5-.6-.6-.3H95l-.4.2-.2.1v.2l-.3-.1-.1-.2h-.4l-.1-.2v-.3l-.2-.3-.1-.3-.4-.2-.2-.2h-.2l-.2-.1-.1-.2-.1-.1h-.2v-.2h-.2v-.1l-.3-.8-.2-.3-.3-.3h-.1l-.4-.6-1.3-.8-.8-.4-.8-.1h-.6l-.6-.2-.6.1-.5.4-.3.5v.5l.2.1h.3v.2h-.7l-.2-.2h-1.1l.1-.2h.2l.1-.2.7-1.6 1-3.1.4-1.1.1-.7v-.5l-.2-.2v-.3l-.2-.1-.2-.2v-.7l-.5-.6v-.3l-.2-.1-.2-.4v-.1l-.1-.1v-.1l.3.1.2.2v.2l.3-.2V190l-.2-.3-.3-.2-.1-.3-.2-.2v-.3l-.3-.2Z" name="Marin" fips="06041" />
    <path id="mariposa-county" class="county missing" d="m210.7 211.1-4.9 4.9-1.8 1.8-2.7 2.8v2.8h-1.1v1.4H199v1.9h-3.8l-.7.6-3.2 3.3-6.1 6.2-.1-.1v-.1l-.2-.4-.2-.1-.1-.2-.2-.2-.2-.2v-.1l-.1-.1-.2-.2h-.5l-.3-.3-.4-.1h-.1l-.5-.3-.2-.1-.2-.2-.5-.4h-.1l-.2-.3-.2-.2v-.3l-.1-.3v-.2l.1-.3-.2-.3v-.2l-.2-.1-.1-.1-.2-.2-.2-.5-.2-.5-.1-.2-.2-.4h-.1l-.1-.3-.1-.1-.3-.5-.1-.2-.1-.2h-.1l-.1-.2-.1-.2-.2-.3-.1-.2-.1-.1-.1-.3v-.2h-.1v-.1h-.2v-.2h-.1v-.7h.1l.2-.2v-.1l-.1-.2v-.1l-.1-.3v-.2h-.2v-.2l-.2-.3v-.1l-.1-.1-.2-.1v-.2l-.1-.2-.2-.1-.1-.1-.1-.3v-.4l-.2-.4v-.2l-2-3.9-.1-.3-.2-.4.1-.3v-.1h.1v-.2h.2v-.3l-.1-.1h-.2v-.2l-.2-.1v-.2h-.1v-.7h.4v.1h.5v.2h.1v.2h.2v-.1h.2l.2.1v.2l.1.2.3.2v.2l.3.2h.2l.2-.2h.1v-.4l.2-.1-.1-.2v-.2h-.1l-.1-.2-.1-.1v-.2h-.1v-.1l-.2-.2v-.1l-.1-.1v-.2l-.1-.1v-.1h-.2v-.4l-.2-.2v-.4h.8l.1-.2h.4v-.1h.5l.1.1.2.1v-.5h.1l.2.2h.2v.1h.1l.2.2v-.6h.1v-.1l.1-.1h.4l.2-.1v-.5h.3l.1.2.1-.2h.9v-.2h.2v-.1h.2v-.2h-.1v-.2l.1-.1v-.2h.1v-.4h.1v-.1l.1-.1v.2h.1v.1l.2.1h.1v.1h.5l.2.2h.5l.2-.1h.1v-.2l.1-.1h.1l.2-.2.2-.1v-.1l.1-.1v-.2h.3v-.6h.2v-.2l.1-.1h.4l.2.2h.2v.5h.5l.1.1h.1v.1h.1l.3-.1.3.2.3.2.2.1.1.2h.4l.2.2.2.1.2.2h.2l.2.3.1.1.2.2h.2v.2h1l.2.2v.1h.2l.1-.1.3-.1h.5v-.1h.1v-.2h.4v.3h.2l.1.1v.2h.2v-.2h.1l.2-.1v-.2h.4l.1.2.1.1.1.1h.2l.1.2h.2v-.2h.2l.3-.2h.6v-.2h.3v-.1h.4l.1-.2v-.2h.4l.1-.2h.5l.1-.2h.3l.2.1h.1l.2-.2v-.2h1v-.1l.3-.4h.2v-.8l-.2-.1v-.1l.1-.1.1-.1.1-.3h.1l.2-.1h.6v-.1h.1v-.2h.4l.1-.1.2-.1v-.1l.2-.2.2-.2h.1v-.8l.1-.2h.3l.1-.2.2-.1.2-.1h.8v.2l.2.1v.2l.2.2h.2l.1.2.2.2v.1l.1.2v.1h.1l.2.1.1.1h.2l.2.1h.1v.2h.2v-.2l.2-.1.1-.2.3-.1h.1l.1.1h.2v.2h.1l.2-.2h.3v.4h.6v.3l.1.3v.3h.8l.1-.2h.2v.3l.8.3v.4l-.1.2.2.1v.2h.3l.2.1v.2h.3v.1l.1.1h.4v.4l.1.2v.2Z" name="Mariposa" fips="06043" />
    <path id="sutter-county" class="county missing" d="M121.6 144.2h9.5v.2l.1.1h.1v.2h-.2v.4l.1.2.2.2v.1h-.4v.4h.3v.2l-.2.1h-.1l-.2-.1v1l.2.1v.2h.5v.8h-.2v.2h-.1l-.2.1.1.2h.1v.2l.2.1h.1v.7l.1.1v.7l.2.3v.8l.2.1.1.3v.3l-.2.3v.6h.7v.5l-.1.3h-.1l-.2.3v.2l-.2.3-.1.2-.1.1v.8l.2.2v.2h.2v.1l.1.1v.2l-.1.2v.1l.1.1h.5v.4l-.1.3-.2.1v.9l.1.2.1.1v.1l.1.2v1.5l.1.1v-.2l.2-.3v-.3l.1-.3.3-.4h.2l.3-.7v-.1h.7l.6-.5h.5v-.3h.1l.2-.1h.3l.3-.1.3-.1h.4v.1h1v3h-1.7v7.7h-.5v.7H132l.1-.2.1-.2v-.2l.2-.2v-.3l-.1-.3-.1-.3-.2-.2h-.1l-.2-.1h-.1l-.2-.1h-.3v.7h-.1l-.1.1v-.1l-.1-.1h-.3.1l.2.2h-.3l-.2.1h-.1v-.1l-.1-.1h-.1v.4l.1.2h-.4v.5h-.1v.1h-.1l-.1-.2v-.2l.2-.2v-.1l-.2-.1-.1-.1h-.3l-.1-.2v-.2h.2v-.4l-.2-.1v-.5h-.1v-.1l-.1-.2h-.8v-1.2h-.1l-.1-.3v-.1l.1-.1v-.4l.1-.1h-.1v-.2l-.1-.1-.3-.1-.2-.1v-.1l-.1-.2h-.4v.3h-.7v.1l-.2.2h-.1v-.3h-.3v-.2l-.2.1h-.1v-.2h-.2l-.2-.3v-.2h-.1v-.2h.1l.2-.1.1-.3v-.3h.4v-.2h-.5l-.1-.1h-.1v-.1h.3v-.1h-.3l-.2-.2h-.4v-.2l-.1-.1h-.1v-.4l.1-.1.1-.2v-.1h-.1v-.4h-.1l-.1-.2.2-.2v-.5l.2-.1h.1l.1-.1v-.5l.1-.1h.7v-.1l.2-.2v-.1l-.2-.2h-.1l-.1-.1-.2-.1h-.2l-.2-.2v-.1l.1-.3v-.5h-.2v-.2l-.1-.1-.3-.2v-.9l-.3-.2h-.3l-.4.1-.2-.1h-.3l-.2-.1-.1-.3.1-.1v-.1l-.2-.1v-.5h-.1v-.2h-.2v-.7h-.3l.1-.2v-.1h-.4v-.2h-.4l-.2-.2v-.5h.5l.1.1.1-.1v-.4h-.2v-.2h-.2v-.1h-.1l-.2-.5v-.3h-.2v-.4l.2-.1.1-.1v-.2l.2-.2v-.5l-.2-.1v-.3h-.2v-.7l-.2-.2v-.5l.2-.1v-.3l.2-.3h.2v-.3l.2-.1.1-.2v-.2l.1-.1v-.2l.2-.1v-.1h.2v-.1Z" name="Sutter" fips="06101" />
    <path id="calaveras-county" class="county missing" d="M184.5 179.2v2.8h.2v-.2l.4-.1v-.1l1.1.9h.1v.1h-.1v.1l-.2.2h-.4l-.1.1-.2.1h-.1l-.1.1v.1h-.5v.1h-.1v.1h-.4v.2h-.1l-.1.2h-.9l-.2.2h-.3v.1h-.2l-.1.1h-.1l-.2.1-.1.1-.2.1h-.1l-.1.3h-.2l-.2.2h-.1v.2h-.1l-.1.1v.2l-.1.2h-.2v.4h-.1v.2h-.2v.3l-.1.2h-.1v.2l-.2.1v.1l-.2.1-.2.1v.1l-.1.1h-.2v.4h-.1v.1l-.2.1v.3h-.1l-.2.2-.2.2-.2.2v.2l-.2.1v.1h-.2v.7h-.2l-.1.2v.1h-.2v.2h-.1v.6h-.2l-.3.2v.1h-.2v.3l-.1.2-.1.1v.2l-.2.2v.1h-.1l-.1.3h-.1v.2l-.1.1h-.1v.1h-.1v.3l-.1.2v.1h-.2l-.1.4h-.2v.4h-.3l-.1.2-.2.3h.1v.2h-.2v.4h-.1v.1l-.1.1v.2l-.1.1-.3.3h-.2l-.2.3v.7h-.1l-.1.1v.2h-.4v.3h-.3v.6h-.4v.3l-.1.2-.3.3v.1l-.1.3-.1.2v.2h-.2v.1l-.1.2h.2v.2h-1l-.2.1v.6l-.2.2h-.2v-.1l-.1-.1.1-.1v-.2h-.2l-.2.2v.1h-.2v.1h-.1v.2h.1v.3h-.2l-.1.1h-.1v.1h.5v.3h.1l.3.2v.5l-.2.2-.3.2h-.2v.2l-.1.1v.5l-.1.3h-.1v-.1h-.2l-.1.2h-.3v.6h-.1v.2l-.2.2h-.2l-.2-.1h-.2v.2l-.2.2h-.1v.3l-.2.2v.1h-.2l-.3.1-.1.2h-.2v.1l-.2.2h-.1v.4l-.1.1h-.1v.3l-.2.1-.2.2-.3-.2-2-2.3-.3-.3-.5-.6-.1-.2-.1-.2-.1-.1-.5-.6-.2-.1-.1-.2-.2-.2-.1-.1-.2-.2-.1-.1-1.3-1.6-.3-.3h-.2l-.1-.2-.1-.1-.8-.9-1.5-1.8-.3-.3-.3-.3-.1-.2-1-3.2-.2-.7-.4-1.1v-.1l-.3-.8h.2v.1h.4l.2.2v-.1h.3l.2-.1v-.2h.4l.2.1.1.2h.2l.1-.2.2-.1.2-.2h.1l.2.2h.1l.1.2h.4l.1-.2.2-.1v-.1h.1v-.4h.2l.2-.2h.4v-.5l.2-.2h.1v-.2h.2l.2-.2h.2l.1-.2h.1v-.1l.2-.3.1-.1h.2l.1-.2h.2v.1h.2l.2-.1h1.2l.1-.3.2-.2.1-.2.2-.2h.5l.1-.2h.2l.1-.1h.5l.2-.1v-.1l.1-.2h.2v-.1l.1-.1h.6l.2-.2h.2v-.1h.2v-.1l.1-.1h.2v-.2l.1-.2v-.2l.2-.1h.1l.1-.2v-.2h.2v-.4l-.1-.1v-.5h.1v-.1l.1-.2v-.1h.7l.2-.1h.3l.1-.3v-.3h.4v-.1h.2l.1-.2h.4v.1h.3l.1-.2h.2v-.1l.2-.2.3-.3v-.3h.4v-.1l.1-.2v.1l.2.1h.7v-.1h.2v.1l.2-.1h.2v-.2h.1v-.1l.1-.1v-.2h.2l.2-.2h.1l.1-.2h.2l.1-.1.1.1v.1h.8l.1.1.1.2h.3l.2-.1h.2v-.1h1.5v-.1l.3-.1h.2l.2-.1.2-.2h.2l.2.1h.4l.2-.3h.1v-.2h1v-.1h.3l.2-.2.1-.2h1.2v.2h1.2l.2-.1h1.1v-.1l.1-.2.2-.1h.6v-.1h.4Z" name="Calaveras" fips="06009" />
    <path id="tehama-county" class="county missing" d="M82 100.4h.4l.1-.3h.2l.2-.1v-.1l.2-.1.2-.2h.4l.2-.1h.3v-.1h.2v-.1h.2v-.1h.2l.1-.1.2.1v.1h.8v.1-.1h.4l.2-.1v.1h.1v.1h.2v.1h.2v-.2h.2V99h.3v-.2l.1-.1.1-.2.1-.1v-.1h.2V98h.2v-.3h.1v-.1h.1v-.1h.4v.2h.8l.2-.2h.5v-.1h.4v-.1h.1l.1-.1h.7v-.1h.4V97h.7l.1-.2h.2l.1.1.1.1.2.1v.5h.7l.1.2h.1l.3.1h.1v.2h.4l.2.1v.2h.7l.2.1h.1v-.2h.5V98h.1l.2-.1h.1v-.1l-.1-.3h.7v-.1l.2-.2.1-.1h.2l.1-.2v-.2h.8v-.1h.1v-.2h.2v-.2h.3V96h.2l.1.1h.1V96h.1l.1-.2h.1v-.2h-.1.2l.1.1.1.1h.4v.2h.5l.1.1.2-.1h.3l.1.1.1.2h.7v.2h.5l.1-.1h.1l.1-.2h.2l.1.2h.4l.1.1h3.2l.2-.1v-.1l.1-.1h.4v.1h1V96l.2-.1h.6l.1-.1h.2v.1h.3v.2h.3l.1.1h.2l.2-.6v.4l.2.1.1.1h.4l-.1-.1-.2-.2h-.2l.1-.2h.4v-.1h.3l.1-.1h.2l.1-.1h.8V95h.5v-.1h.2l.1-.1v-.1h.1v.1h.2v-.1h.1v.1h.4l.2-.2h.5l.1-.1.1-.1h.5l.2.1h.1v-.2h.5v-.1h.1V94h.4l.1.2h.1V94h.2l.1.1h.3v.1h.6v.1h.4l.1.1h.7l.1-.2h.1l.2-.1h.2v.1h.3l.1-.2h.2l.2-.1.1-.2.1-.1h.2l.2-.2h.4l.2-.1h.3l.1.1h.7l.3-.2h.6v.1h.4v.1h.3l.1.1h1.3l.1-.1.2-.2v-.1h.2V93h.5v.1h.3l.1-.2h.2l.2.1h.1v.1h.1l.2.1h.1v.1l.1.1h.2l.1.3h.4l.2-.1h.8l.1.1.2.2h.4v-.1h.2v-.1l.2-.3h.2l.2-.2h2.3v.1l.2.1v.1l-.1.1v.2l.2.2h.5v.4l-.1.1v.4l-.1.1v.2l-.1.3v.7l.2.1.1.2v.1l-.1.2v.2l.1.2v.2h.1v.1h.5l.6.1h.8v.1l.2.1.4.1h.2l.2.1h.4v.1l.2.2h.2v.4h.2l.2.2.1.2h.1l.2.1v.3h-.2v.1l-.1.2h-.1v.1h-.2v-.1h-.5v.2h.2v.4h.2v.5h.4v.2l-.1.2.1.1v.2l-.2.2v.2h-.1l-.3.3v.2l.1.1-.1.1v.2l.2.2v.2l-.1.1v.1l-.1.2-.3.1h-.3l-.2.3-.1.2h-.3v.3h-.7l-.1-.1h-.6v.1h-.1v.2h.1v.1l.2.2h-.2v.1h-.1v1.3h.2l-.2.2v.8h-.3v.4h-1v.3h-.3v.3h-.7v.4h-2.6v.3h-.3v1.6h-.5v.4h-.3v.4h-.3v.6h-.3v1.3h-.3v.6h-2v.2l-.3.1-.1.2h-.2l-.2.2v.4l-.1.1h-.2v.3l-.3.2v.5l-.1.2v.1l-.1.5v.3l-.1.1-.2.1-.2.2-.3.3-.1.1h-1v.2h-8l.1.1v.3l-.2.1v.2l-.2.2-.1.1v.4l-.1.2h-.1l-.2.2v.4l.1.2.3.2v.2l-.1.2-.1.1v.1l-.1.1.1.1v.2h.3l.1.1v.2h.1-30.8v-.8l-.1-.1v-.7l-.2-.2h-.1v-.2l-.2-.1.1-.2v-.1l.1-.2v-.4h.1v-1.2h.1v-.8h.2l.1-.2h.3l.2-.1.2-.1v-.5l.3-.1v-.2H87v-.2h-.2v-.2h-.1v-1.2l-.3-.2v-.5h-.1v-.2h-.1l-.1-.1h-.2l-.1-.2v-.8h-.1v-.4h.1v-.9h-.1l.2-.3v-.2l-.1-.1v-.1l-.1-.1h-.1l-.2-.3h-.1v-.2l-.3-.2.1-.2.1-.1v-.2h.2v-1l-.2-.2v-.2l-.1-.2v-.5l.1-.2H85l-.1-.2h-.5v-.2l.2-.2-.1-.3v-.5l.2-.1v-.2h.2l.1-.2v-.9h-.2V103l.1-.1-.1-.2v-.4l-.2-.1v-.1h-.2l-.1-.1h-.2l-.2-.1-.3-.3h-.1l-.1-.1h-.2l-.2-.1-.2.1h-.1l-.2-.1v-.1h-.2v-.1l-.1-.2h-.1v-.1l-.2-.1v-.3h-.1v-.1Z" name="Tehama" fips="06103" />
    <path id="trinity-county" class="county missing" d="M70.1 60h.1l.1.2h.2l.1.2v.4h.1l.2.1v.2h.2v.2h.2l.1-.2.2-.2h.1v-.1h.5v.1l.2.1.2.1h.1l.1.2v.1l.2.1v.2h1v.2l.2.1v.2l.2.1v.2h.4v.3l.1.3h.1l.1.1v.4l.2.2v.2h.1l.1.2h.1v.2l.1.2h.2v.1h.6l.2.1h.6l.2-.2h.3v.1h1.1l.1-.1h1v.1h.4v.4h.1l.1.1.1.1.2.2h.5l.1.2h.3l.1.1.1.2h.3v.3h.1v.2l.2.2v.8l.1.1v.2l.2.2h.5l.2-.1.3-.1v-.2h.7l.2-.1.4.1h.3v.2h.2l.2.4.1.2.2.1h.3l.2-.1h.3v-.7h.4v-.2l.1-.1V67h.1v-.3l-.3-.2V66h-.1v-.2l-.1-.1-.1-.1v-.2l-.1-.2v-.1l-.1-.3H86l-.3-.1v-.1l-.3-.2h-.1v-.2L85 64v-.3l.1-.2v-.2H85V63l.1-.2v-.1l.2-.1.1-.1v-.2l-.1-.2v-.3l.2-.2.1-.1v-1h-.1l-.1-.2v-.4h.2l.1-.2.2.2.3.2h.3v-.4h.4l.1-.2h.2v-.2l.2-.1.3-.3H89l.1.1h.3l.1-.2h.1l.4-.2h.2l.1.1.2.2h.4v-.4h.2l.2-.1v-.2h.2V58l.1-.1v-.3l.2-.1.2-.1h.1v-.2l.2-.1h.4l.2-.1h.3l.1-.1.2-.1v-.5l.1-.3h.1v-.2l.2-.2h.5l.3-.2.2.1h.1v-.3h.2l.2-.2h.1v-.1h.4v-.3l.3-.3v-.4l-.1-.4v-.1l.2-.1.4-.3h.2v.2h.8l.1.1h.4V53h.1l.2-.2v-.3l-.2-.1v-.5l.2-.2.3-.2v-.1l.3.1h.2l.2.2.2.1v.1l.1.1h.1v.5l.2.1h.4l.1-.1h.6v.5h.2v.1l.1.1.2.2h.2v.1h.1v.1l-.3.1-.1.2h-.2l-.2.2.1.1v.7h-.4v.4l-.1.2v1.3l.2.1v.1l-.2.3-.1.2v.2l.2.2-.1.2-.2.2-.1.2.1.2.2.2.1.1h.1l.1.2h.1l.2.2v.7l.2.2.2-.1h.4v.2l.2.2h.4l.2.4h.1v.4h-.1v.7h.1v.8l-.2.2v.4l-.1.4h-.6l-.1.2h-.3l-.1.2h-1l-.1.2h-.1l-.2.3h-.3v.5h.3l.1.1v.2l.1.3-.1.2v.4h-.1v1.3l-.2.1v.2h-.7v.2h-.1l-.1.1v.2H99l-.1.1v.1l-.3.1h-.5v.3h-.3v.2h-.1v.6h-.2v.5l.1.1v.2l-.1.1v.6l-.2.2v.2h.1v.2h.2v.4l.1.2v.1l-.1.1v.2h-.1v.2l-.2.2-.2.1H97v.6h-.2v.2h-.1v.2h-.1l-.1.2v.4h-.4l-.1.1v.3h-.2v.2l-.1.1v.6h.1l.2.3v.4h-.1l-.2.1v.4l.2.2-.2.2-.2.2v.2l-.4.3H95l-.1.1-.1.1h-.1l-.3.2v.2h-.1v.2H94l-.2.1v.1h-.1v.3l.2.2v.2h.1v.1l.1.1-.1.3v.2l-.2.2v.3h-.1v.3h-.8l-.2.1v.5h.1l.2.1v.6l.2.1v.3h.1v.1h.1v.4h-.1v.2h-.1v.2l.1.1h.7l.1.1v.9h.2v.5l.1.1v.2l.1.2v.2l.2.2v.4l-.1.1h-.7v-.2h-.4l-.2.2-.3.3v.3h-.1v.2l-.2-.1h-.6l-.1.2h-.2v.2h-.1l-.1.1-.1.2v.2l.1.1-.1.2-.2.1-.1.1v.4l-.1.1H91l-.1.1h-.6l-.2.1h-.5v.1h-.2v.2h-.2l.1.2.1.2v.1l-.2.1v.1l-.1.1h-.2l-.1.1h-.4v.2h-.1l-.2.1v.2h-.2v.4l-.2.1v.4l-.2.2H87V93l-.1.1h-.2l-.2.1v.2l-.2.2v.4H86l-.1.1-.2.1v.1h-.2l-.1-.2-.2.1-.1.1H85l-.2.2h-.6v1.1H84v.1h-.2l-.1.1-.1.2v.2l-.1.1v.2l-.1.2-.2.1-.1.1h-.3v.3l-.2.2v.3h-.3l-.1-.1H82l-.2.2v.4l-.1.1v.2l.1.2h.1v.6h-.2v.4l.1.2v.5h.1v.3l.1.2.2.1v.2h.2l.1.2h.2v.1l.3-.1h.4v.1h.2l.3.4h.4l.1.1.1.1h.1l.1.3h.1v.3l.1.1v.4l-.2.2v.6h.2l.1.4v.7h-.2l-.1.2-.1.2v.5h-.1v.5l-.1.3h.5v.1h.2l.2.1-.1.2v.8l.1.1.1.2v.3l.1.1v.5h-.1v.2l-.1.2H85v.2l.1.1v.3h.2l.2.2.2.2v.2l.1.2-.2.2v.4h.1v.5h-.1v.5h.1v.8l.1.1h.2v.2h.1v.2h.2v.4H65.5V79.9l-.2-.1v-.5l-.1-.1V79l.1-.1v-.1H65v-.2h.1l.1-.2v-.1l-.3-.2v-.4h-.2v-.4h.1l.1.1h.1v-.7h-.2v-.2h-.1V76l.3-.2v-.1l-.2-.1v-.4h-.3v-.4h-.1v-.3H64v-.1h.1v-.1l.1-.2V74h-.4l-.2-.2v-.2h-.4l.2-.1.1-.2v-.2l-.2-.1h-.1v-.6h-.1v-.2L63 72l.1-.1v-.3h-.3v-.4h1v.1h.2l.1-.2h.2l.2-.2h.2v-.2l-.1-.2v-.1h.4l.2.1.3.2.1.2v.2h.1l.1.1v-.1l.2-.1v.1h.1l.2.2.1.1.2.2h.1l.2.2h.7v-.2l.1-.1v-.1l.1-.2.2-.2h.2l.1-.1.1-.1h.4v-.2l.1-.4V70h-.3v-.4h.2l.2-.2h.1v-.2h.1v-.4h.2v-.4l.1-.2V68h.1l.1-.3h.5v-.4l-.1-.1v-.4l-.1-.1-.2-.1v-.2l-.2-.2v-.6l-.2-.3h-.5l-.3-.3h-.2v-.2l-.2-.1.1-.2h.1V64h-.1v-.2l.2.1.1.1h.4l.2-.2v-.2l.1-.2V63l.2-.3V61h-.1v-.1h.1l.3-.2h.1l.1-.1.2-.1V60Z" name="Trinity" fips="06105" />
    <path id="tulare-county" class="county missing" d="m243.2 255.6.1.2h.2v.1l.3.3.1.1v.3h.1v.6l.1.1-.2.1-.2.2v.1h-.6l-.1.2v.2h.2l.2.1h.1v.1l.1.3v.1h.5v.2h.2v.2h-.2l-.1.2v.2l.3.3.2.1v.1l.1.2v.5h.3v.2h.1l.2.2v.2h.1v.2h.1l.1.1h.4v.1l.2.2-.1.3h-.4v.3l-.1.2v.1l.1.2v.6h.1l.3.1v.1l.1.1h.3l.2.2v.1h.3v.4l.1.2v.2l.1.2h.2v-.1.5h.1v.3l-.1.2v.1h.1v.2h-.1l-.2.2-.1.1v.1l.1.2h.3v.2l.2.2v.1h.1l.2.1v.2h.2v.2l.1.3.1.1v.6h.4l.1.2h.8l.2-.1h.1l.3-.2v.3h.3v.3h.4v.7l-.3.2h-.2l-.2.2-.2.2h.2v.4h.3l.1.1.1.2h.3v.2l.1.2h.1l.1.4v.1l.3.1h.4l.1.1v.5l.1.1v.2h-.2v.1h-.1v.1h-.2v.7h-.2l-.1.1v.2h-.2v.9l.2.2v.1l.1.1v.8h.1v.5h.2l.1.2v1h.2l.1.2h.1l.1.2v.2h.4l.2.2h.1v.2l.2.4h.1l.1.2.1.1v.8l-.2.2-.2.1v.7l.1.1v.3h.1v1.3h.1l.1-.1.2.2.1.1v1.3h.1l.2.2v.1l-.1.1v.1h.1v.5h.2v.7h.1v.2h.2l.1.1.2.1v.1h.1l.1.1.1.3h.1v.2l.1.1v.3h-.2v.2h-.2l.1.1v.2l-.1.1v.3h.2v.3h.1l.1.1h.2v.1h.2v.1l.1.1.2.2v.5l-.1.2-.1.1v.3l.2.1-.1.2v.1l.1.1v.4h-.1v.3l.1.2v.4h.1-.1l-.1.1h-.1l-.1-.1h-.4v.2h-.1v.2h-.1v.7h.2l-.1.2v.5l.2.1v.1h-.1v.1h-.2v1.2h-52.5v-14.7h.3V276h1.9v-5.6h-1.9v-3.7h-1.5l.3-.3.3-.3v-.1l.2-.1v-.1h.1l.1-.2h.1l.1-.2.3-.3.4-.3.2-.2.3-.3.1-.1.1-.2.3-.3h.2v-.1l.3-.3.3-.3h5.5v-3.7h3.8l.7.1h6.5v-3.5h14.7v-.2h6.7Z" name="Tulare" fips="06107" />
    <path id="tuolumne-county" class="county missing" d="m186.3 182.6 4.6 3.3.1-.1.4-.3.2-.1.3-.2h.2l.4-.4.8-.2.4-.5v-.1h.2l.5-.2.1-.1h.5l.1-.2.3-.2h1.7l.1.2.1.1v.2l.2.9v.3l-.2.5 1 .8.2.2.9.7-.2.2v1.4h-.2v.4l.2.2h.2v.2h.2v.2h.2l.2.1h.1l.2.2-.2.1-.1.2v.2l.1.2h.1l.2.2h.1v.2l-.1.2h-.4v.1h-.1v.4h-.1v.6h-.2v.3l.1.2h.1l.2.1h.3l.1.2h.1l.3.3.1-.2h.2l.2.1.1.2v.6l.1.3h.4v.2h.6v.4h.7v.1h.2l.2.1v.1h.3v-.9h.4v.4l.2.2.1.2v.4h.2l.1.2h.2v.5h.1v.1l.2.2h.2l-.2.2v.3h.4l.1.1v.1h.2v-.4l.2-.1v-.1l.1-.1v-.2l.1-.1.1.2.1.2h1v.2h.1v.2h.4v.1l.1.2h.2l.2.1h.3v.2h.5v.2l.2.3.1.1v.2h.2l.1.2v.4l.1.1h.1l.1.1h.1l.1.1v.5l.1.1v.2h.1v.1l-.1.2v.7l-.1.2-.1.2-.1.2v.2h.1l-.1.2-.1.2v.4h.2v.6l.1.1v.2h.3v.1h.2v.3h.2l.1.2h.3l.3.1v.1h.2v.7h1l.1.1.2.2.1.1.1.2h.3v.2h.1v.2h.4v.2h-.2v.2h-.1l-.1.3v.8h-.1v.2h.6v.2h-.2l-.1.1v.5l-.2.2-.1.1v.2l.1.1.2.1v.2l.2.2v.2l-.1.2-.3.1v.1h-.2v.4h-.1l-.2.1h-.1v.2h-.3v.1h-.2v.4l-.2.2h-.1v.5h-.2v.2h-.1l-.3.1-.2-.1-.2-.1h-.2v-.5h-.1l-.1-.2v-.3l-.1-.2h-.1l-.2-.1h-.1v-.2h-.1l.1-.1v-.2h-.1v-.4h-.4v-.2l-.1-.1h-.2l-.2-.1v-.2h-.5v-.2h-.3v-.2l.1-.4-.7-.4v-.3h-.2l-.2.2h-.7v-.7l-.1-.1h-.3l-.1-.1h-.1l-.1-.4h-.3l-.2.2h-.1v-.2h-.2v-.1h-.2l-.3.1-.1.2h-.1l-.1.1v.1l-.1.2v-.2h-.2l-.1-.2h-.5v-.2h-.2l-.1-.3-.2-.2-.1-.2-.3-.1-.1-.1-.1-.1v-.2h-.1v-.3h-1.1l-.2.2-.1.1-.3.1-.1.1v.8l-.1.1-.1.2-.2.2h-.1l-.2.2-.2.1h-.2v.2l-.2.1h-.7v.1l-.2.3-.2.2.2.2v.8h-.2l-.2.4h-.9l-.1.2-.2.3h-.2l-.1-.2h-.2l-.1.1-.1.1h-.1l-.1.1h-.3l-.2.2h-.2l-.1.3v.1h-.4v.2h-.4v.1h-.1l-.2.2h-.1v-.1h-.2l-.2.1h-.2v.1h-.2v.2l-.2-.1h-.2l-.2-.2v-.1l-.1-.2h-.4v.2h-.2v.1l-.1.2h-.1l-.1-.2h-.1l-.1-.1v-.1l-.2-.2h-.4v.4h-.9v.2h-.3l-.2-.2h-.2l-.2-.1h-.5v-.1l-.1-.1h-.1l-.2-.2v-.1l-.3-.2v-.1h-.2l-.2-.2h-.1l-.1-.1-.2-.1-.2-.1h-.2v-.2h-.1l-.1-.1h-.1l-.2-.1-.1-.1-.2-.1v-.1h-.4l-.1.1h-.2l-.1-.2h-.4v-.2l-.1-.3h-.2l-.2-.1h-.1l-.1-.1h-.2v.3h-.2v.5h-.1v.1h-.2v.4h-.1l-.2.1v.1l-.2.1h-.1v.2h-.1v.2h-.2v.2h-.5l-.3-.2-.2-.1h-.4l-.1-.2-.1-.1v-.2h-.1v.2h-.4v.5l-.2.1v.1l.2.2h-.1v.2h-.4v.2h-.2v.1h-.2l-.1-.1h-.1v.1h-.7v-.1h-.1v.5l-.2.1h-.2v.1h-.1v.2l-.2.1v.2h.1v.2l-.2-.2h-.4l-.2-.3-.2.2v.1h.1v.2h-.4v-.1h-.3l-.2-.1h-.2v.2h-.2v.2h-.2v-.1h-.5l-.2.1.1.1v.1l.1.2v.2h.1v.1l.2.1v.4l.1.1v.2h.2v.1l.1.1v.2l.2.1v.2h.1v.2l.2.2h-.1l-.1.1v.4h-.1l-.2.2h-.2l-.2-.1v-.2h-.1v-.1l-.3-.2v-.1l-.1-.2-.2-.1v-.1h-.2l-.1.1v-.2h-.1v-.1h-.4v-.1h-.2v-.1h-.2v.2h-.1v.5l.1.2h.1v.2h.3v.2h.1v.4h-.1v.2h-.1v.1l-.1.3-.4-.3-1.6-1.5-.6-.6-2.8-2.6-.2-.3-.4-.3-.4-.4-2.8-2.6.2-.3h.1v-.5h.2v-.5h.2l.2-.2.1-.1.2-.2h.4v-.2l.2-.2.1-.2v-.1l.2-.2.1-.2h.7v-.2l.1-.1v-.4h.1v-.1h.2v-.1l.1-.1v-.1h.4l.1-.1v-.8h.1l.1-.1.3-.2.3-.1v-.6l-.3-.1-.1-.1v-.2h-.5v-.1l.2-.2h.3v-.2l-.2-.1v-.1l.1-.1h.2l.1-.1v-.1l.1-.2h.3v.2h-.2l.2.2h.3v-.6h.1l.2-.2h1v-.1h-.1l-.1-.1v-.2h.2v-.4l.2-.2v-.3h.1v-.1l.2-.2.2-.3v-.3h.4l.1-.5v-.1h.2v-.1l.1-.1.1-.1h.1v-.2h.2v-.7l.3-.2.2-.1.3-.3v-.2l.1-.1v-.2h.2v-.3h.2v-.2l-.1-.1.1-.2v-.1l.1-.2h.4v-.4h.2v-.3h.4v-.4h.1v-.4h.2v-.3h.2v-.2h.2v-.2l.1-.1v-.2l.2-.2v-.2h.1v-.2h.2v-.2l.3-.1.1-.1v-.5l.1-.1v-.1l.1-.1h.1l.1-.1v-.1h.2v-.5l.1-.1h.2v-.2l.1-.1.1-.2.1-.2h.1l.1-.1h.1l.2-.2v-.1l.1-.1v-.2h.1v-.2h.2v-.3l.2-.1v-.2h.3l.1-.2h.1l.1-.2v-.1l.2-.1v-.2l.1-.1v-.2h.1v-.2h.1v-.1l.1-.1v-.1h.2v-.4l.2-.2v-.1h.1l.1-.1.2-.2h.1l.2-.2h.1l.2-.2v-.1l.2-.1h.2v-.1h.3l.2-.1.2-.1h.5v-.1h.3l.2-.1v-.1l.1-.1h.2v-.2h.4l.1-.1h.2l.2-.1h.1l.1-.2h.1l.2-.1h.3l.2-.2.1-.1Z" name="Tuolumne" fips="06109" />
    <path id="alameda-county" class="county missing" d="M107.6 206h.2v-.1h1v-.2h.2l.1-.1h.2l.2.2h.1v.2h.1l.2.1v.4l.2.2h.4l.3.2v.1l.2.1v.2l-.2.1.3.3v.2l.2.1h.1l.2.2.1.2.2.1v.1h.2v.8l.2.2h.4l.3-.1.2.1h.1l.1.2v.1l.2.2h1.2l1.5.2h.6l.5.5.3.2h.1l.2.1.3.5.2.2-.5.4v.4l.4.3h.2l.2.3h.2l.2.1.2.2.3.3h.2l.2-.1h.2v-.1h.2l.2-.1h.2l.3-.2h.2l1-.3h.3v-.1l.8-.2.3-.1.3-.2.7-.1 1-.4 1-.3.5-.1 1.4-.5 1-.3 1.2-.3.4-.1 1.5-.5.7-.2v11.8l.2.2h.1v.3h.4l.1.1.1.1h1l.1.2v.1h-.1v.2l.1.1v.2h.1v.1l.1.2h.4v.2h.2v.1l.2.1v.5h-6.9l-2.3-.1H123v.1l-.2.1v.1l-.2.2h-.5v.1h-.3v.1h-.2l-.2.2-.2.2h-.2v.1h-.4.1v-.2h-.1v-.1h-.2v-.1h-.2v-.2.2l-.1.1H119l-.4-.1-.2-.1h-1.3l-.2.2-.3-.2-.1-.3v-1l-1-.3h-.4l-.3.2-.2-.1-.1-.4v-.9l-.6-1.4h-.1l-.1-.3-.3-.6-.1-.3v-.8l-.2-.6v-.9l-.3-1v-.1l-.2-.2-.1-.2-.2-.2-.3-.4h-.1l-.2-.1-.3-.5v-.3h-.2l-.2.1v.4l-.4-.3-.7-.6-.2-.2h.1l-.3-.4v-.1h-.1v-.3l.3-.2h.2v-.1l-.2-.1-.2-.2h-.3l-.2-.2v-.1l-.3-.2v.3l-.3-.1v-.2l-.6-.1v-.1l-.3-.1-.1-.1h-.3l-.2-.4v-.5h-.1l-.2-.2.3-.3h.4l.1-.2v-.2h-.4l.5-.3h.7v-.2l-.1-.2h-.6v-.3l.6.1v-.2h-.1v-.4l-.2-.4-.3.2-.1-.3-.2-.3h.2l.2.1h.2l-.2-.4-.1-.2-.4-.2v-.1h.6v-.2h-.2Z" name="Alameda" fips="06001" />
    <path id="alpine-county" class="county missing" d="M184.5 170.7h.2l1.2-1.1 1-.8v-.1l1.3-1.2h.3l.1-.2h.2v-.2l.1-.1v-.2h.2v-.1h-.2v-.3h.1v-.2h.2v-.1l.1-.2.2-.3h.2v-.4h.2v-.1l.2-.1v-1h.1v-.1h.4l.2-.1.3-.3v-.4h-.1l-.1-.2h-.1l.2-.1v-1.3l-.1-.1v-.2h-.2l-.2-.1v-.1l-.1-.1-.1-.1v-.3.1l2 1.7 2.3 2 .8.8 2.2 1.9.3.2.1.2.6.5.2.1.7.7.1.1.2.2.2.2 1 1h.1l.2.1v.4l-.2.3v.2l-.1.1v.4l-.2.1v.3l-.2.2h-.4v1.5h-.1v.6l-.1.1v.6h.2v.3h.2l.3.2.1.1v.4l.2.1v.5h.1v.4l.1.1v.2h.1v.1l.2.2v.2h.2v.3l.1.1v.2h.2v.2l.1.1.1.1v.4h-.1v.3h.6v.4l-.1.2v.6h-.1v.2h-.3v1l-.1.2v.2h-.2v.1h-.2v.1l.1.2v.2l.1.2v.7h-.3l-.2.2-.1.1h-.5v-.2l-.1-.1h-.1v.1l-.3.2h-.1l-.2.1v.7h.2v.2l.1.1.1.2v.1h-.2l-.2.1-.2.2-.2.2h-.1v.1h.2v.4l-.1.1v.4h-.1v.1l-.1.1-.9-.7-.2-.2-1-.8.2-.6v-.2l-.2-1v-.2h-.1v-.2h-1.8l-.3.2v.1l-.2.1h-.4l-.1.1-.5.1h-.1v.1l-.1.1-.4.5-.8.2-.4.3-.2.1-.3.2h-.2l-.4.4v.1h-.2l-4.5-3.3v-.1l-1.1-1h-.1v.2l-.3.1-.1.1h-.2v-11.2Z" name="Alpine" fips="06003" />
    <path id="san-francisco-county" class="county missing" d="m107 210.7.2.3h-.2v-.3Zm-1.5-1.8.1-.1h.2l.2.4v.1l.1.2v.3h-.4v-.4l-.3-.5v-.1Zm-1.5-1.5v.1Zm1 6.8h-3.8l-.2-.7v-1.1l-.1-.7v-.2l-.1-.5.1-.1.2-.2h.4l.3-.1.2-.5v-.4l.3.1.2.2.6-.2h.7l.2-.1h.5l.2.2.2.2.2.3v.2l.2.3v.7l.1.3v.3l.1.2.1.1.2.3h-.2.2-.1l-.1.1v.2h.4l.3.1-.1.4-.1.2h-.5v.4h-.5Zm-21.3.3h.2l.1-.2.1.2v.3H84l-.1-.1h-.2v-.2Z" name="San Francisco" fips="06075" />
    <path id="amador-county" class="county missing" d="M151.8 179.3h.2l.1-.1.2-.1v-.2l.1-.1h.3l.1.2h.9l.1-.2h.2l.3-.1h.3l.1-.2.1-.1h.1v.4h.3l.1.2h.1v-.2h.5v-.2h.2v-.3h.1l.2.1h.1l.1.2h.1l.1-.1.1-.1v-.4h-.1v-.1h.2v-.3h.2v.4h.3v-.4h.2v-.2h.2l.1-.2h.2v-.1h.1v.2h.2v-.2h.3v-.2h.1l.2.1v-.2h.2v.2h.5v.2h.2v.1h.1l.2-.1h.7l.1.1h.2v.1h.4v.1h.5l.2.2.1.1.1.1.2.1h.1v.1h.2v.1h.1l.1.1h.2v.1h.2v.4h.6l.1.2h.2v.1h.4v.1h.2l.1.1.1.1h1.8l.1-.1h.3v-.1l.3-.1h1.6v-.1h.4v-.2h.2l.2-.2h.8l.2-.1.3-.2h.8l.2-.1h.4l.1-.2.1-.1h.3l.1-.1h.2l.1-.1.2-.1h.5l.2-.2h.4l.2.1h.4l.2.1h.2l.3-.2h.1l.1-.1v-.2h.5l.1-.1h.2l.2-.2.2-.2v-.3l.1-.2h.1l.2-.2.3-.1h.2l.2-.1v-.5h.1l.2-.2v-.2h-.1v-.2l.1-.2.1-.1h.1l.2-.2v-.2h.3v.2h.2v-.2l.2-.1h.2l.3-.1h.8v-.2h.5v-.1l.1-.2.2-.2v-.1h-.1v-.2l.1-.2v-.1h.2v-.2l.2-.2.1-.2-.1-.2-.2-.1v-.4h.1l.2-.1v-.2h.1v-.1h.5v-.2h.7v.3h-.2.4v8.4h-.2v.1h-.7v.2h-.1l-.1-.1h-.2v.2h-.1v.1h-.2l-.3.1h-.9v.1h-1v-.1h-.2l-.2-.1h-.8v.2l-.3.2h-.3l-.2.2h-.4v-.1h-.2l-.1.1v.1l-.3.2-.1.1h-.9l-.1.2h-.6v.1l-.2.1h-1.5l-.2.2h-.3v-.1l-.2-.1h-.8v-.2l-.1-.1h-.2l-.2.2h-.1l-.2.2h-.1l-.1.1v.2h-.2v.2l-.1.2h-.2l-.1.1h-.2v-.1h-.6v.1h-.4v-.1h-.2v.2h-.2v.2l-.1.1-.2.3h-.1l-.1.1-.1.2h-.2v.1l-.1.1h-.3v-.2h-.1l-.3.1v.1h-.1v.1h-.5v.7h-.4l-.1.1h-.7v.1l-.1.3h-.2v.8h.1v.2h-.2v.5h-.4v.7h-.4l-.1.1h-.1v.2h-.3l-.1.2h-.6v.1l-.3.1v.2l-.3.1h-.2l-.1.1h-.3l-.1.1h-.2v.1h-.1l-.3.1h-.2l-.2.2v.2l-.2.1-.1.1v.2h-1.5l-.1.1-.1-.1h-.2v.2h-.3l-.2.4h-.1v.1l-.3.1v.1h-.1l-.2.1h-.2v.4l-.1.1-.1.2v.2h-.4l-.2.1-.1.1-.1.1h-.2v.4h-.1l-.2.1v.3h-.5v-.1h-.1v-.1l-.2-.1h-.4l-.2.2-.1.1h-.2l-.2-.1h-.4l-.2.1v.1h-.8v-.1h-.1l-.1-.1h-.2l-.2-.8-.1-.3-.4-1-.3-1.2v-9.1Z" name="Amador" fips="06005" />
    <path id="butte-county" class="county missing" d="M137.7 106.4h1.1v1.7h.6v.3h.4v1h.3v.6h-.3v.7h-.2v.2h-.6v1h-.3v.6h-.4v1.3h.4v1.3h-.4v1.3h.3v.6h-.6v.7h.6v1.3h.4v.4h.7v.3h.6v.7h.4v.6h.6v.7h.5v.6h.4v.4h.4v.1h.2v.2h.1v.6h.6v.6h.6v.2l.1.2v.3h.6v.6h.7v1.1h.7v.7h.6v.6h.3v.4h.3v.3h.6v1.2h.7v.4h.7v.3h.3v.4h.3l.1.3-.1.5h-1v.8h-.3v.2h-.9v.3h-.3v1.4h-.3v.3h-.8v-.3h-1.9v.6h-1.3v-.4h-1v1h-.1v.5h-.2v.5h-.3v.3h-.3v.2h-.2v.5h-.3v.4l.1.1v.4h.1l.1.1h.1v.4l-.2.1-.1.1-.1.1h-.2v.2l-.2.2-.1.2v.8l-.1.2v.1l-.1.1h-.1v.5h-.2v.1h-.2l-.2.2v.1h-.1l-.1.2-.2.1h-.1v.2h-.2v.2h-.4v.2h-.5l-.1.1-.2.1h-.4v-.1h-.2l-.2.2v-.2h-.4v.3h-.3v.4h-.4v.2l-.1-.1h-.5l-.1-.1h-.4l-.2.2h-.3v.1l-.1.1h-.3v.1h-.2v.1l-.1-.1h-.2v-.1h-1v-.4h-.1l-.1-.1h-.2v.1l-.1.2v.1l-.1.2v.3h-.2l-.2-.1v-.2h-9.6v-.4l.1-.1v-.4l.1-.1v-.1l.1-.2.2-.2v-.2l-.2-.5v-.2h.2l.1-.1v-.4h.1v-.2h.2v-.2l-.2-.2v-.7l.2-.2v-.8l.1-.1h.1v-.3h.1v-.8h.1v-.5l-.1-.1.2-.2v-.1l-.1-.3v-.9l-.2-.2.1-.1v-.5l.1-.2.1-.1.2-.1.1-.2.1-.2v-.2h-3l-1 .3-.1-.1h-.5l-.1-.2-.1-.3v-.3l-.2-.2v-.2l.2-.1h.2v-.4h-.3l-.1-.2v-.1l.2-.3v-1l.1-.1.2-.1h.1l.1-.1.1-.2v-.2l-.1-.2h-.2l-.1-.2v-.2l.1-.2v-.2h.1l.1-.1h.5v-.4l-.2-.3h-.3l-.2.1-.2-.1-.1-.2.1-.2h.4l.3-.2h.4l.2-.3v-.2l.4-.1.1-.2v-.2l-.1-.3-.1-.1v-1.1h-.1l-.2.3v.3h-.2l-.2-.2v-.1l.1-.1h.1v-.7h-.2v.4h-.4l-.1-.2-.2-.2v-.1l-.2-.3-.2-.2-.3-.2h-.2v-.1l-.2-.2-.1-.1-.1-.2-.1-.2v-.2l.1-.2.1-.5v-.1h-.5v.2h-.1l-.2-.1v-.2h-.2l-.2-.1-.1-.2-.1-.1.1-.2.1-.3v-.2l-.1-.1v-.1l-.2-.2v-.3l.1-.1.2-.1v-.2l.1-.2v-.3l.2-.2.1-.2.1-.1.1-.2-.1-.2h8.2v-.2h1v-.1l.3-.3h.1l.2-.2h.2v-.5l.1-.5v-.1l.1-.2v-.3l.1-.2v-.1l.2-.2v-.1l.1-.1h.2v-.4h.1v-.2l.2-.1h.1l.2-.3h.2v-.2l.1-.2h1.2l.7.1v-.6h.4V112h.3v-.6h.3v-.4h.3v-.3h.4V109h.4v-.3h2.6v-.4h.7v-.3h.3v-.4h1v-.3h.3v-.8l.2-.2Z" name="Butte" fips="06007" />
    <path id="san-mateo-county" class="county missing" d="M101.2 214.2h3.8v.9l.2.3h.1v.5l.3.3v.3l-.2.3h-.4v.3h.2l.2.2.5.3v.3h-.1l.4.3v.2l-.4-.2h-.2l-.1.3v.2h.3l.3.5h.8v.1h.7v.2l.4.4h.7l.3.2.4-.1.4.2.1.2.1.2h.1l.3.3h.2v.2h.2l.3.3h.3l.3.1v.2l-.2.3.2.2.3.2.1-.1.2.3.4.4v.1h.7l.3-.3h.2l.1.2.2.1v.7l.2.3-.1.2.2.2v.2l-.2.1v.3h-.1v.1h-.5l-.2-.1v-.1h-.4l-.1.1h-.4v.4h-.1l-.2.1v.1l-.1.1h-.1v.3h-.2l-.1.1v.5l.1.2h-.2v1.4l-.1.2-.1.2v.4h-.1v.3l.1.2.1.1v.1l.1.1v.2l.3.1v.2l.3.3h-.3v.1h-.2v.2l.1.1v.2h.8v.2h.3v.2l-.2.2v.1h.2l.2.1v.1l.1.1v3.1H110v1.1h-.8l-.7.2h-1v.1l.2 1.5.8 1.5-.1.3-.5-.4-.3-.1-.3.1-.2.1v-.1h-.3v-1l-.2-.1v-.2h-.3l-.3-.3v-.5l-.2-.3-.1-.2-.3-.2h-.5l-.1-.2v-.3l-.3-.1-.1-.8v-.5l-.2-.3-.2-.4v-.3l.3-.8.2-1.3v-1.1l.1-.6v-1l-.2-.2v-.4l-.5-.8v-.4l-.2-.2v-.2l-.2-.2v-.3l-.1-.1v-.2l-.1-.1-.1-.2v-1.1l-.1-.2-.2-.6-.2-.5-.1-.1-.2-.2h-.4l-.4.2h-.4v-.2l-.1-.3h-.1l-.2-.3-.2-.4v-1l.1-.3v-.6h-.2V219h.1v-.2l.3.1.2-.1v-.4h.1v-.5h.1V215l-.2-.6v-.3Z" name="San Mateo" fips="06081" />
    <path id="orange-county" class="county missing" d="m263 373.3.2.2.3.2.1.1.6.5.3.3h.1l.1.1.8.6v.1l.8.5.2.2.1.2h.1v.1h.1-.1v.5h.4l1 1.2.9 1.3 1 1.2.1.1h.2l.7.3h.4v1.4l.1.5v.1l1.3.2.8.1.5.5h.1l.3.3.8.7.4.3-.1.2-1.5 2.1v.2l-1.3 1.9-.1.3-.2.2-.2.3v.5h.3v.5h-.2v1.6l-.2.1-.4.2-.4.3h-.4l-.2.1h-.8l-.2.7-.1.8-.1.4-.1.4v.4l-.3-.5-.2-.3-.1-.2-.2-.2-.1-.1v-.1l-.2-.2-.2-.2h-.1l-.3-.4-.3-.2-.2-.2h-.2l-.2-.2-.2-.1-.1-.1h-.4l-.1.1v.2-.1l-.4-.1-.1-.1h-.3v-.1l-.2-.4-.1-.4-.3-.1-.1-.2-.1-.2-.2-.3-.3-.4-.2-.1-.1-.2-.1-.1-.1-.2-.2-.1v-.1l-.2-.2v-.1l-.2-.2h-.2l-.3-.2h-.2v-.1h-.3l-.1-.2-.1-.1-.2-.2h-.1l-.1-.2h-.2v-.2l-.3-.2-.2-.1-.2-.1h-.1v-.2h-.2l-.1-.2h-.4l-.5-.3h-.2l-1-.3-.4-.6-.6-.4-.3-.2h-.1l-.6-.5-.5-.3-.1-.1-.1-.1-.4-.4-.4-.3-.3-.4-.6-.6-.3-.4-.5-.5-.2-.3h-.1l-.2-.2h-.2l-.5-.3v-.2l.3-.2.2-.1h.1l.2-.2v-.4l-.2-.2v-.2l.2-.3.2-.4v-.3l.1-.1.3-.4h.2v-.1l.2-.1v-.5l.1-.1v-.5h.2v-.1h.1v-.2h.2v-.2h.1v-.2h.2v-.1h.3v-.3h.6v-.3h.3v-.3h.3v-.3h.2v-.3h.3v-1.8h2v-.1h4.8Z" name="Orange" fips="06059" />
    <path id="santa-barbara-county" class="county missing" d="m219.5 393 .2-.2v-.2l-.1-.3h.3l.2-.1v-.1.3l.2.2h-.1v.4h-.4l-.4.2v-.1Zm-30.1-24.4h.3v-.8h.3l.7.1h.3l.9.1 1 .5.3.2h.8l.2-.1h1.2v.1h.2l.3.2.2.1h.2l.5.2.3.2.1.1.3.3.1.1.1.2h.5l.1.2.4-.1h.2v.1h1.1l.3-.2.2-.5-.1-.1.3-.4h.1v-.2h.3l.1-.2.2.2h.2v-.1h.2l.2-.2.2.2v.2h.3v.1h.3l.3.2.3.3-.2.2-.2.1h-.2l-.1.2v.2l-.2.3v.1l-.3.3-.2.1h-.5l-.5.3h-1.9l-.5.1-.5.3-.5.3h-.3v.2h-.4l-.1.2-.2.1h-.3l-.5-.2h-.3l-.2.2h-1.1l-.1-.1h-.4l-.5.1v-.1l-.4-.2-.4-.1-.2.1-.6-.5h-.3l-.1-.3-.2-.2v-.4l-.2-.3.2-.1.2-.5v-.4l-.2-.1h-.1v-.3l-.2-.1-.8-.6-.2.1h-.2l-.1-.1Zm-11 2.4h.2l.2-.3h.6l.5.1h1l.4-.1.2-.1.3-.3.1-.3h.4l.4.1h.2l.1.1h.9l.6-.2v-.1h.2l.1-.1v-.2h.2l.1-.1h.4v.5l-.2.1v.9l.3.3.2.2h.2v.1l.5.1v.1h1.2v1l.3.3v.3h-1l-.5.3h-.1v.1l-.3.2-.4.2v.1h-.2v.2h-.1l-.3.1h-.5l-.2.2h-.7l-.2.2-.1.2v.2h-.5l-1.3-.9h-.2l-.1-.1-.1-.2h-.3v-.2l-.3-.8-.3-.2v-.2l-.4-.6-.1-.2h-.2l-.1-.5h-.3l-.3-.2-.2-.2h-.1v-.1Zm-6.8-1.4h.3l.4-.5.3-.2.2-.1h.1l.3.2h.2l.2-.1.6-.4.2-.3v-.3l.2.1.2.6-.1.1v.3h.2l.2.1h.5l.4.2.3.3.2.2v.3l-.2.1H175l-.2.3h-.3l-.3-.2-.3-.3h-.3l-.5-.3h-.3v.2h-1.5l.2-.3Zm-6.9-39 .5.5h.2l.5-.2v-.3h.4l.3.2h.3l.1-.2.3-.3h.3l.3.2.3-.2h.1l.2-.2.9-.2.6-.2 1.3.2h.5l.3.1.3.2.6.4.2.1.3.2 1 .7.1.1.2.2.1.1.2.2h.2l.2.1v.2h.2l.2.2v.1l.1.3v.2l.2.1h.5v-.7h.1l.1-.2v-1h-.1l-.2-.1v-.6l-.2-.1-.2-.2v-.4h-.4v-.1l-.2-.3v-.2l-.1-.2v-.1l.4-.5.3.2.1.2.7-.3.4.2v-.3l.2-.1h.2l.1-.2h.1v.2l.1.1h.1v-.4l.1-.2h.1v.1l.2.2h.4v.1h.8v-.1h.1v-.1l.1-.1h.2l.3-.1v-.2h.2v-.7l.1-.3h.2v-.4h.2v-.1l.2-.1.2-.1v-.1h.2v-.2h.2v.1h.1v-.5h.1l.1-.2.1.2h.1v.1h.1v-.3h.4v-.3l.2.1h.1v-.2h.3v-.2.2h.2v-.2h.5v.2h-.2v.1h.5v.2l.2.2h.2v.1l.4.2.1.1h.5v.2l.2-.1v.2h.4v.2h.1l.1.1h.1l.4.4h.2l.2.1v.1h.7v.1h1v-.1h.2v.1l.1.1h.2v.2h.1l.2.1h-.1v.1h.1v.2h.2v.2h.1v-.2h.7l.2.2h.3v.1h.4v.2h.2l.1.5h.1l.4.4h.3l.2.2h.2l.1.1h.2v.2h.1l.3.2h.4l.3.1v.1l.3.1.2.1.1.2h.9l.2.1h.3l.3-.2.3.2h.7l.3.1v.2h.3v.2h.2l.1.2v.1h.4l.3.2h.5l.2.3.2.1.2.2v.2l.2.1.2.2.3.2.3.2h.1l.2.2.2.1.1.1.1.1.2.1h1.5v-.1h1.7v19.6h-.3v.3h-.1v.2l.1.1v.2h.2v.4h-.1v.2h-.1l-.2.3h-.2v.1h-.2v.2h-.1v.2h-.2v.1l-.2-.2h-.2l-.3-.2h-.4l-.3-.2-.2-.1-.2-.1h-.2l-.3-.4-.5-.4h-.8l-.3-.2h-1.5l-.1.1h-1.5l-.2.2.1.1-.2.2h-.3v.2l-.3.2h-.7l-.1-.1-.3-.2h-.2l-.1-.1h-.2l-1-.5-.3-.1H193l-.4.1h-.1v.3l-.2.2-.3-.2h-1v-.2l-.2-.1v-.1h-.4l-.5-.4-.1-.1h-.2l-.1-.1h-.2l-.3-.1h-.5l-.5-.4-.5-.3h-.2l-.2-.1-.4-.2h-.8l-.2-.2-.5.1h-1.6l-.7-.3-.5-.1H179l-.2.1h-2.1l-.7.2h-.5v.2h-1l-1.5.2h-.3l-.2.2h-.6l-.4.1v.2l-.2-.1-.2-.2h-.3v-.7l-.1-.3-.2-.3-.2-.2-.1-.2-.1-.2h-.1l-.2-.5v-.2l-.3-.4-.5-.4-.6-.3-.4-.1-.4-.3-.5-.4h-1l-.1.2h-.3l-.4-.3h-.1l-.1-.1v-.4l-.2-.2h-.2l.2-.1v-.4l.1-.4v-.4l.6-1.2.7-2.4.1-.5v-.2l-.2-.2-.1-.3-.1-.1v-.3l-.3-.2-.2-.1-.1-.3v-.3l-.2-.1v-.5l.2-.5v-.1l.2-.5.3-1 .2-1v-.7l-.2-.4-.4-.2-.4-.3v-.5l-.1-.1-.2-.3h-.8v-.3l.2-.5v-.5l.2-.4.3-1.2Z" name="Santa Barbara" fips="06083" />
    <path id="santa-clara-county" class="county missing" d="m114.5 224.6.2.2h.2l.2.2.3.2h.1l.6.1.3.1h.5l.2-.3v-.4h.7l.9-.1.5.2h1.1v-.3h.1v.1h.2v.2h.2v.4h.2l.3-.1.1-.2.3-.1h.2v-.1h.3v-.1l.1-.1h.2l.1-.2h.1l.1-.2.2-.1h13.5v.1h-.2l-.2.2v.4l.3.2v.2h.2v.1h.1v.1h.1v.6l-.2.4v.2h-.1l.2.4h.1l.3.4v.2l-.1.2h.2v.2h.4v-.1h.7l.1.2h.2v.1h.2v.4h-.3v.5h-.2v.3l.1.2v.3l.4.7v.2h-.1v.3l.1.2v.3h-.2l-.2.1v.2l-.1.2h-.2l-.2.1h-.2l-.1-.2-.2.2v.1l-.1.1v.2h-.2v.1l.1.2v1.2h.1v.1l.1.3.1.2h.1v.2h.3v.1h.2v.1h.1l.1.1v.3l.2.1v.6l.1.1.1.1v.4l.1.2v.3h-.2v.1l.2.1v.5h.1l.2.1v.2l.2.1v-.1h.3l.1-.3v-.4h.1l.1-.2.2-.2.2-.2v-.1h.4l.2.2.2.1.1.1.1.2h.1l.2.2h.1l.2-.1h.2v-.1l.2.1h.4v-.1h.1v-.3h.2v-.2l.1-.1h.1v.2h.2v.2l.2.2v.1l.2.1v.3h.8v.2h.1v.2l.1.2v.2l.2.2.2.1v.3h.2l-.2.4-.1.2v.2h-.1l-.1.1v.3l-.3.2h-.1l-.1.1v.2h.3l.2.1v.1l.2.1v.2l.2.1.1.1h.2v.7h-.4l-.1.1v.6l-.4.1-.1.1v.1h-.4v.3l.2.2h.1l.1.3h.1v.1h-.2v.1l.1.1v.2l.1.1-.3.1v.1h-.1v.6l.2.2v.1l.2.1v.1h.3l.2.3h.1-6.9l-.5-.4-.1-.1v-.1l-.4-.3-.1-.1v-.1h-.3l-.2.1v.2l-.1.1h-.1l-.7-.3-.4.5v.1l-.1.2h-.1v.2h-.2v.1l.1.1v.4l-.1.2h-.1l-.2.2v.1h-.1l-.2.1-.1.2-.2.1v.4h-.4l-.2.1v.2h-.1v.5h-.5l-.1.2-.3-.3.1-.8h-.3v-.3h-.6l-.6-.7v.1h-.5l-.1.1v.2h-.2v-.2l-.2-.2v-.3h-.2v-.1h-.1v-.5h-.3v-.1h-.2v-.1h-.6l-.1-.2v-.6h-.3v-.1h-.2v-.2h-.2v-.1l-.4.2h-.2.1v-.1h.2v-.2l.3-.5-.2-.1-.4-.2.2-.3v.1h.2l-.4-.3-.2-.1v-.2l-.1-.1-.2-.3v-.1l-.2-.1h-.2v-.1l-.1-.1h-.4v-.1h-.2v-.1l-.1-.2h-.2l-.3-.2h-.4v-.4l-.2-.2v-.2l-.2-.1h-.2l-.1-.1-.1-.1h-.2v-.1h-.1v-.2h-.5v-.3h-.3l-.5-.1-.1.1h-.2v-.2h-.2v-.1h-.4l-.5-.4-.2-.1h-.1l-.3-.1h-.2l-.2-.2-.3-.1-.3-.3v-.1h-.3l-.1-.1h-.2l-.2-.3-.2-.2-.2-.1-.2-.1v-.1l-.1-.1h-.4v-.6l-.2-.2v-.4l-.3-.1-.1-.2v-.2l-.3-.2v-.1h-.5v-.2h-.1v-.1h-.2v-.2h-.5v-.1l-.1-.2-.2-.1-.1-.1v-.3l-.3-.2v-.1l-.2-.2v-.2h-.4v-.1l-.2-.1v-.1l-.1-.1h-.1l-.1-.1v-.1l-.2-.1v-.6h-.1l-.1-.2h-.4v-.2l.1-.1v-.2h-.1v-.2l-.1-.1h-.5v-.2h-.2v-.2h.1v-.1l.1-.1h.3l-.3-.3v-.2l-.2-.1v-.2h-.2v-.4l-.2-.2v-.5h.1v-.3l.2-.2v-1.3h.2v-.1l-.1-.1v-.7l.2-.1v-.2h.2v-.1h.1v-.2h.2l.1-.2v-.1h.1l.1-.1h.5v-.1h.1l.1.1h.4v.1h.2v-.4l.2-.1v-.1Z" name="Santa Clara" fips="06085" />
    <path id="kern-county" class="county missing" d="M180.3 296.3h58.1l1-.2h2.2l1 .1h13l1.6.1h1.1v-.4h9.9v3.7h-.7v1.2h1.2v1.3h-.6v3.7h.1v4.7h-.1v8.5l.1.1v17.8h-22.6l-1.3.1h-18v.7h-.7l-.2-.2v-.4h-.4v.1l.5 1H222v-1h-9.2v-1.8h-1.1v-.9H208v-.9h-3v-7.4h-.6v-.6h-.3l-2.2.2.3-3.6v-.3h-.8l-3.1.2v-3.6l-4.9-.1v-3.7H191V311h-4v-1.2h-.7v-.7h-.6v-.6h-.6v-.6h-.6v-.5h-.6v-3.8h-3.7v-7.4Z" name="Kern" fips="06029" />
    <path id="santa-cruz-county" class="county missing" d="m113.2 232.4.1.2v.2l.1.2.2.1v.1h.2v.2l.1.1h.3l.1.1.1.2.2.2v.1l.2.2v.3h.2l.2.3.1.2h.4v.1h.2v.2h.1v.2h.5l.3.3v.1l.2.3.2.1.2.1v.7h.1v.4h.2l.1.1h.2v.1l.1.1h.1v.1h.1l.1.1.1.1.1.2.1.2h.7v.2l.3.3h.2l.1.1.3.1h.1l.3.2h.3l.5.4h.2v.1h.3v.1h.1v.1h.1v.1l.2-.1.5.2h.3v.1h.4v.1h.2v.1l.1.1h.2v.1l.2.1h.1v.1h.4v.3l.2.2v.2h.2l.1.1.2.2h.4v.2h.2l.1.1v.1h.4v.2h.2v.1l.1.1.2.3v.1h.1v.2l.2.1.4.2v.1h-.1l-.2.2.3.3v-.1l.1.1h.2l-.4.5v.2h-.2l-.1.1h.2l.5-.2h.2v.2h.2v.2h.4v.2l-.1.2v.2l.1.2h.8v.1h.2v.2h.1v.4h.3v.4l.2.2v.2h.2v-.2h.1l.3-.1h.2l.6.6h.6v.3h.3v.8h-.9l-.3-.2-.2-.2h-.2v-.1l-.2.2-.1.4-.2.1h-.1v-.5h-.3v-.5h-.5l-.1.2-.2.1-.1.2-.2-.3h-.3v-.1h-.2v.1h-.2l.2-.2v-.2h-.1l-.1.1h-.2v.2h-.3l-.2-.1v.1l-.3.1h-.4l-.1.2h-.1l-.2.2v.2l-.2.2-.2.2h-.5l-.2.2h-.1v.1l-.1.2h-.1v.2h-.1v.5l-.2.2-.7-1.1-.4-.8-.6-1.1-.2-.4-.1-.2-.5-.6-.5-.5-.3-.3h-.2l-.2-.2h-.3l-.1-.1h-.4l-.4.2-.2.2-.3.3-.2.2h-.2l-.2-.1h-.3l-.3-.1h-.2l-.2-.1h-.4v.4l-.1.2h-.7l-.7.1h-.4v-.2h-.4l-.6-.1-.5-.3v-.2l-.2.1-.3-.1v-.2l-.2-.1-.4-.1v-.2l-.4-.3h-.2v-.1l-.2-.2-.3-.1v-.2h-.1l-.2-.2-.1-.1-.2-.1-.2-.1v-.3h-.3v-.2h-.3l-.1-.6-.5-.6-.3-.2-.3-.6-.5-.7-.3-.6-.3-.2.1-.3-.8-1.5-.1-1.4v-.2h1l.6-.1h1v-1.2h3v-.3h.1v-2.7Z" name="Santa Cruz" fips="06087" />
    <path id="shasta-county" class="county missing" d="M101.3 59.8h40.1v12.7h.3v18.4h-.2v2.3h-.3l-.4-.1-.6.1h-6.9l-.2.1h-.1l-.3.4h-.1l-.1.2h-.3l-.2-.1-.1-.1v-.1h-1.2l-.2.1-.2-.2h-.1l-.1-.2h-.2l-.2-.1V93h-.4l-.2-.1-.2.1h-.1v.1h-.2l-.2-.1h-.1l-.1.1h-.1l-.1.1-.1.1-.1.2h-.1v.1H126v-.1l-.2-.1h-.7v-.1h-.2l-.1.1h-.3l-.1.1h-.7l-.1-.1h-.5l-.1.1-.2.2h-.4v.1l-.1.1v.1h-.2l-.1.1-.1.2h-.5V94l-.3.1v.1l-.1.1h-.3v.1h-1v-.1l-.2-.1h-.7v-.1h-.5l-.2-.1h-.2v.2h-.6v.2l-.2-.1h-.5l-.1.2h-.6l-.2.1h-.3l-.1.1v-.1h-.1v.2h-.1v-.3h-.1l-.1.2h-.3v.2h-.2l-.1.2h-.2V95h-.1v.2l-.2.1h-1v.2h-.8v.2h-.1v.2h.4l.2.2h-.5l-.1-.2-.1-.4-.2.5v.2h-.2V96h-.4l-.1-.1h-.2l-.1-.2h-.2v.2h-.2l-.1-.1h-.5v.5h-.7l-.2.2h-.1v-.1h-.2l-.1-.1h-.2v.2h-.3v.2h-.2l-.1-.1h-3.3v-.1l-.2-.1h-.2l-.2.1h-.2l-.1.1h-.1l-.1-.1h-.1v-.1h-.4l-.1-.1-.1-.2h-.4l-.1.2-.2-.1h-.4V96l-.2-.1h-.3v-.1l-.2-.1h-.2l.1.2h-.1v.1h-.1l-.1.1v.2h-.2l-.1-.1v.2h-.4v.2h-.1v.1h-.1l-.1.2h-.7v.2l-.2.1H98v.1l-.1.1-.1.2h-.1v.1H97v.2h.1v.1H97l-.2.1h-.1v.2h-.4l-.1.2v.1h-.4l-.2-.2h-.1v.1h-.3v-.2h-.5V98l-.2-.1h-.2v-.1h-.2v-.1l-.1-.1h-.8V97h-.1l-.1-.2h-.4v.2h-.2v-.2h-.2l-.1.1H92v.1h-.4l-.1.2h-.8v.1h-.4v.2h-.5l-.2.1-.3.1h-.5v-.1h-.2v-.1h-.2v.2h-.1v.1H88v.2l-.1.1h-.2v.5l-.2.1v.1l-.1.1v.2l-.2-.1v.2h-.1l-.1.1v.2h-.5v-.2l-.1-.1h-.2l-.1.1H86v.1h-.4v-.1H85l-.2-.2v.1h-.4v.1h-.2l-.1.1h-.2l-.2.1v.1h-.4l-.1.1-.2.2h-.1l-.2.3h-.1l-.2.2H82v-.2l-.1-.1v-.4h-.1v-.4h.2v-.5l-.1-.2v-.2h-.1v-.2h.1v-.4l.2-.3.2.1h.3v-.2l.1-.2V97l.2-.1h.3l.2-.1v-.1l.1-.2V96l.2-.2h.2l.1-.1v-.1h.2v-1.1h.5l.3-.1h.2l.1-.1.2-.2v.2h.4l.2-.2h.3v-.5l.1-.1h.1v-.3h.2l.2-.2v.1l.2.1h.3l.2-.2v-.4h.1v-.1l.1-.1v-.2h.1l.1-.1v-.2h.2v-.2h.2l.3-.1h.2l.3-.2v-.2l.1-.1v-.2l-.2-.2h.2v-.1h.1l.1-.1h.5l.2-.2h.7l.1-.1h.2v-.5l.1-.2h.1l.1-.2v-.5h.1l.1-.1v-.1l.2-.1.1-.1v-.1h.8l.1-.2v-.2l.3-.3.2-.1.2-.1.1.1.1.1h.7V87l-.2-.2v-.5l-.1-.2V86h-.1v-.2l-.1-.1v-.9h-.4v-.1h-.5v-.4h.1l.2-.3v-.2h-.1l-.1-.1v-.3H93v-.7l-.2-.2-.2-.2v-.2h.1l.1-.1h.8v-.3h.2v-.3l.2-.1v-.4l.2-.2v-.2H94l-.1-.2-.1-.2-.1-.1v-.3h.1l.2-.2h.1v-.1h.2V79l.3-.1.2-.2.2-.1.3-.3.1-.1v-.1l.1-.2h.1l.2-.2-.1-.2V77h.1v-.5h-.2v-.8l.1-.1h.1v-.4h.5l.1-.1v-.5h.2v-.3l.1-.1.1-.1v-.5h.5l.1-.1.2-.2.1-.1v-.5h.2v-.5h-.1v-.1h-.1v-.3h-.1v-.5h.1v-.5h.1v-.6h-.1V70l.1-.1.1-.2v-.3l.1-.1v-.1l.1-.2.1.1.1-.1v-.2h.7l.1-.2.1-.1v-.2l.2-.1V68h.7v-.2l.2-.1.1-.2V66h.1l.1-.3v-.2l-.1-.2-.2-.1h-.2v-.5h.3l.2-.2v-.2h.2l.1-.2.3.1h.6l.1-.1.1-.1h.2v-.2h.6l.1-.3v-.1l.2-.2-.1-.2.1-.2v-.6h.1v-.4l-.1-.3v-.3l.1-.2h-.1l-.1-.4-.2-.1h-.4l-.1-.2-.2-.1V60h-.7v-.3Z" name="Shasta" fips="06089" />
    <path id="riverside-county" class="county missing" d="M377.7 367.7v2.4l-.1.1-.1.2-.3.1v.1h-.4l-.2.2.3.2v.3h-.3v.3h-.2l-.2.2v.2h-.1l-.4.4-.2.2-.3.2h-.4l-.2.4-.3.6v.2l.3.1.3.3.3.2v.5h-.5v.2l.3.3.2.3.2.1v.5l-.4.3h-.4v.8l.1.2.2.3v.2l-.1.1-.2.1.3.7v.5l.4.8v.3l.1.2v.4l-.2.2v.4h.1l.1.2v.2l.3.2v.8l-.3.2h-.2v.1h-.3l-.2.2-.1.1v.2l-.1.1v.4l.2.1h.3v.2l-.1.1h-.2l-.2.1-.1.1v.1l.1.3h.2v.5h-.2v.3l.1.2.2.2-.2.2-.1.2-.4.5v.4l.2.5.3.5v.2l-.5.4-.6.5v.6l-.3.3h-.4l-.3.3h-.1l-.2.4v.2l-.1.1v.1l-.2.3-.2.2-.4.6v.3l-.1.6h-7v.1h-5.8l-2 .1H335l-7.3.1h-7.3l-3-.1H295l-.2.1h-5.9v-.2h-7.4v-.7l-.4-.2h-.3l-.8-.4-1-.4h-.3l-1.4-.6-.3-.1.2-.6h-5v-.2h.2v-.5h-.2v-.5l.2-.3.2-.2.1-.3 1.2-1.8.1-.2 1.5-2.2v-.1l-.3-.4-.8-.7-.3-.2-.1-.1-.5-.5h-.8l-1.3-.3V381h-.3l-.2-.1-.7-.2h-.2l-.1-.2-1-1.2-1-1.3-.9-1.2h-.4v-.4h.1v-.4l.1-.1v-.1l-.1-.2h-.1.7V374h1.5v-1.9h.1l.2-.1.3-.1 1.2-.5v-1.8h6.4v.5h5.1v.7h10.2v-1.3h55.3v-1.8h30.1Z" name="Riverside" fips="06065" />
    <path id="sacramento-county" class="county missing" d="M132.4 187.8v-.2l.1-.2.1-.1v-.3h.2v.1l.1.1.2-.2.4-.4.1-.1.4-.1h.2l.2-.2.2-.2.1-.1.1-.1v-.9l.1-.1.1-.1v-.2l.1-.2v-.4l-.1-.2v-.1l-.2-.3-.1-.2-.2-.3v-.3h.7l.1-.1.1-.1.1-.1V181l-.1-.1-.1-.2h-1.1l-.2-.2v-.1h-.1l-.3-.5v-.8l.1-.1.3-.1h.2l.3-.1h.2v-.2l-.2-.2v-.2l.4-.2.2-.2v-.6l-.1-.2v-.1l-.2-.2.1-.2.3-.3.1-.2v-.7l-.1-.2h-.2l-.3-.1h-.3l-.2.1-.2.2-.1-.1-.2-.2-.1-.2-.2-.5v-1l-.1-.1-.2-.1h-.1l-.4.2h-.3v-.2l-.3-.3-.2-.3-.6-.5v-.1l-.1-.1v-.2l-.1-.2v-.5h.1l.2-.2.1-.1.3-.2.2-.3v-.8l.1-.1h4.4l1 .2h.6l1 .1h.7l.6.1h.6l.3.1h1l.1.1h1.2l.1.1h.9l.2.1h1l.3.1h.8l.2.1h1v.2h.2v.2h.1v-.2h.2l.1-.3h.1l.3.7.2.4.2.7v.1l.3.7.2.4.2.6.2.8.1.3.6 1.7.4 1.3.5 1.4v9.2h-.2l-.3.1v.2h-.4v-.1h-.2v-.2h-.5l-.1.2h-.1v.2h-.3l-.1.2-.2.1h-.5v.1l-.2.1-.1.1h-.5l-.1.2h-.1v.1h-.2v.2h-.1l-.2.1-.2.1h-.2l-.2.2h-.9l-.2.2-.2.1h-.4v.1l-.2.1h-.1l-.2-.1h-.2l-.1.1h-.4l-.2-.2-.3-.1h-.1l-.2.1h-.2l-.1.1-.2.3-.1.1h-.2l-.1.2h-1.1v.2h-.5l-.1-.1h-.3v.1h-.1v-.1h-1v.2h-.1l-.2-.1-.1-.1h-.2l-.2-.2-.1-.1-.1-.2-.2-.1h.1v-.4h-.5l-.1-.1h-.5l-.1-.1h-.5l-.2.2v.1h.1v.4h-.1v.1h-.1v.1l-.1.1v.2h-.1v.2h-.5v.1h-.1v.3l.1.2-.1.2v.2h-.5l-.1.2v.1h-.1v.4l.1.1v.7l-.1.1-.1.3v.1h-.2v.4h-.2v.1h-.2v.1h-.1l-.3.1v.1l.1.1v.1h-.2l-.1.1-.2.2h-.1l-.2.2-.1.2v.2l.1.2h.2l.3.2v.3h-.3l-.2.2-.2-.1-.7-.2h-.3l-.4.1-.2.4-.2.1h-.2l-.1-.2h-.2l-.3-.2-.4.1-.2.2v1.2l-.2.1-.2.3-.3.3-.1.1-.2.2h-.4l-.3.2-.2.2-.2.1h-.2l-.2.1h-.5l-.2.2h-1.5l-.2-.2-.2-.1v-.1h-.1l-.1-.2-.1-.2-.1-.3v-.3l-.2-.3-.3-.3h-.3v-.2h.2l.2-.1h.1l.2-.2h.1l.2.2v.2l.2.1.4.1.2.1.2.1h.3l1-.7.4-.2.2-.2.2-.1.3.1h.8v-.2l.1-.1v-.9h.1l.1-.1.1-.2.1-.3.2-.3v-.4l.1-.2v-.6h.1l.2-.1.1-.2.2-.2v-.1h.1v-.2l.2-.1h.2l.3-.2.2-.2.2-.1.2-.1h.5l.1-.2v-.3l.2-.3v-.1l.1-.2v-1.4h.1v-.5l-.1-.3v-.3h.1v-.2l-.1-.1v-.5l.1-.3.1-.2v-.1l.2-.2Z" name="Sacramento" fips="06067" />
    <path id="sierra-county" class="county missing" d="m152.4 129.3.2.1.2-.1.2-.1h.2v-.4h.3v-.2h.1l.1-.1.1-.1.1-.2v-.1h.2v-.1h.2l.1-.2v-.2l.1-.2.2-.2v-.1h.1v-.3l.1-.2v-1.8h.2v-.2h.2v-.3h.1l.2-.1v-.2h.4v-.1h.2l.2-.1v-.1h.1v-.2h.2l.1-.1h.2v-.2h.4v.1h.1l.1.1v.2l.1.1v.2h.3l.1.1v.2l.1.1v.1l.2.1h.2l.2.1h.2l.1-.2v.1l.1.1v.8h.2v.2h.1l.2.1h.1l.2.2v.2h.2v-.1h.4v-.2h.5v-.1h.2l.1.1.1.2h.3v.2h.6v.1h.2v.2h.1v.2l.1.1.1.1h.3v.1l.1.1v.1l.2.1v.1l.2.2v-.2h.4l.2-.2v-.1l.2-.3v-.6h21.9v-.7h.5V138h-17.3v-.4l-.1-.1h-.3l-.1-.2h-.4l-.1-.2v-.8l-.2-.2v-.2h-.2l-.1-.1v-.2h-.1v-.2h-.1v-.5h-.5v-.2l-.2-.1-.1-.1h-.4l-.3.1h-1l-.1-.2h-1.1l-.2.2h-.2v.1h-.1v.3h-.3v.2h-.1l-.2.1-.2.1-.1.2-.1.1v.1h-.1v.1h-.1v.1h-.2v.2l.1.1-.2.2-.1.2h-.1l-.1.1h-.3l-.1.2h-.1v.3h-.2v.1h-.1v.1h-.1v.1h-.2v.1h-.4v.1h-.1l-.2.1h-.1v.1h-.2v.1h-.2l-.1.2h-.4l-.1-.1h-.1v.1h-.2l-.1.1h-.2v-.2h-.2v.1h-.5v.2l-.1-.1h-.1l-.2.2h-.6l-.1.1-.1.1-.2.1h-.6v.2h-.2l-.1-.1h-.3v.2h-1.7v.2h-.5l-.3.2-.1.1h-.3v.2l.3.1h-.1l-.2.1h-.1v.2h-.1l-.1-1-.1-.8-.2-2.9v-.7h-.4l-.2-.2-.1-.2v-.3l-.1-.2-.1-.1v-.1l.2-.1v-.1l.1-.2h.4v-.2h.1v-.2h.4l.3-1.7v-.1l.2-1 .1-.9Z" name="Sierra" fips="06091" />
    <path id="monterey-county" class="county missing" d="M125 251.1v-.1l.2-.2v-.6h.2v-.2l.1-.2h.1l.1-.1h.1v-.1h.5l.2-.1v-.1l.2-.2v-.2l.2-.1v-.1l.2-.1v-.1h.7v-.2h.2v.2h.2l.1-.3h.3l.1-.2v.2l-.2.2.1.1h.1l.1-.1h.1l.3.1.2.3.1-.1.1-.2h.1l.1-.1.2-.1h.2l.1.1v.5h.1v-.1h.2v.4l.1.6v.2l.4.7.1.3.2.1v.1l.8.4.8.8.5.5.4.5.4.4 1 1.1h.4l.1-.2h.4l.2.2.1.1v.4h.3v.2h.2v.4l.2.1.1.1v.4h-.5v.1h-.3v.1h-.5v.4h.1v.2h.1v.1h.1v.1l.1.2.1.1v.3h.5l.1.1h.2v.2l.2.2h.2v-.1h.2v-.1h.2l.1.1h.4v.1l.1.3v.4h.8l.1.1h.4l.2-.1h.2v.2h.1l.2.1v.1l.1.2h.1l.2.1v.5h.1v.2l.2.1.1.1.2.2.2.2v.2h-.1v.1l-.1.2v.4l-.1.1v.2l.1.1v.1h-.2l-.1.1v.5h.1v.3l.1.1h.2v.1h.2l.1.1v.1h.2v.2h.2v.2l.2.1v.4h-.2l-.1.1v.1h-.1v.4l-.2.1v.2l.1.1.1-.1.2-.2.1.1h.8l.2.1h.1l.2-.1h.7v.2l.2.1v.2h.1v.7l.2.1h.3v.2l.2.2h.1l.2.3h.1v.4h.2l.9 1 1.6 1.5.1.2 2.6 2.6v2.3l.1-.1h.1v-.2h.2l.1.2v.5h.2l.1-.2v-.1h.1l.1.1v-.2l.3.1v-.2l.3.1h.1v-.2h.1v-.5l.1-.2h.4v.1h.1l.2.2v.1h.2v.1l.1.1h.3l.2-.2.1-.1v-.2h.1v-.4l.1-.2h.1l.2-.1v-.2h.4v.2h.2v.1h.3v.2l.2.2.1.1.2-.2h.5v.1h.2v.1h.1l.1.2h.2v.1h.1l.1.1v.1l.2.1v.1l.1.1h-.1v.2h.1v.2h.1v.1h.2v.1h.1v.1h.2l.2.1v.1h.1v.2l.1.1v.1h.2v.2h.4v.2l.2.1.1.2.2.2h.1l.1.1v.2h.1v.1h.1v.2l.1.1h.2v.2h.4l.2-.1.2-.1h.2l.1.2h.4v-.1l.1-.1.1-.1v-1.1l-.1-.2-.1-.1v-.4h-.1v-.2l-.1-.3-.1-.2h-.2v-.3h-.1v-.1h-.1v-.4h-.1v-.2h-.1v-.1l-.2-.3v-.1h-.1l-.1-.1-.2-.1-.1-.2h.4l.2.2h.2v.1h.1l.2.2.1.1v.1h.2v.1h.2v.1l.1.1h.2v.1h.2v.2h.1v.1l.1.1.1.1h.2v.1h.1v.2h.1v.2l.1.1-.1.1h-.1v.4l.3.1v.2l.1.1h.2v.1h.2l.1.1v.2h.1v.1l.2.2h.1l.1.2.1.1v.1l.2.1v.2l-.1.2h-.2v.4l-.2.2v.3h-.2v.5h-.4l-.1-.1v.2h-.3v.4l.1.1v.1l.1.2v.3h-.1v.1h.2v.1l.2.1v.1h.1v.5h.4v.3l-.1.2.2.3h.1l.2-.1.2.1v.1h.2l.1.1h.1v-.2h.1v-.1h.2l.2.1v.1l.2.2v.2l-.1.1v.4l.2.2v.1h.1l.2.2h.1v.1l.2.1v.1l.2.1h.2v.1h.3v.1h.1l.2.2v.3h.4v.1h.1v.4h.2v.1-.2h.4v.2h.2v.1h.4l.1.1.1.1.1.2h.2v.2l.1.2h.1v.2h.2v.1h.3l.2.2h.2v.2l.2.1h.1l.1.3v.2h.4v-.1h.2l.1-.1h.2l.3.1v.1l.2.1h.9l.2.1v.3l.1.1v.3h.1l.2.2h.2v.1l.1.1.2.1v.6l.1.2v.1l.2.1v.2h1.1v.1h.6v.1l.2.1.1.1.2.1.2.3.1.1.2.2v.1l.1.1v.3l.1.1v.1l-.1.1-.1.1-.1.2h-.1v.1l-.1.1v.4l.2.3v.2l.1.2v.1h.7v.1h.2v.1l.1.2v.5l.1.2v.4h-27l-3.8-.1h-4.5l-3.5-.1-.3-.4-.3-.2h-.4v-.2l-.2-.2-.2-.2-.1-.2-.4-.4-.1-.3-.2-.3v-.2h-.2l-.3-.1-.5-.3-.4-.6h-.2l-.1-.3h-.1v-.2l.1-.2h-.1v-.3l-.1-.3-.1-.1-.1-.1v-.2l.2-.1-.1-.2-.2-.1v-.4l-.2-.3v-.5l-.1-.2v-.5l-.2-.5-.3-.2-.1-.5-.3-.3-.5-.2-.2-.1h-.3v-.1l-.4-.2h-.5l-.3-.2-.2-.7-.3-.3v-.2l-.1-.2v-.3l-.2-.1-.3-.2-.1-.3h-.1l-.2-.3-.1-.6-.2-.3-.1-.2v-.3h-.1l-.4-.4-.1-.2-.2-.2v-.1l-.7-.8v-.2h-.2l-.2-.2-.5-.4v-.2l-.3-.1-.1-.3-.2-.1-.7-.5-.4-.2h-.2l-.3-.3-.1-.1-.4-.3h-.2l-.3-.2-.1-.1h-.6v-.2l-.2-.1h-.2v-.1l-.1-.1h-.1l-.2-.1v-.5l-.1-.1-.3-.6h-.2l-.1-.2h-.2l-.1-.1-.2-.2-.1-.1-.1-.1-.1-.2-.3-.2h-.3l-.1-.2.2-.4v-.6l.1-.4-.1-.2-.3-.5h-.1v-.2l.2-.1v-.3l-.2-.1v-.2l.2-.2v-.2h-.1v-.4l-.3-.1v-.4h-.1v-.8h-.1v-.3l-.3-.6h-.1v-.2h.2v-.3l-.2-.3h-.1l-.1-.2v-.4l-.2-.2v-.2h-.1l.2-.3v-.6h-.1l-.2-.1v-.1h-.2v-.3h.4v.1h.1l.1.1v-.2h.4v-.7h-.1v-.8l-.4-.3h-.5v.2h-.1l-.3-.3-.3-.1v-.2h-.1v-.1l-.1-.2h.1v-.1h.5v-.3h.1v-.6l.1-.2h.4l.1-.2.1-.1v-.3l.1-.1v-.3l.1-.2h.3l.2.1v.5h.3v.2h.3l.1.2v.1l.2.1v.2h.2v.2h.5l.4-.4h.1l.3-.3.3-.5.3-.6.2-.5.1-.4.3-.7.2-.8v-2.1h.1l.2-1 .2-.6v-.2l.2-.5v-.2l-.1-.2-.3-.6-.1-.4-.2-.5v-.1Z" name="Monterey" fips="06053" />
    <path id="los-angeles-county" class="county missing" d="M234.8 392.5h.2l.5.3h.2l.3-.1h1.2l.2.3h.2v.2l.4.3.3.1.1.1v.3h.2l.2-.1h.2l.2-.1.1.2h.1l.6.4h.2v.2h.8l.5.3h.1l.4.2h.1l.3.3h.5v.8h.1l.2.3.3.4.6.6.2.2.1.2v.1h.1l.1.1v.1l.3.2v.5l.2.1v.5l-.2.1-.2.2-.3.1-.6-.2-.4-.4h-.2l-.3-.2h-1.2l-.2-.1h-.1l-.4.1h-.6l-.5-.1-.3-.2-.3-.3-.3-.5-.2-.2v-.6l.2-.2h-.1l.1-.2v-.2h.1l.2-.1v-.1h-.2v-.5l-.2-.2v-.5l-.1-.2-.2-.1h-.1l-.2-.1-.1-.1-.2-.1v.2h-.1l-.3-.3h-.5v-.1h-.9v-.2h-.4l.1-.2v-.2h-.2l-.3-.3v-.2h-.2v-.2l-.3-.2v-.2l-.2-.2h.1Zm-.2 18.3.4-.1h.1v.2h.4l.2-.1.2.1.2.3v.4l.2.3h.1l.2.1v.3l.1.3.2.3.3.2v.2l.4.3.1.3v.1l.7.9.4.4h.2l.4.3.2.3.3.3 1.1 1 .6.5.3.3.4.4.4.3.7.8-.2.1-.2-.1h-.4l-.2-.2h-.6l-.2.2v.3h-.3l-.3.2-.3.3v-.2l-.1-.3-.1-.1h-.2l-.2-.3v.1h-.1l-.3-.3-.2-.2h-.2l-.1-.3-.5-.2h-.1v-.2h-.2l-.2-.2v-.4l-.3-.2v-.4l-.3-.3-.2-.4-.2-.4h-.2l-.2-.2v-.3h-.2l.1-.2v-.3l-.2-.2v-.5l-.2-.2v-.2l-.4-.3-.2-.4-.1-.3v-.2l-.1-.1-.2-.7-.1-.2h-.1l-.2-.3-.2.1v-.7Zm-9.2-72.6-.5-1v-.1h.4v.4l.2.2h.8v-.6h10.1l8-.1h9.8l.5-.1H267v11h.2v4.4l.2 2.3v1.6l.1.8.2 1.7v.4l-.2 1-.2.6-.2 1.2-.1.5-.4 1.8-.1.4v.2l-.2.3v.5l-.2.4-.2.6-.1.3-.1.2v.1l-.1.3v.1l-.1.2v.1h-.1v.2l-.1.2v.2h-.1v.2l-.1.2v.3l-.1.1-.1.3v.4l-.1.1-.2.2h-.3l-.8-.2v.8h-.6l-.2.3-.4.9v.3h.3v.5l.4.3h-6.7v1.9h-.3v.3h-.2v.3h-.3v.3h-.3v.3h-.6v.3h-.3v.1h-.2v.2h-.1v.2h-.2v.1h-.1v.2h-.2v.5l-.1.1v.5h-.2v.1h-.1l-.4.5-.1.3v.1l-.2.4-.2.3v.2l.1.2.1.2v.2l-.2.2-.3.1-.2.2-.1.1-.6-.3-.2-.1-.3-.2h-.3l-.1-.1h-.2l-.4-.1h-.2l.1.2-.2.2-.1.1v.6l.2.6h-.8l-.9.3-.5.2-.5.2h-.6l-.2-.1-.1.1h-.3v-.1l-.5-.2h-.3v-.2h-.2l-.3-.2-.3-.1-.3-.1-.1-.2-.2-.2h-.5v-.1l-.2-.1h-.1l-.2.1h-.1l-.2.1h-.2v-.2h-.2l-.2-.2v-.5l-.2-.1v-.1h-.1v-.4l-.1-.1v-.1l.1-.2.1-.2h.2l.3-.3v-.2l.3-.2h.1l.1-.5v-1h-.1l-.2-.2v-.7l-.3-.7v-.3h-.1l-.1-.2v-.2h-.1v-.2h-.1v-.2l-.3-.5-.2-.4-.2-.6-.2-.4v-.2l-.3-.3-.1-.3-.3-.4-.2-.2v-.1l-.3-.4-.2-.2-.2-.2-.3-.4-.2-.2-.3-.2v-.1l-.6-.3-.3-.1-.2-.1h-1l-.2.1-.3-.1h-.4l-.2.2h-.2l-.2-.1h-1.8l-.1.2h-.7l-.3.2-.2-.1h-.2l-.5-.1h-.5l-.1.1-.2.2h-.4l-.4.1-.2.1-.2.3v.3h-.4v.2h-.2l-.4-.5-.5-.5-.1-.1h-.1l-.2-.1-.3-.2h-.2l-.4-.1h-.7l-.4-.1-.3-.1h-.2l-.3-.2-.2.2-.3-.1V368l1.8-1.3.5-.4.2-.1.5-.4.8-.6.2-.2.2-.1.2-.1.3-.3.6-.4h4.1v-3h1.3v-1.2l-.2-1-.4-1.1v-.2l-.7-1.5-.3-.6-.4-1.2-1.1-2.6-.1-.3-.5-1-2-5-.8-2-2-5.2Z" name="Los Angeles" fips="06037" />
    <path id="nevada-county" class="county missing" d="M152 140.3v-.1h.2l.2-.1v-.1h-.1l-.1-.1v-.2h.4l.3-.3h.5v-.2h1.7v-.1h.3v-.1h.2v-.1h1v-.2h.6v-.1h.2l.2-.1.1-.1h.5l.1-.2h.2v.1h.2v.1h.4v-.2h.1v.2h.1l.2-.1h.1l.1-.2h.5v-.2h.1l.1-.1h.4v-.2h.4v-.2h.3l.1-.1v-.3l.2-.1h.2l.2-.2.2-.2.2-.1v-.2l-.1-.2h.2v-.1h.2v-.2l.1-.2h.1l.2-.1.2-.1v-.2h.2v-.1h.1v-.3h.2l.2-.1.2-.1h.1l.1-.1h.7l.2.1v.1h1l.3-.1h.5l.1.2.1.1h.3l.1.1v.4h.2v.5h.2l.1.1.1.1v.1l.1.2v.8l.2.1h.1l.1.2h.2v.2l.2-.1h.2v.4H187v5.9h-22l-.1.2h-.2v.1h-1v.1h-.3l-.2.1v.1h-.2l-.1.1h-.1v.1h-.2v.2h-.2l-.3.2h-.2v.1l-.2.2-.1.1h-.1l-.1.1-.1.1v.1l-.1.1-.2.2h-.2l-.1.2-.1.2-.2.1h-.1v.1l-.2.2h-.1l-.1.2-.2.1-.2.2-.1.1h-.2l-.1.1-.1.1h-.1v.1h-.2v.1h-.1l-.1.1-.1.1v.1h-.2v.2h-.2l-.1.1h-.1v.1h-.1v.1h-.1v.5h-.1v.2h-.2v.2l-.1.1v.2h-.1l-.3.1h-.4v.1h-.3l-.3.2v.2h-.3l-.2.1v.2h-.1v.1h-.2v.1h-.2v.2h-.1v.1h-.2v.1l-.2.2v.1l-.2.2-.2.2h-.1v.2h-.1l-.1.2-.2.2-.1.2h-.3v1.2h-.2v.2h.2v.1l-.2.2v.1h-.2v.3h-.1v.5h-.2v.1l-.3.1v.4h-.3v.5l-.2.2v.2l-.2.2h-.3l-.1.1h-.3l-.1.2h-.5v-.1l-.2-.1v-.1h-.8v-.1l-.2-.1h-.2v-.1l-.1-.2h-.1v-.1l-.1-.1v-.2h-.2v-.2h-.2v.1l-.2.1h-.2v.3h-.3l-.1.2h-.1l-.1.1h-.4v.2h-.2v.1h-.2l-.2-.2h-.2v.2h-.7l-.1-.2-.2-.2v-.1h-.3v.1l-.3-.1v-.1h-.2v-.1h-.4l-.1-.2h-.4v-8.7h.1l.1-.2.1-.2v-.6h.4v-.4l-.1-.2v-.1h-.1v-.3l.4-.2h.1l.1-.1.1-.1h.9v-.2l.1-.2.2-.2v-.1l.4-.2v-.1l-.2-.1v-.5h.1l.1-.1v-.4h.5v-.2h.2l.1-.1h.4v.1l.1.2h.2v-.7h.5v-.6h.2v-.3h.1v-.2h.2l.1-.1v-.2h.9v-.2l.1-.2.1.1h.2l.1-.3h.8v-.1h.5v.2l.2.1v-.1l.2-.1v-.1h.2v.2h.2Z" name="Nevada" fips="06057" />
    <path id="napa-county" class="county missing" d="m97 172.3 1.1-.4 3.7-1 .7-.2 1.3-2.2.4-.6.4-.2-.2-.2v-.4h-.1l.5-.8h.6l.2-.6-.3-.7-.7-1 .3-.3v.2h.2v.2h.1l.2.2h.2v.2h.1l.2.1h.1l.3.3h.1l.2-.2h.2l.1-.1h.2l.1-.1h.2l.1.2h1v.1l.1.2.1.2v.2l.2.1v.2l.1.2v.2l.1.2.2.2v.1l.1.2.1.1v.2h.1v.5h.1v.4l.1.4v.2h.1v.2h.1l.1.1v.2h.4v.4h.1v.3h.2v.2h-.1l.1.6v.4l.1.1h.1l.1.1h.3l.1.2h.1v.8l.1.1.2.2.2.2.2.2h.1l.1-.1h.1l.2.1v.2l.1.1v.3l.1.2v.1h-.2v.1h-.1v.5h.3l.1-.1h.1v-.1h.2v.2l.1.2v.1l.2.2.1.2.1.3v.2l.1.1.1.1v.4l.1.1.1.6v.1l.1.2v.2l.1.2v.3l.1.1v.2h.1v.5l.2.2v1.3l-.2.5-.3 1-.1.2-.1.5v.6l.2.3.1.1v.1h.1l.2.2v.2l.3.4.2.2.1.2.2.2.3.7.1.2.2.4v.4l.1.3.1.2v.2h-.1v.2h-.1v.2h.1-4.9l.1.3h.1v.2l.1.1v.3l-.2.1h.1v.2l.1.1v.2h.2v.2l.2.3h-.3v-.1h-.5l-.2.3v.1l.1.2h.6v.4h-.2l-.2.1h-.1l-.1-.1v.2h.1l.1.2h.1l.2.3v.4l.1.2h-.1v.3h-.1l-.2.2v.5l-.2.2v.1h-.1v.7l.2.1h.1v.2h.2l.2.2-.2.2v.1l.1.1h-7.2v-.2h1.2v.1h.2v-1.1h.2v-.6h.2l.1.2v-.4l-.1-.2-.1-.1v-.5l-.1-.5-.3-.7h-.1v.1h-.1l-.1-.1v-.1l-.1-.1-.2-.1v-.1l-.1-.2v-.5h-.4l-.1-.3v-1h.4v-.3l-.2-.1v-.1l-.1-.3h-.2v-.2l-.1-.1v-.4l-.2-.2h-.1l-.1-.2-.1-.1v-.2l-.2-.2h-.1l-.1-.2h-.4l-.1-.1v-.2h-.2v-.2l.2-.1.2-.3-.2-.1-.2-.2-.3-.2v-.3l-.1-.2v-.1h-.2v-.2l-.6-.6h-.1l.1-.3v-.2l.2.2v-.3h.1v-.1l.2-.2v-.2l-.2-.2h-.2v-.1h-.7v-.5l-.3-.2h-.4l-.1-.2v-.2h-.1l-.1-.2-.1-.1v-.2l-.1-.2v-.1h.2v-.1l-.1-.1v-.1h-.2v-.2h-.1v-.1h.2v-.3h-.1v-.1h-.1l-.1-.2H99v-.1l-.1-.2-.2-.3v-.1l-.2-.2v-.1h-.1v-.1h-.2l-.2-.2h-.2v-.1H97v-.4l-.1-.1h-.2v-.4l-.1-.2v-.1l-.2-.2v-.2h-.1l-.1-.1v-.3h.1l.1-.2v-.2h.2v-.4l.2-.1v-.2h-.2v-.5l.2-.3v-.1l.1-.1v-.7Z" name="Napa" fips="06055" />
    <path id="san-bernardino-county" class="county missing" d="M267 336.9h1.2v-25.7l-.1-.7h.1v-4.8h-.2v-2.4l.1-1.2h.6v-1.3h-1.2v-1.2h.6v-3.7h24.3l22 .2h18.8v-.7h3l.7.7.2.2 2.4 2.4 1.7 1.6 3 2.9.3.3.4.3v.1h.1l.8.9 2.2 2 1 1.1 1.7 1.6 2.2 2.1.5.5.7.7.8.7.2.2 1.8 1.8 3.5 3.5.6.5 2.6 2.6 1.5 1.4v.1l3 3 1.4 1.4.8.7.7.7v.3h.1v.5l-.2.6v.4l.1.2v2.4l-.1.3v.6l.1.4.3.2.1.1.6.3.1.2.3.2.2.2.2.4.1.5v.3l.2.6.2.3.1.3.1.2.3.3.1.2.3.2.3.3.2.1v.2h.1l.2.3.2.1h.2l.3.2.1.1.2.3.2.1h.1l.1.1h.1l.1.3v.2l.1.4.2.3.1.3.1.2v.2h.1v.1l-.2.3v.1l.2.1.2.3.1.2v.4l.1.4.4.4.1.1v.5h-.4v.4l.5.5.6.4.2.4.3.7.3.5v.2l.1.4v.8h-.1v1.1l-.2.4v.2l.3.3h.1v.1h.4l.3-.1h.8v.2l.2.3h.2l.3.2.4.3.2.2v.1l.1.3v.2h.2l.2.1h.4l.1.1.4.5h.1l.2.2.4.3.1.4.2.1.4.1h.4l.3.2.2.2h.2l.1.2.2.2.1.2.4.9.5.5h.2v1.5l.2.3v.2h-1l-.1.2-.1.1-.3.1v.2l-.1.1-.5.4-.6.6v.2h-.2l-.3.3v.6h-.2v.1l-.4.2v.1l-.4.2-.5.2h-.7l-.1.1-.2.3-.1.2-.4.5-.3.2-.1.1h-.8l-.2.1-.1.2-.2.3-.2.1v.1h-.4l-.4.3h-.9l-.1.3-.2.3-.1.1-.2.2v.3h-26v.1h-4.2v1.8h-55.3v1.2H282v-.5h-5v-.7h-6.3v2l-1.2.4h-.2v.1h-.3l-.1.1v2h-1.5v1.5h-.8.1l.2.2-.1.2v.2l-.2-.1v-.2l-.3-.2-.7-.5h-.1l-.8-.7-.2-.1-.3-.3-.6-.5-.4-.3-.2-.2-.4-.3v-.6h-.3v-.3l.4-.8.2-.4h.6v-.8l.8.1h.4l.1-.2v-.4l.2-.3v-.4l.1-.1v-.2l.1-.1v-.2l.1-.2v-.1l.1-.1v-.1l.1-.1v-.2l.1-.3v-.1l.2-.2v-.3l.3-.6.1-.4v-.3l.1-.1.1-.4v-.2l.2-.3v-.1l.4-1.8v-.5l.3-1.2.2-.5.2-1.1v-.3l-.2-1.8v-1l-.1-1.3-.2-2.3V348h-.2v-11Z" name="San Bernardino" fips="06071" />
    <path id="san-diego-county" class="county missing" d="M269.4 396.3v-.4l.2-.4v-.4l.2-.8.2-.7h1.2l.2-.1.3-.2.5-.3h.2v-1.5h5l-.3.6h.3l1.4.6h.2l1 .5h.1l.8.4h.3l.3.2v.7h7.2v.2H315l2.5-.1 2.8.1h1v6.1l.1 1.7v6.6h-.7v14.2h-.1v4.5h-1.7l-1.9.3-2 .1-4.2.4-.9.1h-.8l-3.3.4h-.1l-3 .3-2.2.2-2.3.3-2.2.2h-1.2l-1.2.2-1.2.2h-.6l-2.8.3h-.5l-.7.1h-.1l-1.8.2h-.2v-.3l-.2-.4v-.2l-.1-.1v-1.8l-.2-.6v-.3l-.1-.1-.2-.3-.2-.5-.3-.5-.2-.4-.2-.2-.2-.1-.3-.2-.2-.1h-.1l-.6-.1h-.1l-.2.2-.5.5v.1l-.2.2-.1-.3-.3-1.2v-.7l-.1-.3v-.8h.1v-2l-.1-.2-.1-.2v-.1l-.1-.1h-.1l-.1-.1v-.2h-.1v-.1l-.1-.1-.2-.2v-.7l.2-.4h.2v.1h.2v-.1l.3-.3v-.6l.1-.2v-.4l-.1-.5-.1-.5v-.1l-.1-.5v-.4l-.2-.6v-.3l-.1-.3v-.4l-.1-.1-.1-.5-.1-.4v-.4l-.2-.2-.2-.6-.1-.2-.1-.1v-.3l-.1-.1v-.2l-.2-.5-.2-.4v-.3l-.1-.2-.1-.3-.2-.5-.2-.6-.4-.6-.2-.3-.5-.8v-.2l-.3-.4-.5-.5v-.2l-.2-.2-.1-.1-.2-.2h-.2v-.3l-.1-.2-1-1.5-.4-.5-.8-1.2-1.2-1.5-1.4-1.3-.5-.2-.3-.2v-.2h-.4l-.2-.1-.3-.2Z" name="San Diego" fips="06073" />
    <path id="madera-county" class="county missing" d="m168.4 242.8 1.7-1.7.6-.6v.2h.2l.1-.2h.3v-.1h.4v-.1l.2-.1h.4l.1-.1.2-.1h.1l.2-.1h.2v-.2h.1l.2-.1.1-.1h.2l.1-.1h.6v.1h.4v-.1h.5v-.1h.2v-.1l.1-.1h.1v-.2h.2l.2-.1h.2v-.2h.3v-.1l.2-.2.2-.1h.8l.1-.1h.1l.2-.1h.4l.3-.1h.2l.1-.2h1.2l.2.1h.4v-.2h1.5v-.1h1.1v-.1h.2v-.1h.3l.2-.1.2-.1h.4v-.1h.2l.1-.1.1-.1 6-6.1 3.3-3.3.7-.6h3.6v-2h1.3v-1.4h1v-2.8l2.8-2.8 1.8-1.8 4.9-4.9v.1h.1l.2.2.2.2v.4l.2.1v.4h.2l.1.2.2.1h.1l.2.1v.2h.1v.3h.2v-.2h.4l.1.1.1.1.3.2v.1l.1.1h.3v.1l.1-.2h.1v-.1l.2-.2.2-.3v-.1l.2-.1h1.3v.1h.3v.1h.2l.1-.2h.1l.1.1h.3v.1h.2l.1.2.2.1.1.3h.1v.2h.2v.3l.2.1h.1l.2.2v.2h.2l.1.1v.1h.1l.1.2h.1v.3l.1.1v.3h.1v.7l.2.1v.2l.1.1v.2l.2.1.1.1.2.1h.1v.2l.1.2v.4l-.1.4v.1l.2.2v.2l.1.2.1.2-9 9-.6.6-.2.3-.1.1-.1.2v.1l.1.1v.1l-.2.2h-.4v.2l.3.1v.4h-.3v.1l-.2.1-.1.2v.3h.1v.2l.1.3v.7h-.1v.2h.1v.2h.1v.5h.1v.5h-.2v.2h-.1v.7l-.2.1v.1l.2.1v.5l-.2.2v.2l-.1.2h-.1l-.2.2h-.1l-.2.1-.1.1v.5l-.1.2h-.4v.3l-.1.1h-.2v.2h-.6v-.2h-.2v-.1h-.1l-.3-.2h-.5v.8l-.3.1h-.7v.3l-.1.1v.2l-.1.2v.2h.1v.2l-.1.2h-.5l-.1-.1-.1-.2-.1-.2v-.4h.1v-.2l-.1-.2-.2-.1-.2-.2-.1-.1-.3.1v.1l-.1.1v.3h-.2v.3h-.1l-.2-.1h-.2v-.2l-.2-.1-.1-.2h-.4l-.2.3v.7l-.1.1v.1h.7l.1.2.2.1v.5h-.1l-.2.1-.2.1-.2.2v.4h-.1v.6h-.9l-.2-.2-.2-.1h-.2v.2h-.1v.4l-.1.2v.2l-.1.3v.2l-.2.1v.2l-.2.1-.2.2h-.1v-.3h.1v-.2h.1l-.3-.5h-.5v.1l-.3.1v.2l.1.4v.5h-.1l-.3.2h-.5v-.1h-.3l-.2.1v.2l-.2.1v.2h-.1l-.2.2-.2.2-.3.2-.1.2-.2.2-.1.2v.4l-.1.2h.2v.1l.1.1v.3h-.3v.2h-.2v.1h-.1v.5l-.1.1-.2.1h-.4v.2l-.1.3-.4.5h-.1v.3l.2.2v.3h-.3l-.1.1-.2.4-.2.1-.2.3v.3l-.2.1h-.2l-.3-.2-.2-.1v-.2h-.3v.3h-.8l-.3-.1-.2-.2v.2l-.1.1h-.5v.1l-.2.2h-.5l-.1-.1-.2.2v.2l-.1.1-.3.1h-1.1l-.1-.2h-.4v.4h-.2l-.2.1h-.4l-.2.1v.3h-.2v.2h-.3v-.1h-.2l-.2-.1-.1-.2h-.3l-.2.1h-.3l-.1-.2h-.2l-.2.1-.1.1-.1.1v.1h-.1l-.2.1h-.8l-.1.1h-.2l-.1.2h-.1l-.2.1-.3.2h-.3v-.2h-.3v.5h-.2v.4l-.2.1-.1.2h-.1l-.1-.1-.1-.1-.1-.1v-.3h-.5l-.2.2v.1h-.4v.4l.1.2h-.4l-.2-.1v-.2l-.2.1v.1h-.7v-.1h-.1v.1l-.1.1-.1.1v-.3h-.3v.4h-.2v-.3h-.4v-.1h.2v-.2h-.1l-.2-.1h-.1l-.2.1h-.2v-.3h-.2v.1h-.1v-.4h-.4v-.2h-.1v.4l.1.1h.1v.1h-.9v-.5l-.1-.1v-.4h.1v-.2l-.2.1v-.4l-.4-.2h-.2v-.1l-.1.1h-.2v-.4h-.2v-.4h-.1l-.1.1h-.1l-.2-.1h-.1l-.1-.2-.1-.1v-.2h-.4v-.2h-.2l-.1-.1v-.1h-.1l-.2-.1.1-.1.1-.1v-.2h-.2v-.2l.1-.1v-.2h-.2l-.1-.1-.1-.2v-.2l.1-.2v-.2h.2l.1-.1.1-.2v-.2h-.3v-.2h.1v-.3h-.2v-.2l-.1-.1h-.2l-.1-.1v-.2l-.1-.1v-.4l-.1-.2-.1-.1h-.1v-.3h.1v-.1h-.2v-.2h-.1l-.1-.1-.2-.2v-.6h-.1v-.1h-.1v-.4h-.5v-.2h-.3v-.3h-.2v-.1h-.1l-.2-.1v-.1l.2-.1v-.6Z" name="Madera" fips="06039" />
    <path id="san-joaquin-county" class="county missing" d="m132.8 197.4.2-.1h.3v-.4l-.2-.2h-.3v-.2l-.1-.2.1-.2.1-.2.2-.1.2-.2h.3v-.4h.2v-.2h.2v-.1h.2v-.3h.1v-.2l.2-.3h.1v-.8l-.1-.2v-.1l.1-.1v-.2h.4l.1-.1.1-.2.1-.2v-.2l-.1-.2v-.1h.2l.1-.1h.3v-.3l.1-.1v-.1l.1-.1v-.2h.2v-.5l.2-.1h.6v.1h1v.2h.1v.4l.1.1v.1h.1l.1.1.2.1h.2v.2h.4l.2-.2h.3v.1h.4l.1.1h.2l.2-.1.2.1h.2l.1-.1h.4l.2-.2h.8v-.1h.1l.2-.3.1-.1v-.1h.4v-.1h.4l.2.2h.2v.1h.2l.1-.1h.4l.2.1h.4v-.2h.4l.2-.1.2-.2h.8l.2-.1h.2l.2-.2h.2l.1-.2.1-.1h.2v-.2l.2-.1h.4l.3-.2h.5v-.1h.1l.2-.1v-.1h.2v-.1h.1v-.1l.2-.1v-.1h.3l.2.1.2.2.2-.1.1-.2h.4v-.1l.4 1.1.4 1 .1.4.3.8.3.8.3 1.2.2.7 1.1 3.2.1.2.3.3v10.4l.1.8v2.7h.2v.3h-.1v.5h-.4l-.2-.1h-.2l-.3.2-.1-.1-.2-.1-.2-.2h-.2v-.2h-.1l-.1-.2h-.2l-.2-.1v-.1h-.1l-.2.1v.1l-.1.2h-.4v-.2h-.2l-.1.3h-.1l-.1.3h-.4v.1h-.2v-.1h-.1v.2-.3h-.3v-.2h-.2l-.1.1h-.2v.4h-.5v-.1h-.2v.2l-.2.1-.2-.1v-.1h-.2l-.1-.1h-.1v.3l.1.1-.2.2h-.1v.1h-.2v.1h-.7v.1l-.1.1h-.4v.2l-.1.1v.2l-.1.1-.1.1v.1l-.3-.2h-.1v.2h-.1v.5h-.2v-.1l-.1-.1h-.1v.1h-.1v-.2h-.1l-.1.1h-.1v.2h-.4v.1h-.1v.2h.1-.1v.2h.1v.2h-.4v.4h-.4l-1 1-.6.5-1.3 1.3-.4.4-.9.9-.4.4-3.4 3.4v-.2l.1-.2-.2-.1v-.1h-.1v-.2h-.2v-.1h-.2l-.1-.2v-.5h-.1v-.1l-.1-.1.1-.1v-.2h-.8l-.2-.1h-.2v-.1h-.2l-.1-.1h-.1v-.2h-.1v-.1l-.3-.2v-11.9h.1v-.2l.1-.1v-.4h.4l.1-.2v-.2h.1v-.2l.1-.1h-.2v-.3h-.4l-.1-.2-.1.1h-.2v.2l-.2-.1h-.2l.1-.2h-.2v.1h-.2v-.1h.2v-.3h-.1v-.3l.2-.4-.1-.2h.2v-.2h.1v-.3h-.2v-.2l.2-.2v-.4h.1l.2-.1v-.5l-.1-.1v-.2l-.1-.1v-.1h.2v-.1h-.4v-.1l.2-.2h-.4v-.2h.3v-.1l-.1-.1-.1-.2v-.2h-.1l-.1-.1v-.1h.1v-.1l-.2-.1v-.4l.1-.1v-.2h.2v-.2h-.1l-.1-.1v-.2h.3v-.2h-.2v-.1h.3l.2.1h.1v-.2h-.1l-.1-.2v-.2h-.4v-.5h-.3v.3h-.1v-1.5h.1l.2-.1v-.6l-.1-.3v-.1Z" name="Joaquin" fips="06077" />
    <path id="yolo-county" class="county missing" d="M106.8 161h17.3l.1.2h.4l.2.2h.3v.1l-.1.1h-.2l.2.2h.6v.1l-.1.1h-.3v.3l-.2.2v.1h-.2l-.1.1v.4l.3.2.2.1v.2h.2l.1.1h.4v.3l.2-.2h.3l.2-.1h.2v-.2h.2v-.2h.1v.1l.1.2.2.1h.1l.3.2v.2h.2v.2h-.1v.4h-.1v.4l.2.1v1.1h.3l.1.1h.5v.2h.2v.5l.1.2v.4l-.1.1v.1l.1.2h.3v.1h.3v.2l-.2.2v.4h.2v-.4l.1-.1h.2v-.3h-.1v-.4h.1v.2h.7l.1-.1-.2-.1-.1-.1h.3v.2h.2v-.4l.2-.1h-.1v-.2h.5l.3.1v.1h.1l.2.2v.3l.2.2v.4l-.1.2-.1.2v.2l-.2.2v.8l-.1.1-.2.3-.3.2-.1.1-.2.1v.1l-.1.2v.5l.1.2.1.2.6.5.2.3.3.3v.1l.2.1.5-.3h.1l.2.2v.7l.1.3.2.5.1.2.2.2h.2v-.1h.2l.2-.1h.4l.2.1v.2l.1.3v.4l-.1.2-.3.3v.4l.1.1v.2l.2.3v.2l-.3.3-.3.1-.1.2.2.3v.1h-.2l-.3.1h-.2l-.2.2-.1.1-.1.3v.4l.3.5.1.2.1.1h1.1v.1l.1.1.1.2v.2l.1.3v.7l-.2.1-.3.1h-.4l-.1.1v.2l.2.3v.2l.2.2.1.2v.4l.1.1v.4l-.1.1v.2h-.2v1l-.1.2-.1.1-.2.2-.1.1h-.3l-.4.2-.5.5-.1.2h-.2v-.2h-.1v.2h-.1l-.1.1v.4h-3.6v-9.4h-.2l-.1-.2-.1-.1v-.1h-.2v-.1l-.2.1h-.5l-.1-.1h-.1l-.2.2-.2.1h-.2l-.1.1-.2.1h-.1v-.2h-.4l-.2.2v.1h-.2l-.1-.1h-1l-.1-.1h-.2l-.3-.2h-.1l-.2-.2h-1.3l-.1.1h-.1l-.2.1h-.2l-.1.1h-1.3l-.1.2h-.2l-.2.1h-.1l-.2.2v.2h-.2l-.1.3-.3.1v.1l-.2.1h-.1v.1l-.2.2h-.1l-.2.1v.1h-.4l-.2-.1h-.1l-.2-.2v-.1l-.2-.2v-.1l-.2-.1-.2-.2v-.2h-.2l-.2.1h-.9l-.2.1h-.2v-.2l-.3-.2v-.4l-.1-.1v-.3l-.1-.3v-.4l-.1-.2v-.1l-.2-.6v-.5h-.2v-.4l-.2-.3v-.2h-.1l-.1-.2v-.1l-.1-.2h-.1v-.2h-.3v.2h-.4v-.4h-.1l.1-.1h.2v-.3l-.2-.1.2-.2v-.1h-.1l-.1-.3-.2-.1-.1-.1h-.4l-.2-.2v-.1l-.2-.2v-.1l-.2-.2v-.1h.1v-.5h-.2v-.1h-.5v-.7l-.2-.4h.1v-.4h-.1v-.1h-.1v-.3l-.1-.1v-.1h-.2v-.3h-.2v-.2l-.1-.1v-.2l-.1-.4v-.2l-.1-.1v-.3l-.1-.1v-.2h-.1v-.1l-.2-.2v-.1l-.1-.1v-.2l-.2-.1v-.4l-.1-.2-.1-.1v-.2l-.2-.2v-.2h-.5v-.2l-.4.1-.2-.1v-.2h-.2l-.1.2h-.4l-.2.3h-.2l-.3-.2-.1-.1h-.2v-.2l-.2-.1-.3-.1v-.2h-.1l-.1-.1v-.2h-.1l.1-.2-.1-.1v-.2h-.2v-.1l-.2-.2v-.2l-.1-.1-.1-.2-.1-.2h-.2v-.4h.2v-.1l.1-.2v-.2l.2-.2v-.1h2.4Z" name="Yolo" fips="06113" />
    <path id="merced-county" class="county missing" d="M145 238.9v-.2l4.3-4.3.3-.3h.2l.2-.3.4-.4.2-.2.4-.4 1.1-1.2.2-.1.1-.2.3-.3 1-.8v-.1l.2-.2v-.1h-.2v-.1h-.1l-.1-.1v-.5h-.1v-.2h.1v-.4h.1v-.1h-.4v-.3h.1v-.1h-.4v-.2h.2v-.2l.1-.2 1.6-.7v-.2l.5-.2 1.3-.7.5-.2.5-.2.3-.2h.2l.4-.2.3-.2.2-.1.6-.3.5-.2.9-.4.3-.2 2.3-1.1 1.9-1h.2l.8-.4 2.6-1.4 4.6-2.2.1.3.3.4 1.8 4h.1v.1l.1.4v.3l.2.4h.1l.2.2v.1h.1v.2l.2.2v.2l.2.3.1.3h.1l.1.2v.4l.2.2v.1l-.2.2-.1.1v.5l.1.1h.1v.2h.1v.2l.2.3v.1l.2.3.2.2v.2l.2.1.1.1v.2l.2.2.3.5v.1l.2.3.2.4.2.2.2.5.2.5.2.2.1.1.2.1v.2l.2.3v.3l-.1.2v.4h.1v.2l.1.1v.2l.3.2h.1l.5.4.2.2h.2l.5.3.5.3.3.1h.1l.3.1.3.2v.1l.1.1.2.2.2.2v.2h.3v.2l.1.3.2.2-.2.2h-.5l-.1.1h-.2l-.1.1h-.4v.1h-.2v.2h-1.1l-.3.2h-.1l-.3-.1h-.7v.1h-.4v.1l-.3-.1h-1.2v.1h-.4l-.2.2h-.6l-.2.1h-.7l-.3.2-.1.2h-.1v.1h-.3v.1h-.2l-.2.1-.2.1v.2h-.2v.1h-.2v.2h-.5v.1h-.6v-.1h-.7v.2h-.2l-.2.1v.2h-.3v.1h-.4v.1h-.3v.1h-.2v.1h-.2v.1h-.6l-.1.2h-.2l-.6.5-1.7 1.7-1.8 1.8h-.1v.1h.1v.2l.2.1h.1v.5h-.1v1.2h-2.3l-1 1-.8.8-2.3 2.4-3.3 3.4h-.1l-1.1 1.1v.1l-.4.3h-.1l-.4-.5-2-1-.3-.1-3.1-1.6-.4-.2-.6-.3-.2-.1-.5-.3v-.4h-.1v-.2l-.2-.1v-.2h-.1v-.2h-.2l-.2-.2v-.2h-.1v-.4h-.2l-.1-.2v-.1h-.2v-.5l-.1-.2-.1-.2h-.2l-.2-.1h-.3v.1h-.5v-.4h-.4v-.1l-.1-.2v-.2l.1-.1v-.2l.2-.2.2-.2.1-.1v-.2h.1v-.4h-.2l-.2-.2h-.2l-.1-.2h-.1l-.1-.2-.2-.2v-.5l.1-.2h.4v-.4h-.1v-.1l.1-.1-.2-.3-.1-.1-.1-.2-.1-.2v-.1h.3l.1-.2.4-.1v-.7h.4l.2-.1v-.1l-.1-.2v-.1h-.2v-.1h-.1l-.1-.2v-.2h-.2v-.1h-.1l-.2-.2h-.2l-.1-.2.2-.1.2-.1h.1v-.4h.2v-.5l.3-.3h-.1l-.1-.1v-.2l-.2-.2Z" name="Merced" fips="06047" />
    <path id="ventura-county" class="county missing" d="M206.2 370.4h.6l.4.3h.8v-.1l.4-.1.2-.1h.4l-.5.1v.1h-.2l-.4.4h-.3l-.3-.2h-.7l-.1-.1h-.2l-.1-.1v-.1Zm0-36.8h2v.9h3.6v.9h1.1v1.8h9.2v1h3.3l2 5.2.8 2 2 5 .5 1v.3l1.1 2.5v.1l.5 1.2.3.6.6 1.5v.2l.5 1.2.1.8v1.3h-1.1v3h-4.2l-.6.4-.3.3h-.2l-.2.2-.2.2-.8.6-.5.4-.2.1-.5.4-1.7 1.2-.1 1.2h-.4l-.1-.2h-.2l-.2-.2-.2-.1h-.3v-.1l-.4-.2h-.4l-.3-.2-.7-.5h-.8l-.3-.3-.6-.4h-.4l-.3.2h-.3l-.5-.2-.4-.4-.6-.4-.6-.5-.4-.3-.5-.2h-.4l-.4-.6v-.2l-.3-.4v-.1l-.4-1-.3-.6-.3-.6v-.5l-.2-.4v-.1l-.1-.3-.2-.3-.2-.2-.2-.1h-.6l-.1-.1-.2-.2h-.1v-.1l-.6-.3-.4-.6-.7-.6h-.2l-.4.1h-.1l-.5-.7-.2-.1-.6-.7h-.1l-.2-.1h-.2l-.3-.4-.3-.3-.3-.1h-.2v-.2h.2v-.2h.1v-.1h.1v-.1l.2-.1.3-.2v-.2h.1v-.1h.1v-.2l-.1-.1v-.2l-.2-.1v-.4h.2v-.4h.1v-19.3Zm-4.7 67.2h.2v.1l.2.1h.2l.2-.1v-.2h.4l.2-.2h.2l.2.1h.1l.4.3.1.1.2.2h.4l.1.1.5.2h.2l.2.2.2.3.4.2v.1l.1.2.2.2v.2l-.2.2h-.2l-.2.1-.2.1h-.8l-.3-.1h-.3l-.1-.1h-.4l-.3-.3-.3-.1h-.6v-.2h-.1l-.3-.3-.2-.2v-.3h-.4v-.3l-.2-.6Z" name="Ventura" fips="06111" />
    <path id="san-luis-obispo-county" class="county missing" d="M140.8 296h8l3.8.1h9.6l1 .1h17.2v7.4h3.8v3.8h.6v.5h.6v.6h.5v.6h.7v.7h.6v1.2h4v3.7h2.4v3.7h5l-.1 3.7 3-.2h.9v.3l-.3 3.6 2.2-.2h.3v.6h.6v7.4h-.6v.1H203l-.1-.1h-.2v-.2l-.3-.1-.1-.2h-.2l-.3-.2-.3-.2-.2-.2-.1-.1-.1-.2-.2-.2-.2-.1-.2-.2-.1-.1h-.5l-.3-.2h-.3v-.1l-.2-.2h-.1v-.1l-.2-.1h-.1v-.2l-.4-.2-.2.1h-.5l-.3-.2-.3.1-.2.1h-.3v-.1h-1l-.1-.2h-.2l-.2-.2h-.1l-.2-.2h-.5l-.3-.1v-.4h-.4v-.1h-.3l-.2-.1h-.2l-.1-.1-.4-.4-.2-.4-.1-.1v-.1l-.1-.1h-.3l-.1-.1h-.3l-.2-.2h-.5v.2h-.2v-.2h-.2v-.2h-.1v-.1h-.2v-.3h-.2v-.2h-.2l-.3.2v-.1h-.7l-.1-.1h-.6v-.1h-.2v-.2h-.1l-.2.1-.3-.4h-.2l-.2-.1v-.2h-.3v-.2h-.2l-.1-.1h-.4l-.2-.1-.4-.1v-.1h-.2l-.2-.3v-.1h-.4v-.3h.2v-.1h-.6v.2h-.1v-.1h-.1v.1h-.2v.2h-.2l-.1-.1v.1h-.1v.2h-.2v.2l-.1.1v-.2h-.4v.1h-.2v.5h-.4v.1h-.1l-.2.2h-.2v.1l-.1.1v.2l-.1.1h-.2v.4l-.1.1v.8h-.1v.2l-.3.1h-.2v.2h-.2v.2h-.8v-.1h-.4l-.1-.2v-.1h-.2v.4l-.1.1-.1-.1v-.4h-.1v.1l-.1.2h-.3l-.1.1v.3l-.5-.2-.7.3-.1-.2-.3-.2-.4.5v.5h.1l.2.3h.3v.1l.1.1v.3l.2.2.1.1.1.2v.4h.2v.5h.1v.9l-.1.1v.2h-.1v.3h-.1v.1h-.5v-.2h-.1v-.1l-.1-.3-.2-.3h-.1l-.1-.2-.2-.1h-.2l-.1-.2h-.1l-.3-.3-1-.7h-.1l-.3-.3-.2-.1-.6-.4-.3-.1v-.1h-.8l-1.3-.3-.6.2-.9.2-.1.1v.1h-.2l-.3.2-.3-.1h-.3l-.3.2v.2h-.4l-.2-.2h-.5v.3l-.5.1-.2.1-.5-.6.4-1.2.2-1.3.1-1.1v-2l-.2-.5v-.4l-.3-.5-.2-.3-.1-.1-.3-.2h-.5l-.1-.2h-.2l-.3-.3-.2-.2-.1-.1h-.3v-.1h-.5l-.3-.1h-.5l-.2.1v.6h-.2l-.3-.1-.3-.2-.3-.4-.1-.1h-.3l-.2-.2-1.1-.6-.3-.2-.4-.1-.2-.5h-.2l-.1-.2v-.1l-.2-.3-.3-.2-.1-.1-.3-.3v-.5l.1-.3v-.3h.2v-.4l.3-.5.2-.5.3-.9v-.6l.1-.2v-.6h-.2v-.5h.1v-1.1l-.1-.2v-.1l-.1-.1v-.2l-.4-.7-.2-.1-.3-.4v-.1l-.3-.2h-.4l-.3.1h-.8l-.2-.3-.5-.2h-.5l-.3-.2-.1.1h-.2l-.2-.2-.4-.6-.2-.2-.2-.2h-.1l-.1-.2-.3-.2v-.1l-.1-.2h-.2l-.1-.2-.6-.6-.2-.3h-.1v-.1l-.2-.2h-.1l-.1-.3h-.2v-.2l-.1-.2v-.2l-.2-.3v-.2l-.2-.2-.1-.2-.1-.1-.1-.3v-.1l-.3-.3h-.1l-.2-.2-.2-.3v-.1l-.6-.9-.4-.2h-.6v.3l-.1-.1-.2-.2h-.1l-.2-.3-.3-.1h-.6l-.4-.3-.3-.3h-.9v-.5l-.1-.5-.3-.3-.3-.3-.3-.4.1-.2v-.3h-.2v-1.3h-.3v-.7l-.1-.4v-.2l-.6-.5Z" name="San Luis Obispo" fips="06079" />
    <path id="lassen-county" class="county missing" d="M141.3 59.8H187v21l.1 10v25.8l-.1 3.3v5.7h-.6v.7H182V125h.7v-.6h.3v-.7h.3v-.7l.1-.6v-3.9h.3v-1.3h-.4V116h-.6v-.4h-.3v-.4h-.3v-.3h-.3v-.3h-.3v-.6h-.4v-.7h-.3v-.6h-.6v-1.4h-.3v-1.9h-1.4v-1h-.6v-.4h-2.6v-.3h-.7v-.3h-.6v-.4h-.7v-.4h-.3v-.6h-.3v-.3h-.7v-.4h-.3v-.7h-.3v-.6h-1v-.6h-.3v-.7h-.6v-.6h-.7v-.3h-.6v-.4h-1v-1h-1.5v-.3h-.7v-.3h-.4v-.4h-2.5V99h-1.3v.3h-.4v.3h-.7v1h-.7v.4h-.6v.7h-.3v.3h-.4v.3h-.6v1.9h-.6v.3H155v-.6h-.6v-.7h-1.9v-.6h-1.2v-1h-.7v-8.5h-9.2V91h.2v-7.1l.1-4.7v-6.7h-.4V59.9Z" name="Lassen" fips="06035" />
    <path id="fresno-county" class="county missing" d="m168.4 242.8.1.1v.5h-.2v.1l.2.1v.2h.3v.4h.2l.1.1h.3l.2.2v.3h.2-.1v.1h.1v.7h.2v.2h.2v.1h.2v.2h-.2v.2h.2v.2l.1.2h.1v.5l.1.2h.3v.3l.1.2h.1l.1.2-.1.2v.1h.2l.2.1v.1l-.2.1v.2h-.4v.4h-.1v.4h.5l.1.2-.1.1v.2l.2.1v.2h-.2l.1.2h.2v.1h.3v.4h.2v.2h.2v.3h.3l.1.1h.1v-.1h.1v.1l.1.1.1.1v.3l.2.1h.1v-.1h.3l.3.3v.4h.4v.1h-.1v.1h-.2v.2h.1l.1.1v.5h.9l-.1-.2-.2-.2v-.1h.2v.1l.1.1h.2v.4l.2-.1h.2v.3h.4v-.1h.4l.1.1v.2h-.2v.1h.5l-.1.2.1.2h.1v-.5h.2v.2h.2v-.4h.5l.2.2.1-.2h.2v.1h.3v.1h.2v-.2l-.1-.2v-.1h.4v-.2l.1-.1h.4v-.2h.2v.5h.2v.2h.2v-.1l.1-.1h.1v-.2l.1-.2h.1l.1-.2v-.3h.3v.2h.3l.3-.1.2-.1v-.1l.2-.1h.2v-.1h.2v-.1h1v-.2h.2v-.1h.1l.2-.2h.3v.2h.4l.2-.1h.3l.1.2.1.1h.6l.1-.1v-.3h.2l.1-.1h.6v-.1h.1v-.4l.1-.1h.3v.1l.3.2h.1l.2-.1h.8l.1-.2.1-.2.1-.2h.3v.2h.1l.2-.1h.1l.1-.2h.6v-.2l.1-.1h.2l.3.2h.7l.1-.2v-.1h.3v.2l.2.1.4.2h.3v-.4l.1-.2.1-.1h.2l.1-.4.2-.1h.2v-.6l-.1-.2v-.1l.5-.5v-.4h.5l.2-.2.2-.2v-.1l-.1-.1v-.2h.2l.2-.3h.1l.1-.1v-.2l-.1-.1h-.2v-.7l.2-.2.2-.2.1-.2.3-.1.2-.2.2-.3v-.1h.1l.1-.1v-.2h.1l.2-.2h.4l.2.1h.2l.3-.1.1-.2v-1h.2v-.1h.5l.3.3v.2l-.2.1v.5l.3-.2h.1l.1-.1v-.2h.1v-.4l.2-.2v-.9l.2-.1v-.1l.2-.1h.1l.3.3h.9v-.9l.1-.2.2-.1v-.1h.2l.2-.1v-.1l.1-.3v-.2l-.2-.1v-.1l-.1-.1h-.7v-.2l.2-.2v-.7h.5l.1.2.1.1.1.1h.2l.2.3h.1v-.4l.1-.1v-.2l.1-.2h.2l.1-.2h.1v.1l.3.2h.2v.3h.1v.4l-.1.1v.3h.1v.2l.2.1h.4l.1-.2.1-.1v-.2l-.1-.1v-.2l.1-.2v-.1l.1-.3h.9v-.1h.1v-.7h.8l.1.1.1.2.2.3h.4v-.1l.1-.2h.3v-.3h.3v-.1l.2-.1v-.6l.1-.1.2-.1h.1l.2-.1.1-.3.1-.2.2-.2v-.4l-.1-.1v-.9l.1-.1.1-.1h.1v-.1l.1-.1v-.8l-.1-.1v-.1l-.2-.1v-.5l.1-.1v-.7h-.2v-.6h.2v-.1h.4v-.1l.1-.2v-.1l-.3-.2v-.2h.2l.2-.1v-.2h-.1v-.4h.1l.1-.1.2-.3.5-.6 9.1-9h.2l.3.3.1.1.1.2h.1l.2.1h.2l.1.2h.1l.1.1v.2h.2l.1-.1h.2l.1-.2h.6v.2l.2.2h.1v.2h.6l.1.1v.2h.1v.2h.2v.1l.2.2-.1.1v.2h.4l.1.2h.2v.4l.2.1h.3l.1.2.1.1v.2l.1.1v.5h.2l-.1.1.2.2h.1v-.2h.8v-.2l.3-.1h.7l.1.1v.2h.2v.5l.3.2.1.3v.1h.2v.1h.1v.1l.1.3.2.2v.4l-.2.1v.1l-.1.3h-.5v.5l-.2.3v.1l-.1.2v.1l.1.1v.1l.1.1v.1h.1v.2l.1.1h.1v.1l.2.2v.4h-.3l-.1.1v.1l-.1.1v.1l-.1.3v.2h.2v.2h.4l.2.1.2.2h.2v.1l.2.1v.1h.2v.2l.3-.1.2-.2h.1l.3-.2.1.1.1.1v.2l.1.2.3.3h.1v.2l.1.1v.2l.2.2v.2h.1v.3h.2v.3l.2.1v.1l.1.1.1.1v.2l-.2.2-.1.2h-.2l-.1.2v.8h.1v.4h.2l-.1.2-.1.2v.1h.1v.1l.1.1v.1h.1v.1l.1.1.1.2v.7l-.2.1v.1l.1.2v.3h.1l.2.2v.1h.1v.2h.1l.1.2h.3l.1.1h.4v-.1l.4-.1h.2v.1h.2v.1h.4v.2l.1.1v.2l.2.1h.4v.3l.2.1h.9l.1.1h.2v.3h.2v.2h.2l.1.3h.6v.2h.2v.3l.2.2h.1l.1.1h.2l.1.2.1.1h.7l.2.1.2.2v.5l-.1.1v.3l.2.2h.1v.2h.2v.7h-.1v.1l.1.2h.1l.2.1v.2h.1v.1l-.2.1v.4l.3.1v.4h.1l.1.2v.5h.2l.2.2.1.3.2.5v.3l.2.4.1.1.1.3h.2v.3h-.1v.4l.1.1.2.1v.1l-.2.2v.3l-.1.1v.3l.1.1h.1v.8l-.2.2v.1h-.7v.1l-.1.1v.5h.2v.4h.2v.3h.2v.7l-.2.2.2.2v.5l.1.2v.3l.1.2v.1h.3v.1h-6.7v.3h-6.7l-4.9-.1h-3v1.1l-.1 2.4h-11v3.6h-5.5l-.3.3-.3.3-.2.1-.2.3-.2.2-.3.3-.1.1-.2.2-.4.3-.3.3v.2h-.2v.2h-.2l-.1.2h-.1v.1l-.2.3h-.1l-.3.3-2 1.8-.1.2-.2.1-.3.3-.2.2-.4.3v-.1l-.2-.2.1-.1h-.3l-.2.1h-.2l-.1.1h-.3v-.1h-.2v.2h-.1l-.1.1h-.6v.1h-.5l-.1.2-.1.2v.2h-4.7l-.8.1h-1.6v9.3l-.6.6-.6.6-.2.2-1.2 1v.1l-1 1-1.2 1-.2.2-.7.8-1.4 1.3-1 1h-.1l-4 3.9h-.2l-.1-.1v-.2h-.4v-.2l-.1-.2v-.5l-.2-.2v-.1h-.1v-.1h-.2l-.2-.1v-.4h-.1l-.1-.2v-.2h-.2l-.5-.1h-.4l-.1-.2-.3-.1h-.5l-.1.1-.1.1h-.3v-.4h-.2l-.1-.2h-.1v-.2h-.2l-.2-.2h-.3v-.1h-.1v-.1l-.1-.1-.1-.1v-.3h-.4v-.1l-.2-.2h-.2v-.1h-.3v-.1h-.2v-.2h-.2v.3l-.1-.1h-.2v-.5h-.4v-.2h-.1v-.2l-.1-.1h-.1l-.1-.2h-.4v-.1h-.2l-.1-.2h-.1v-.1l-.2-.1-.2-.1v-.1h-.1l-.1-.2-.1-.3v-.4h.2l-.1-.2-.1-.1-.1-.1v-.1h-.2l-.2-.1v.1h-.1v.2h-.3v-.1h-.2l-.2-.2h-.2l-.2-.1v-.5h-.1l-.1-.1v-.5l-.2-.1-.1-.2h-.2l.1-.1v-.5l-.1-.2v-.2h-.1v-.1h.2v-.4h.2l.2.1h.1v-.4h.2v-.4l.1-.1v-.2h.2l.3-.3h-.1v-.2l-.1-.1-.2-.2v-.1l-.2-.1-.2-.1v-.3h-.1v-.1h-.2l-.1-.2h-.2v-.1l-.1-.2h-.2l-.1-.1v-.4h.2v-.4h-.1l-.1-.1v-.1l.1-.1v-.2l.1-.2-.1-.1h-.1l-.1-.1v-.4l.2-.1v-.2l.1-.1h.1v-.2h.1l.1-.2h.2v-.1h.4l.1-.1h.4l.1.1h.2l.1-.2v.1h.2l.1-.1v-.1h.3l.1-.2h.2l-.1-.2v-6.6h-.2l-3.9-3.8-1.1-1.2-3.6-3.6-.6-.6h-.1l-1.5-1.6.3-.3h.1l1-1.1.2-.1 3.3-3.4 2.3-2.4.8-.8 1-1h2.3v-1.5l.1-.1v-.1h-.1l-.1-.1v-.1h-.2v-.1l2-2Z" name="Fresno" fips="06019" />
    <path id="yuba-county" class="county missing" d="m131.3 144.6.1-.1v-.3l.1-.2v-.1l.2-.2v-.1h.3v.3h.1l.3.2h.1l.1-.2h.4l.1.1h.2v.2h.2l.1-.1h.4v-.2h.2v-.1h.2l.2-.2h1.1v.2l.1-.2h.5l-.1-.1v-.2l.2-.2.1-.2h.3l.1.2.2-.2h.2v.1h.2l.2-.1v-.1h.5l.2-.1h.3v-.4h.1l.1-.1.3-.3h.2v-.2l.2-.1h.2v-.1h.1v-.5h.1l.1-.2v-.1l.1-.2v-.2l.1-.1v-.7l.3-.2v-.1h.1v-.1h.2v-.2h.2l.1-.2v-.1l-.2-.1v-.2h-.1v-.7h.2v-.5h.2v-.2h.3v-.3h.3v-.5h.2v-.4h.2v-1h.9v.3h1.3v-.6h1.9v.3h.9v-.3h.3V133h.3v-.3h.8v-.2h.4v-.8h.9l.1-.6.8-.6v-.1l1.5-1.2-.1.9-.2 1-.2 1.7h-.3v.2h-.1l-.1.2h-.2l-.1.1-.2.2v.1h-.1l-.1.2.1.3.1.2v.2l.1.2h.2v.1h.3v.7l.3 2.9v.8l.2 1-.1.2-.1-.1v-.1l-.2-.1h-.1v.1l-.1.1-.1.1h-.2v-.3h-.4l-.1.1h-.8v.3h-.5v.2h-.4l-.1.1h-.4v.2l-.3.1v.4l-.2.1v.1l-.2.2.1.1v.1h-.4v.3h-.1v.5h-.2v-.2h-.6v.3h-.4l-.1.1-.1.3-.2.1v.5l.1.2v.1l-.2.2v.1h-.1l-.2.1v.3l-.1.2h-.9l-.2.2-.4.1-.1.1v.4l.2.3v.2h-.2v.1h-.1v.6l-.2.2v.1l-.1.1-.1 1.2v7.5l-.1-.1h-.2v-.1l-.1-.1v-.2l-.3-.1-.1-.2h-.4l-.2.1v.2h-.2l-.2.1-.1.2h-.3l-.1.2h-.2l-.2.1h-.3l-.2.2-.1.3h-.3v.2h-.2v.2h-.1l-.1.2h-.1l-.2.2v.1h-.3v.1h-.3l-.2.1h-.6l-.3-.1h-.3v.1l-.4.1h-.5v.2l-.1.2h-.5l-.6.5h-.6v.1l-.4.7h-.2l-.3.4v.3l-.1.3-.1.3v.3-.1h-.2v-2l-.2-.2v-1.3l.2-.3v-.2h-.5l-.2-.2.2-.2v-.3h-.1v-.1h-.1l-.2-.3v-.5l-.1-.6v-.1l.2-.2.1-.2.1-.3.2-.3.2-.3v-.5h-.5v-.3l-.1-.1v-.2l.2-.3v-.3l-.1-.3h-.1l-.1-.2v-.6l-.1-.2-.1-.3v-.5l-.1-.1v-.7l-.3-.1v-.2l-.2-.2h.3v-.3h.2v-.7h-.4v-.3l-.2-.2-.1-.3v-.7h.1l.2.1h.1l.1-.1v-.1l-.3-.1v-.3h.4v-.1l-.2-.1v-.4l-.1-.2v-.1h.2v-.2Z" name="Yuba" fips="06115" />
    <path id="el-dorado-county" class="county missing" d="M147.8 170.4h.3v-.9l.2-.1.2-.6v-.2l.1-.2h.1v-.6l.2-.1v-.3l.3-.3v-.7l.1-.2v-.5h.5v-.3l-.1-.2v-.2h.1l.1-.1.2-.2v-.1h.5v-.1l.1-.3v-.2l-.1-.2v-.1h.2v-.7l-.1-.1-.1-.1v-.1l.4-.1.1-.1h.1v-.1l-.1-.1-.2-.2v-.1l.1-.2h.2v-.4l.1-.1h.1l.1.1h.3l.1-.2h.6v-.1h.3l.2-.2v-.1h.2v-.1h.4v-.1h.4l.1-.1v-.1l.2-.1h.4v.1h.2v-1.1h.4l.2.1.2.2.5.1.2-.1.2-.1h.4l.2.1h.1l.1.1.2.1.1-.2.2-.1v-.2l-.2-.2v-.1l.1-.1.1-.1.1-.1h.2v.2h.2v-.2l.1-.2v-.3l.2-.2h.2l.1-.1v-.2h.4l.2-.1v.2h.3v-.1h.2l.1-.1.1-.1h.2v-.1h.1l.2-.1h.1-.1v.4h.2l-.1-.1v-.1h.4v-.1h.2v.2h.1v.1h.7v.3l.2.2v.2h.2v.1h.4l.2-.1.2-.2h.1v.4l.2.2h-.1v.4l.2.1v.1h.1v.2h.2l.1.2h.2v.2h.2v.1h.2v.1h1.1v.2l.1.1v.1h.4l.1.2h.2l.1.1v.3l.2.1v.1h.2v.2h.4l.1-.1h.1v-.2h.4v-.3h.4v-.1h.1l.1-.1h.5v-.1h.3v-.5h.3l.1-.1v-.2l.2-.1v-.2l.1-.2h.1l.2-.1h.1v-.3h.2v-.4h.2v-.4h.3v-.9l.2-.1v-.4l.1-.1v-.1l.1-.1v-.1h2.2l1.7.2h2.3v-.1h.7v-.3h1.9v-.3h.6v-.3h.4v-.7h.4v-.3h4.8v3l1.2 1 .5.5h.1l.3.3h.1v.1l.8.7.3.3v.2l.2.2h.1v.2h.3v.3l.2.1v.5l.1.2v.1h-.1v.2l.1.2v.3h-.3v.1l.1.1h.2v.5l-.3.2-.1.2h-.5v1h-.2v.1h-.3v.5h-.2l-.2.3-.1.2-.1.2h-.1v.7h-.2v.2h-.2v.1h-.2l-.1.1h-.1l-1.3 1.2-1 .9-1.3 1v.1l-.2.1h-.2.1v-.3h-.7v.2h-.4l-.2.1v.2h-.2v.6l.2.1v.3l-.2.2v.2h-.2v.1l-.2.1v.7l-.1.2h-.4v.1h-.1v.1l-.2.1h-1.2l-.2.2v.1h-.2l-.3-.1v.2l-.2.1-.1.1v.1l-.2.2v.2l.1.2-.2.1v.4l-.1.2h-.4l-.2.2-.3.1-.1.1-.1.2v.3l-.2.1-.1.3h-.9v.3l-.2.1-.2.1h-.2v.1h-.3l-.2-.1h-.7l-.3.1h-.7v.2h-.5v.1h-.2l-.2.2h-.4l-.2.1h-.1l-.1.2h-.1l-.2-.1h-.3l-.2.2h-.4l-.3.1h-.4l-.1.1h-.2l-.1.1v.1l-.2.1h-.8v.1h-1.2l-.1.1h-.2l-.1.1-.2.1h-1.7l-.1-.1h-.2l-.1-.1-.2-.1h-.2l-.2-.1v-.1h-.1l-.1-.1h-.4v-.2l-.1-.1-.1-.1h-.3l-.1-.2h-.2v-.1h-.1v-.1h-.1l-.2-.1-.2-.1-.2-.3h-.8v-.2h-.2l-.2-.1h-.9v.1h-.1l-.1-.1h-.2v-.2h-.5v-.1h-.2v.1h-.6v.4h-.1v-.1l-.2-.1h-.1l-.1.2h-.2v.3h-.2l-.1.2v.2h-.2l-.2-.1v-.2l-.1.1-.2.1v.2h.1v.3h-.4l-.1-.1h-.1l-.2-.1-.2.3-.1.2h-.4v.1l-.2.1-.1-.1h-.2v-.5l-.1-.2h-.2v.2l-.3.1h-.5l-.2.2h-.5l-.1.1h-.1l-.2-.2h-.3v.2l-.1.1h-.1l-.2.2h-.3l-.4-1.4-.4-1.3-.6-1.7v-.3l-.3-.8-.2-.6-.2-.4-.2-.7-.3-.7-.2-.5-.3-.8v.1l-.2.2-.1.1v.1h-.2v-.2h-.2Z" name="El Dorado" fips="06017" />
    <path id="del-norte-county" class="county missing" d="M42.4 24.6h.1-.1Zm24-2.3v.3H66v.1l-.2.1-.1.1-.1.1.1.2v.5l.1.3v.7h-.1l-.2.2v.2l-.1.1v.2l-.3.2v.9l-.1.2h-.1l-.2.1h-1l-.2.2v.3l-.1.2h-.1v.4H63l-.3-.2v-.2h-.6l-.1.1-.1.2h-.1l-.1.2h.1v.5h-.1v.4l-.2.2h-.1v.2h-.2v.2l-.2.1v.5l-.2-.1h-.4l-.2.1v.1l-.3.1v.5l.2.1h.1v.3h.2v.4h.4v.1h.2l.1.2v.2H61v.2l-.3.1-.1.1v.4l.1.2v.7l.2.3v.4l.1.1v.1h.1l.1.1h.1v.2h.1v.2l.1.2v.4h-.1l-.2.2v.4l.2.1v.1h-.1l-.1.1v.1l-.2.2v.1l-.2.1-.1.2-.1.1v.1l-.1.1v.4h.1v.8l.2.2v.2h-.6v.4H60l-.1.1v.2h-.2v.4h-.2v.3h-.1v.3l.1.2h.1V41h.4l.1.2h.1l.3-.2h.2v.4h-.2l-.1.2.1.2v.2h.2l-.1.2h-.2v.4l-.2.1v.2h.2v.2l.1.1.1.2h.5l.2.1h.4v.1l.1.2v.2l.2.3-.1.4v.2h.2v.6l.1.2v.5l.1.1h.1v.4l.2.2.1.2h.2l.2.1v.2H63v.2l.1.2v.2h-.2v.3l-.1.1v.1l-.3.2h-.2l-.2.2-.2.2.1.1.1.1.1.3v.4l-.3.1-.2.1v.4l-.2.1v.2h-3.8V47H47.6v-.3l-.2-1h-.1v-.4l-.2-.4v-1.7H47l-.2-.2h-.1v-.2l-.3-.6v-.4l.1-.3-.2-.5v-.3L46 40v-.6l-.1-.2V39l-.3-.3v-.1l-.3-.3v-.5l-.1-.2V37l-.1-.1v-1.1l-.2-.3-.2-.5-.4-.6-.2-.1-.2-.1-.2.2h-.1l-.2.2h-.1l-.2-.4-.1-.1h-.2l-.2-.2-.3-.2v-.1l-.4-.3-.2-.3h-.2l-.3-.3v-.4l.2-.1.2-.3.2-.5.2-.7.2-.4.2-.8.4-2 .1-1.4V25h-.1v-.5l.1-.4v-.8l-.1-.3v-.5l3 .1h9.8l.5.1h5.5l.9-.2h3.9Z" name="Del Norte" fips="06015" />
    <path id="contra-costa-county" class="county missing" d="M109.2 198.9h.1l.7-.2h.5l.1.1h.1l.4.1h.4l.2.1.4.1.3.3.2.4.1.1.3.1h1.2v-.2h.1l.7-.3.2-.1.2-.1h.1l.2-.1.4-.3.3-.1h.8l.3.1.3-.1h.1l1-.2h.5l.3.2.3.1.1.2.2.1.3.1h.1l.1.1h.4l.4.1h.8l.1-.1.2-.1.2-.2v-.1l.2-.2v-.2h.3l.3.3.2.3v.6l.2.2v.1h.1l.1.2h.2l.2.2h.6l.2.1h.8l.2-.1h.5l.2-.1.2-.1h.2l.2-.3.3-.2h.2l.3-.2.1-.1.3-.3.2-.2.2-.2v-1.2l.2-.2h.4l.3.1h.2v.1l.3.1h.2l.1-.5h1.5l.2.1v.2l.1.3v.3l.2.2-.2.1h-.1v.4l-.1.2v1.1h.1v-.4h.4v.4h.2v.4l.2.2.1.1v.1h-.2v-.1h-.3v.1h.2v.1h-.2l-.2.1v.2h.2v.2h-.3l.1.1v.4h-.1v.3l.3.1v.1h-.3v.1l.2.1v.3l.2.2h.1v.2h-.4v.1h.3v.2h-.1v.2h.1l.2-.1h.1-.2v.4l.2.2v.5h-.2v.5l-.3.2v.1h.1v.1l.1.1v.3h-.3v.4l-.1.4v.2h.2v.2h-.1l-.2.1v.1h.5l.1.2v-.2h.3l.2.1h.3v.4-.1h.2v.1h-.1v.4l-.1.2h-.4l-.1.2v.4l-.1.1h-.1l-.7.3-1.4.4h-.1l-.4.2-1.1.3h-.2l-.9.3-1.4.5h-.4l-1 .4-1.1.4-.7.1-.3.2h-.3l-.8.3h-.3l-1 .4h-.2l-.3.1h-.2l-.2.1h-.1v.1h-.3l-.2.2h-.2l-.3-.3-.1-.1-.3-.1h-.1l-.2-.1-.2-.2h-.2l-.4-.4v-.3l.5-.4v-.1l-.2-.2-.3-.5h-.2l-.1-.1-.3-.2-.5-.4h-.6l-1.5-.2h-.3l-.8-.1-.2-.2-.2-.2-.1-.1-.2-.1-.3.2-.2-.1h-.1l-.2-.2h-.1v-.7h-.2v-.2h-.2v-.1l-.1-.2-.2-.2h-.1l-.1-.1v-.1l-.1-.1-.2-.2v-.1l.1-.1v-.2h-.2v-.2l-.3-.2h-.3l-.3-.1v-.3l-.2-.1v-.2h-.2v-.1l-.1-.1h-.3v-.1h-.2v.2h-.3l-.1.1h-.9l-.1.1h-.2l.1-.4-.3-.1h-1l-.1.1h-.5l-.3-.1h-.2l.2-.6h-.2v-.2l-.2-.2h-.5v-.6l-.4-.1.2-.2v-.2h-.3l-.1-.3v-.1h.7v.2l.1.1.2.1.3-.2-.3-.2v-.1l.7-.2.5-.3.2-.5v-.2l-.2-.2v-.6h.1l.1.2h.3l.5.2.2.1h.1l.2-.2.3-.2h.5l.2-.2.2-.3h.2l.2-.3v-.3h.1l.1-.2h.2v-.8h-.1Z" name="Contra Costa" fips="06013" />
    <path id="colusa-county" class="county missing" d="M93 140.7h18.9l2-.1v-1.3h4.3v.3l.1.1.1.1v.3l-.1.2v.3h-.1 4.1v.2l.2.2v.2h-.1v.1h-.1v.2l-.1.1v.2h-.2v.7h.1v.2l-.1.2-.2.2v.7h-.1v.6h-.1l-.1.2h-.1v.3h-.1l-.1.2v.4l-.2.1v.2h-.2l-.1.1-.2.3v.3h-.1v.5l-.1.1.1.2v.2l.2.2v.2h.1v.4h.1v.2l.1.3v.2l-.2.1v.2l-.1.2-.2.1v.2l.1.1.1.2v.1l.2.4v.1l.2.1.1.1.2.1v.5h-.4l-.2-.1-.1.1v.3l.2.2.3.1v.3h.5v.2l-.1.1h.2l.1.2v.3l.2.1v.2h.1v.5l.2.1-.1.1v.1l.1.3h.4l.2.2h.5l.2-.2h.1l.2.3h.2l-.1.5v.4l.2.2h.1v.3h.2v.3l.1.2v.1l-.1.3v.1l.2.2h.4v.1l.2.1.2.2v.1l-.2.2h-.5l-.1.2v.4l-.2.1-.2.2h-.1v.5h-.2v.2l.1.1v.3h.2v.2l-.1.2v.1l-.1.2h-13.4l-.7.1h-3.1v-.1h-.4l-.2-.3h-.2v-.1l-.2-.1h-.1l-.1-.1h-.1v-.2h-.2l-.2-.3-.2-.1v-.1h-.5l-.2-.3v-.4l-.1-.2h-.1v-.2h-.1v-.4l.1-.2.1-.1v-.4h.1v-.2l-.1-.2v-.2h-.5l-.2-.1-.2-.1-.3-.4h-.2v-.1l-.1-.2h-.1l-.2-.1v-.2l-.1-.1h-.1l-.3-.2h-.4v-.2l.1-.1v-.2h.2v-.2h-.1v-.2l-.1-.2h.1v-1l-.2-.1v-.6h-.1l-.2-.3v-.1l.2-.1v-.7l.1.1h.5l.1-.2v-.2h-.1v-.4l-.1-.2v-.1h.1l.1-.3v-.1h-.3l-.1-.1h-.2v-.4l-.2-.3h-.3l-.1-.2-.2-.2v-.4h-.8v.1h-.6l-.2.1h-.4v-.2h-.1l-.2-.1h-.2l-.1-.1h-.5v-.1h-.2v-.2h-1l-.2.2v.1H96l-.4-.1v-.1l-.2-.1v-.1H95v-.2h.1l-.1-.3v-.2l-.2-.1-.2-.3h-.2l-.2-.3H94v-.2h-.2v-.2h-.2v-.1l-.1-.2v-.1H93l-.2-.2h-.1l-.1-.2h-.1l-.1-.1v-.4l-.2-.2-.1-.1v-.2H92v-.3h-.3v-.2l.1-.1v-.3h.2v-.3l.1-.2v-.3h.1l.2-.1h.1v-.1l.1-.1v-.2h.2v-.6h-.2v-.1l-.1-.1v-.1l-.2-.1h-.2l-.1.1h-.2l-.1-.1v-.1h-.2v-.1h-.1H93Z" name="Colusa" fips="06011" />
    <path id="sonoma-county" class="county missing" d="m65.8 167.9.2.1.1.1.2.2v-.2l.1-.2h.4v-.3h.2v-.2h4.5v-1.2H76l1-.1h2.6v-1.4h.6l1.3.1v-.6h8.9v.1h.1v.2l.2.1v.2h.5v.1h.1l.1.2.2.2h.2l.2.2.1.1v.1l.2.1H92l.1.1.2.1v.1l.2.1h.2v.8l.1.1v.2h.2l.1.1v.3h.2v.2h.1l.1.2v.3h.1v.1h.1l.2.1.1.1v.8h.2v.2h.2v.4l.1.1v.1l.1.1h.2l.1.1h.2l.1.1.2-.1h.1l.1.1h.5l.1.1v.2l.2.1v.4l.1.2.1.2.1.1.1.1v.4l.2.1v.7l-.2.1v.1l-.2.3v.5h.1v.4l-.1.1h-.1l-.1.1v.2l-.2.1v.4h.1v.2l.3.2v.2h.1v.5h.2l.1.2v.2l.3.1h.5l.2.1.3.2h.2v.2l.1.2h.2v.4l.1.1h.1v.2h.5v.2h.2v.2h.1v.2h-.2l.1.2h.1v.2h.4l-.1.2h-.2v.5h.2v.2l.2.1v.5h.7v.5h.1l.1.1h.5l.1.1.2.2v.2l-.2.2v.4l-.2-.2-.1.2-.1.3.7.6v.2h.1l.2.2v.4l.3.2.2.1.2.2-.1.2h-.1l-.2.2v.2h.1l.1.2.2.1h.3v.2h.2l.1.2.1.2.2.3h.1l.1.1.1.1v.7h.4v.3h.1l.2.2v.2h-.2v.1h-.1v.9l.1.3.1.1h.2v.6l.1.2h.1l.2.1v.2h.1v.1h.2l.3.6v.9l.1.1.1.1v.2h.1v.2h-.1l-.1-.1h-.1v.7h-.3v1l-.1.1h-.1l-.3-.1h-.9v.2l.3.6v.1l-.7.5-.7.5h-.5l-1 .1-.2.1h-.4l-.1-.2h-.1v-.3l-.1-.2v-.2l-.2-.1v-.2l-.2-.2h-.2l-.1-.2-.2-.1-.1-.2-.1-.1h-.5v-.5h.1l.1-.2H99v-.2l-.2-.1.1-.1v-.2l-.1-.2h-.1v.2h-.2v-.1h-.1v-.1h-.6v.2l-.2.1H97l-.2.1h-.1l-.3-.1h-.1l-.2-.1-.2-.2h-.7v-.2l-.3-.1h-.4l-.1-.2H94v-.2l-.2-.1h-.6l-.3-.3-1.3-1.1-.5-.4v-.1l-.4-.3-.6-.5-.5-.4-.3-.3-.8-.6-.8-.7v-.1h-.4l.1-.1v-.1H87v.1h-.2v.2h.2v.2h-.2v-.2h-.4v.2-.2h-.1l-.1.1h-.4l-.1-.1-.2-.1h-.2l-.1.2h-.4l-.1.1h-.2v.1h-.2v.4h-.1l-.1.1v.1H84l-.7-.7-.5-.1h-.2l-.2.1-.1.2v.3h-.2l-.1-.1-.4-.7h-.1v-.2l.3-.5v-1.1l-.2-.4-.2-.2v-.2l-.1-.3-.1-.3-.3-.1v-.2l-.1-.3-.2-.4-.2-.3h-.1l-.1-.1v-.2l-.2-.1v-.3l-.1-.2h-.2.1v-.3l-.3-.3h-.3v-.2l-.4-.2v-.1h-.2l-.2-.3-.6-.5-.5-.3v-.1H77l-.3-.2h-.3l-.2-.2v-.1l-.2-.2h-.6v-.2h-.1l-.3-.4v-.3h-.4v-.2h-.2v-.2h-.2l-.3-.2-.3-.2v-.1l-.1-.2-.2-.1-.2-.1v-.1l-.3-.2-.3-.2v-.5l-.1-.3-.2-.3h-.4v-.2h-.3l-.1-.3h.1v-.2l-.2-.1-.2-.3-.3-.4v-.2h-.2v-.1l-.2-.4v-.1l-.2-.2v-.2l-.1-.2-.2-.2-.2-.3h-.1l-.4-.3.1-.1v-.2l-.1-.1v-.2l-.2-.1v-.1h-.1l-.1-.2-.2-.1v-.2l-.3-.3-.2-.1h-.2l-.2-.2-.1-.1-.3-.2v-.2H67l-.3-.2h-.2l-.1-.2v-.1H66v-.4l-.2-.2v-.2Z" name="Sonoma" fips="06097" />
    <path id="mono-county" class="county missing" d="M199.4 187.2v-.2h.1l.1-.1v-.4l.2-.2-.1-.2h-.2.1l.2-.3.2-.2h.2l.3-.1-.2-.3v-.2l-.2-.1v-.3h-.1v-.4l.2-.1h.1l.2-.2v-.1h.4v.2h.2l.2.1h.1l.1-.1.2-.1.2-.1.1-.2v-1l-.1-.2.1-.1.1-.1v-.2l.2-.2v-.9l.2-.1.1-.1v-.2h.1v-.8h-.1l-.3-.1-.1-.2v-.2l.1-.1v-.2l-.2-.2v-.2h-.1v-.2l-.1-.1v-.2l-.1-.2h-.1v-.1l-.2-.1v-.2h-.2v-.7h-.1v-.4l-.1-.2h-.1v-.4l-.1-.2-.4-.1-.1-.1v-.2h-.4v-1h.1v-1l.1-.1v-.7h.4v-.1l.2-.1v-.1l.1-.1v-.2h.1v-.1l.1-.2v-.2h.1v-.2l.2-.3h.1v-.1l-.1-.2-.1-.1 1.1 1 .2.1v.1h.2v.1l1 1 .6.5 1.4 1.2h.1l2.6 2.4.2.2 1.2 1 .2.2 1.7 1.6 1 .8.5.5 2.7 2.4 1 1 1 .8.5.5 1.8 1.6 1 1 1.8 1.4 1 .9 2.1 2 2.1 1.9.9.8.9.8 1 1 3.3 2.9 1.7 1.5 2.4 2.2 2.5 2.3 6 5.5 5.2 4.7 1 1 .7.6.4.4 2 1.7.2.2 2.4 2.4 1 .8.3.3 1.2 1H258l-14.3.2H229l-.1-.2v-.1l-.3-.2v-.2l-.1-.1v-.2h-.2v-.1h-.7l-.3.1v.1l-.3.1h-.4l-.1.1v.1l-.3-.1v-.4l-.1-.2v-.4l-.2-.2v-.1h-.4l-.1-.2v-.2h-.1v-.2h-.2v-.2h-.4l-.1-.2v-.2h-.1l-.1-.1v-.1l-.2-.1v-.3h-.6v-.1h-.2l-.1-.3v-.1h-.2v-.1h-.5v.2h-.5l-.2-.2-.1-.2h-.5v-.1h-.1v-.2h-.2l-.3-.3h-.1v-.1l-.2-.2v-.3h-.1l-.2-.3v-.7h.1v-.4l-.1-.1h-.1l-.2-.2-.2-.2-.1-.2h-.1v-.3h-.1v-.1l-.1-.2v-.8l-.1-.1v-.2l-.2-.1v-.1h-.1v-.2h-.2l-.2-.1v-.2l-.2-.1h-.1l-.2-.2v-.2h-.1v-.2l-.2-.1v-.2l-.3-.2v-.1h-.2v-.1h-.4v-.1h-.4l-.2.1h-.3v-.2h-1.4v.2l-.2.3-.2.2v.1l-.1.2h-.3v-.1h-.2v-.2l-.2-.1-.1-.1-.2-.1h-.2v-.1h-.1v.2h-.2v-.3h-.1l-.1-.2h-.2l.2-.2h.1l.1-.1h.1v-.6h.2l.1-.2v-.2l.1-.1h.2v-.2h.3v-.1l.3-.1v-.2l.1-.2.1-.1.3-.1v-.1l.1-.1v-.6h-.1l-.2-.2-.2-.1v-.2l.1-.1.3-.1v-.5l.1-.2h.2v-.1l-.2-.1h-.4V207l.2-.2v-.1l.1-.2h.2v-.1l-.2-.1v-.2h-.2v-.3h-.3l-.1-.1-.1-.1-.2-.2-.2-.1h-.9v-.6h-.1v-.1h-.1l-.2-.1-.1-.1h-.3l-.1-.2h-.1v-.2l-.2-.1h-.1l-.2-.1v-.2h-.2v-.6h-.1l-.2-.2v-.2l.1-.1v-.1l.2-.1-.1-.1v-.4l.2-.2v-.5l.1-.2v-.3l.1-.2v-.4h-.1v-.1h-.2l.1-.2v-.2h-.2l-.1-.1-.1-.2v-.4l-.2-.1v-.1h-.2v-.2l-.2-.1-.1-.3v-.2h-.7v-.2h-.2l-.2-.1h-.2v-.2l-.2-.1h-.1l-.1-.2-.1-.2h-1v-.2l-.1-.2h-.1l-.1.3h-.1v.2h-.1v.4h-.2v.1l-.1-.2h-.5v-.3l.1-.1.1-.1h-.2l-.1-.2h-.2v-.7h-.2v-.1h-.4v-.6l-.1-.1-.2-.1v-.3l-.1-.2h-.1v.3h-.1v.8h-.3l-.2-.1h-.1v-.1l-.3-.1h-.5v-.5h-.9l-.2-.3v-.7l-.1-.2h-.5l-.3-.2-.2-.1h-.3l-.2-.2-.2-.2v-.2h.2v-1.1h.2l.2-.1h.2l.1-.1v-.2l-.1-.1-.2-.1v-.1l-.1-.2-.1-.1v-.1l.1-.1.2-.1v-.1l-.2-.1-.3-.2h-.1v-.2h-.1l-.2-.1v-.1h-.2v-.1l-.2-.2v-.2h.1l.1-.1v-1.4l.1-.1Z" name="Mono" fips="06051" />
    <path id="solano-county" class="county missing" d="m114.9 179 .2.1h.1v-.1h1.2v-.1h.1l.1.2.2.2h.2v.2l.1.2v.1l.3.1h.1l.2.1v.1h.4l.2-.2.2-.2h.2l.2-.2.2-.2.2-.2.1-.1.1-.2.2-.2h.3l.2-.1.1-.1.1-.2h.3l.1.1h1.1l.2-.1.1-.2h1.4l.2.1.1.1.2.1h.3l.1.1.3.1h.8l.2.1v-.1l.2-.2h.3v.2h.4v-.2h.5l.2-.3h.5v.1h.2l.2-.1h.1v.2h.1v.1l.2.2h.2v9.2h1l.4.1h2l-.1.1v.4l-.2.2v.6l.1.2v.1l-.1.3v.2l.1.3v1.6l-.1.3-.1.1-.2.3v.4l-.3.1h-.5l-.1.2h-.1l-.1.1h-.1l-.2.2h-.3l-.1.2v.1h-.1l-.1.2-.2.2-.1.2h-.2v.7l-.1.2-.1.4-.1.3-.2.3-.1.2-.1.1v1l-.1.1v.1l-.2.1h-.7l-.2-.1-.3.1-.2.2-.4.2-1 .6-.2.1h-.2l-.2-.2-.4-.1-.1-.1-.1-.2-.2-.1h-.3l-.1.1h-.2l-.1.1v.2l-.1.2-.1.2-.1.1-.1.1-.3.2h-.8l-.2.1h-.9v-.1h-.2l-.4-.2v-.1l-.2-.2h-.3l-.3-.3h-.5l-1 .1h-.2l-.3.2h-.7l-.3-.1h-.3l-.3.3h-.1l-.2.1h-.1l-.2.1-.2.1-.6.3v.1h-.1l-.1.1h-.2l-.4.2h-.6l-.2-.1-.1-.1v-.1l-.3-.4-.3-.3h-.4l-.1-.2h-.9l-.2-.1-.5-.1-.7.2h-.1l-.2-.3-.3-.7-.7-1-.5-.3-1-.6-.3-.2-.2-.1-.7-.3-.4-.2h-.1l-.3-.5h7.3-.2v-.2l.1-.1v-.3h-.3v-.2h-.2l-.1-.3v-.4h.2l-.1-.2.2-.2v-.5l.1-.2h.2v-.4h.1v-.5h-.1l-.2-.4-.1-.2h-.1l-.2-.2v-.1h.2l.1.1h.4v-.1l.1-.2h-.1l-.2-.1h-.4l-.1-.2v-.1l.1-.3h.9l-.1-.2-.1-.2h-.1v-.1h-.1v-.3h-.2l.1-.3.1-.1-.1-.2v-.2l-.2-.2v-.1h5-.1l-.1-.1v-.2h.2v-.5l-.2-.3v-.4l-.2-.4-.1-.2-.3-.7-.1-.2-.2-.2-.2-.2-.3-.4v-.2l-.1-.1h-.1v-.2h-.1v-.2l-.2-.2-.1-.3v-.8l.2-.2.2-1h.1l.1-.5.1-.1v-1Z" name="Solano" fips="06095" />
    <path id="siskiyou-county" class="county missing" d="M66.4 22.3h2.5l3.4.1h.1l3.3-.2h.5l1.6-.1 1.4-.1h1.4l.8.1h.6l.6.1h14.7l2.3-.2h13.9l3.3.1h.4l2.7.1h5.3l3.7.1h.4l2.8.1h2.8l2.5.1v2.1h-.4v8h.3v16l.1 6.3v5h-23.3l-.7-.2h-1.7l-10.4.1v-.1l.2-.3-.1-.1-.2-.2-.2-.1v-.1h-.3v-.3l-.2-.2.1-.2.2-.2v-.4l-.1-.2v-.2l.3-.2v-.1l-.1-.2-.1-.2v-1.3h.1V55h.3v-.1l.1-.2V54h.2v-.1l.2-.1.2-.2h.1l-.1-.1-.1-.1h-.1l-.2-.2-.1-.1h-.2v-.7h-.7l-.2.1h-.3l-.1-.2v-.2l-.1-.2h-.2v-.2l-.3-.2H99l-.1-.1h-.1v.1l-.3.1v.1l-.1.1v.2l-.1.2v.2h.1l.1.2v.2l-.2.1v.3l-.1.1h-.3l-.2-.1H97V53h-.2l-.4.2h-.1v1l-.2.2v.4h-.7l-.2.2h-.1v.3l-.2.1-.1-.2-.4.2-.2.1H94l-.1.2v.1l-.2.1v.2h-.1v.9h-.1l-.2.1H93l-.1.2h-.5l-.2.1v.1l-.3.2h-.1v.4l-.1.1v.1l-.2.1v.2h-.3l-.1.1v.2l-.2.1h-.3l-.2-.2-.3-.1-.4.2-.1.2h-.7V59h-1.1l-.2.2h-.1l-.2.1v.2H87v.3h-.4v.2l-.1.1H86l-.2-.3-.1.1h-.1l-.1.1v.5l.2.1v1h-.1v.1l-.2.2v.5l.1.2-.1.2h-.1v.2l-.2.2v.4l.1.1v.7l.2.1.3.2.2.1.2.2h.4l.3-.1v.4l.2.2v.2l.1.2v.1l.2.1v.3l.2.2v.1h.1v.3l-.1.1v.5l-.1.2H87v.5l-.1.1h-.5l-.1.1h-.2l-.2-.1-.1-.2-.1-.3h-.1l-.1-.1v-.1h-.4l-.4-.2h-.5l-.3.1v.1l-.4.2h-.7v-.3l-.2-.1v-.8l-.1-.2v-.1h-.2V66H82l-.2-.2h-.2l-.2-.1v-.1h-.3l-.1-.1h-.2l-.2-.2h-.1v-.1h-.1V65l-.1-.1v-.2h-.7l-.1-.1H79v.1h-1.5l-.2.1h-.8l-.1-.1h-.7v-.3l-.1-.2-.2-.1-.1-.1v-.2l-.1-.2v-.3L75 63l-.2-.2v-.2h-.4v-.2l-.1-.2-.1-.1-.2-.2v-.1l-.3-.2h-.2l-.2.2H73v-.3l-.1-.1v-.1l-.2-.2h-.3l-.1-.2-.1-.1h-.5v.1l-.3.2v.1H71V61h-.1l-.2-.1v-.5l-.2-.2h-.2v-.1l-.1-.2H70v-.5l-.2-.2h-.1l-.1-.2h-.1v-.2l-.1-.2h-.2v-.7l-.2-.1-.3-.2-.1-.2V57h.3v-1.4h-.2l-.2-.2-.2-.1V55h.2v-.5l-.2-.1v-.7l-.1-.1H68l-.1-.3h-.1v-.7l-.2-.4V52l.1-.2v-.2l.2-.2-.1-.2h-.2v-.1l-.1-.2h-.3l-.2-.1v-.2h-5.5l.1-.2v-.3h.1l.2-.2.2-.1v-.2h.1v-.5L62 49l-.1-.1.2-.2.2-.2h.2l.3-.2v-.2l.2-.3v-.1l.1-.1V47h-.3v-.2h-.1l-.2-.3v-.3h-.1l-.1-.1v-.7l-.1-.1V45l-.2-.1v-.5h.1v-.1l-.2-.3v-.4h-.4l-.2-.1h-.2v-.2h-.5V43h-.1v-.2h-.2v-.1l.2-.2v-.3l.2-.1v-.4l-.2-.1v-.2h.2l.1-.1V41h-.2l-.3.2-.1-.1V41h-.5v.1l-.2-.1v-.5h.2V40l.2-.1v-.2h.1v-.1l.1-.1.1-.1v-.2l.2-.1h.4V39l-.2-.3V38l-.1-.3v-.4l.1-.1.2-.2h.2v-.2l.2-.2v-.2h.2l-.2-.2v-.4l.1-.2h.1l.1-.2V35l-.1-.1h-.1v-.2H61v-.1l-.2-.2V34l-.1-.3V33l-.2-.2v-.4l.4-.1V32l.1-.2-.1-.1h-.2v-.2h-.2V31h-.1v-.2l-.2-.1-.2-.1v-.5h.2l.1-.2h.4v-.1h.4v-.4h.1l.1-.2.1-.1V29h.2l.2-.1V28h.2l-.1-.1h-.1v-.2h.2v-.2l.1-.1h.6l.1.2.2.1h.3l.1-.1v-.2l.1-.1.1-.2V27l.1-.1v-.2h.4l.2.1h.7v-.1l.1-.2.2-.2v-.7l.1-.2v-.2h.2V25l.2-.3.1-.3v-1h-.1v-.2l-.1-.1v-.2l.2-.1h.2l.1-.1.2-.1v-.1l.1-.2Z" name="Siskiyou" fips="06093" />
    <path id="san-benito-county" class="county missing" d="m130.6 249.2.3-.1.1-.4.1-.2h.3l.2.3.3.2h.8l.2.3.1-.1.1-.1h.4v-.5l.1-.1.1-.2h.2l.1-.1h.1l.1-.1v-.2l.2-.2.1-.2h.2v-.2l.2-.1h.1v-.1l.1-.2v-.2h.1v-.3l.1-.1.1-.2.1-.2.4-.5.7.2v.1h.2v-.3l.1-.1h.1l.2-.1.2.2.3.2.1.2.1.1.4.5h7l.1.1v.1l-.1.1v.2l-.2.1h-.1l-.2.2v.4l-.1.2v.2h.1l.1.1h.1v.3l.1.1h.7l.1-.1h.3v.1l.2.1v.7l.1.1h.1v.1l.1.1h.2v.1l.1.2v.3l.1.1.2.1h.2v.6l.2.1v.1h.1v.4l.6.4.2.1.6.3.4.2 3 1.5.3.2 2 1 .5.4v.1l1.6 1.5v.1l.6.6 3.6 3.6 1.2 1.1 3.9 3.9h.2v6.8l-.2.1h-.3v.2l-.2.1h-.4l-.1.1h-.4v-.1h-.2l-.3.1h-.2v.1l-.2.1v.1l-.1.2-.1.1-.2.2v.1h-.1v.4h.1l.1.2h.1v.1l-.1.1v.4l-.1-.1h-.3v-.2l-.1-.1h-.1v-.1l-.1-.1-.1-.1-.1-.2h-.1v.1h-.2v-.1h-.1l-.1-.2h-.2l-.1-.2-.1-.1-.2-.1h-.2v-.1l-.1-.2h-.5v.1l.2.2h.2v.2h.1l.1.3.1.1v.1h.1v.4h.1v.1h.1l.1.2v.1l.2.1v.2l.1.3.1.1v.1l.1.2v.3l.1.2v.8h.1v.4h-.2v.2h-.3l-.2-.1h-.2v-.1h-.2l-.1.1h-.1v.1h-.2l-.1-.2h-.2v-.2h-.2v-.4h-.4l-.1-.2h-.1v-.3h-.3v-.2h-.1v-.1h-.2v-.1h-.2v-.2h-.2v-.4h-.1l-.2-.1v-.1h-.4l.1-.1h-.2v-.2h-.1v-.1l-.1-.3h.1-.1v-.2h-.1v-.2h-.2v-.1h-.3v-.2h-.1l-.2-.2h-.2v-.1h-.3l-.2.1-.1.1-.3-.3v-.1l-.2-.1h-.1l-.1-.1v-.2h-.5v.4h-.2v.1l-.1.2h-.1v.2l-.2.2h.1v.1l-.1.1-.1.1h-.1l-.2.2-.2-.2h-.2v-.1l-.2-.3h-.2l-.1-.1h-.2v.6l-.1.1v.2h-.4l-.1.1h-.2l-.1.1v-.1h-.1v.2h-.1v.1h-.3v-.6h-.4.1l-.2.2v-2.3l-2.6-2.6-.1-.1-1.6-1.6-1-.9v-.4h-.1l-.1-.1-.2-.2v-.1l-.2-.2v-.2h-.5v-.8l-.1-.2h-.1v-.1h-.1v-.2h-.1v-.1h-.4l-.2.1h-.3l-.1.1h-.5v-.2h-.4v.1h-.4v.2h-.2v-.4l.1-.2v-.2h.1v-.2h.2l.1-.1v-.4l-.1-.2v-.1h-.2v-.2l-.1-.1-.1-.2h-.2l-.1-.1h-.2l-.1-.2v-.5l-.1-.1v-.2h.5v-.3h-.1v-.6l.1-.2h.1v-.4l-.1-.1-.2-.2-.2-.2v-.2h-.1l-.1-.1v-.2l-.1-.2h-.2v-.2l-.1-.1h-.2v-.1l-.1-.1-.2-.1h-.1l-.2.2-.1-.1h-.8v-.1h-.4v-.2l-.1-.1v-.1l-.1-.3h-.2v-.1l-.2-.1h-.4l-.1.1h-.1l-.2-.1v-.1h-.1l-.1-.1h-.1v-.1h-.3v-.3h-.2v-.2h-.1v-.4h-.2v-.3l-.1-.1v-.1h.5l.1-.1h.2l.2-.2.1-.1v-.2l-.3-.2v-.4h-.2v-.1h-.2v-.2h-.1v-.5h-.1l-.1-.2h-.1l-.2.1-.2.1h-.2v.2h-.1l-1-1.2-.5-.4-.4-.5-.5-.5-.8-.8-.8-.4-.2-.3-.1-.2-.4-.7v-.8Z" name="San Benito" fips="06069" />
    <path id="kings-county" class="county missing" d="m176.2 291.3 4-3.8v-.2l1-.9h.1l1.4-1.3.7-.8.2-.1 1.3-1.2.9-.9 1.1-1.1.3-.2.6-.6.6-.6v-9.3h7.1v-.5l.2-.1h.2v-.1h.2v-.1h.8v-.2l.2-.1h.1l.3.1h.2l.1-.1.1-.1h.4v.4h.1l.4-.3.2-.2.3-.3.1-.1.2-.2 2-1.8h1.6v3.7h1.8v5.6h-1.9v5.6h-.2v14.7h-23.4v-.5l-.1-.1v-.6l-.3-.1h-.1l-.1-.2-.1.1h-.1v-.1h-.1v-.2l-.1-.2-.1-.2v-.1h-.1v-.5l.2-.1v-.2h.2l.1-.2v-.2h-.1v-.4h-.1l-.2-.3-.1-.1-.2-.2-.2-.2-.1-.1h-.1v-.2h-1.6Z" name="Kings" fips="06031" />
    <path id="stanislaus-county" class="county missing" d="m136.5 224 3.3-3.3v-.1l.5-.5 1-.8.3-.4 1.3-1.3.6-.5 1-1h.3v-.2h.2l.1-.1.1-.1v-.1h-.1v-.1h.1v-.1h-.1v-.2h.1l.1-.2v.1h.3v-.3l.2-.1v.2h.1v-.1h.2v.1h.1v.2h.1v-.1h.2v-.4h.2v-.2h-.1v-.2.1l.3.2h.1v-.2h.3v-.1h-.1v-.2h.1v-.4h.7v-.2h.8v-.1h.1l.1-.2.1-.1-.1-.3v-.1h.3v.2h.2v.2h.1l.1-.2v-.2h.4v.2h.4v-.4h.2v-.1h.3v.5h.2v.1h.1v-.1l.1.1h.1v-.1h.3l.2-.2h.1v-.4h.3v.2h.2l.2-.2v-.2h.1l.3.1h.1v.1l.2.1v.1l.1.1.1.1.3.1.1.1.2.1h.2v-.1h.3l.2.1h.4v-.4h.1v-.4h-.2V198l.2.3 1.5 1.8.8.9.2.3h.2l.3.3 1.3 1.6.1.1.2.2.1.1.2.2.1.2.2.1.5.6v.1l.2.2v.2l.6.6.3.3 2 2.3.2.2h.1l2.8 2.7.4.4.4.3.2.2 2.8 2.7.7.6 1.5 1.5.3.3-4.6 2.2-2.6 1.3-.8.4-.2.2-1.9.8-2.3 1.2-.3.1-1 .5-.4.2-.6.3-.2.1-.3.2-.3.2h-.3l-.3.2-.5.2-.5.2-1.2.7-.5.2-.1.2-1.5.7-.2.1v.5h-.2v.2h.4v.1l-.1.2v.1h.4-.1v.3l-.2.1v.1h.1v.5l.1.1h.2v.2h.2l-.2.3-1 1-.3.2-.1.2h-.1v.1l-1.2 1.2-.4.4-.2.2-.4.4-.2.2-.2.1-.2.3-4.3 4.3-.2.2-.1-.2v-.2l-.1-.2v-.2h-.1v-.2h-.9v-.2l-.1-.2-.1-.1-.1-.2-.1-.2h-.1l-.1-.2h-.1v.1h-.1v.2h-.2v.2l-.1.1-.1.2h-.1v-.1h-.2l-.2-.1h-.2l-.2.1h-.1l-.2-.1-.2-.2h-.1v-.1l-.2-.1-.1-.1-.1-.1h-.3v.1l-.3.2-.1.2h-.1v.2h-.2v.7h-.4l-.1.1-.1-.1h-.1v-.2h-.2v-.7h-.2v-1.2l-.1-.2v-.1l-.1-.2v-.2l-.1-.2v-.2l-.2-.1v-.1l-.2-.1h-.1l-.2-.1-.1-.2-.2-.1v-.4l-.2-.1v-1.4h-.1v-.1h.1v-.1l.2-.2v-.1l.2-.2v.2h.4l.2-.1.1-.2h.2v-.2h.1l.1-.1v-.1h.1v-.5l-.1-.2v-.2l-.3-.6v-.5l-.1-.1v-.2h.2v-.6h.2v-.6h-.2l-.1-.2h-.7l-.2.1v-.1h-.3v-.5l-.2-.4-.3-.3.2-.1-.1-.1v-.1l.2-.3v-.8l-.1.1v-.1h-.2v-.2l-.1-.1-.2-.1h-.1v-.4l.2-.3h.1Z" name="Stanislaus" fips="06099" />
  </g>
  <use id="top-county" />
  <g id="facilities" />
  <use id="top-facility" />
</svg>
